{"glyphs":{"0":{"ha":828,"x_min":158,"x_max":797,"o":"m 399 -17 q 283 15 332 -17 q 208 100 235 46 q 170 215 182 154 q 158 344 158 275 q 169 487 158 410 q 210 655 181 564 q 282 819 239 746 q 397 940 325 892 q 560 989 469 989 q 740 885 682 989 q 797 626 797 781 q 785 476 797 557 q 744 307 774 396 q 670 147 714 218 q 556 30 626 76 q 399 -17 485 -17 m 404 33 q 563 97 493 33 q 669 258 632 161 q 725 449 707 354 q 743 626 743 544 q 698 850 743 761 q 551 939 653 939 q 419 895 479 939 q 322 785 360 851 q 259 635 285 718 q 223 480 233 553 q 213 344 213 407 q 229 193 213 260 q 290 80 246 126 q 404 33 335 33 z "},"1":{"ha":431,"x_min":193,"x_max":432,"o":"m 210 0 l 353 808 l 193 808 l 197 842 q 328 865 290 842 q 399 972 365 889 l 432 972 l 260 0 l 210 0 z "},"2":{"ha":800,"x_min":88,"x_max":790,"o":"m 88 0 q 129 139 101 79 q 205 246 157 199 q 297 324 253 293 q 418 399 340 354 q 497 445 471 429 q 567 492 522 461 q 636 547 613 522 q 687 607 660 572 q 725 681 714 642 q 736 765 736 721 q 688 892 736 844 q 551 939 639 939 q 392 890 461 939 q 288 758 324 842 l 244 781 q 368 931 286 872 q 553 989 450 989 q 728 927 665 989 q 790 765 790 865 q 778 681 790 722 q 751 610 767 640 q 703 546 736 579 q 649 492 671 513 q 580 442 626 472 q 512 399 533 413 q 439 357 490 386 q 242 214 306 279 q 151 50 178 149 l 675 50 l 665 0 l 88 0 z "},"3":{"ha":786,"x_min":88,"x_max":756,"o":"m 368 -17 q 180 43 250 -17 q 88 193 110 103 l 136 211 q 219 79 158 125 q 368 33 279 33 q 572 103 490 33 q 654 297 654 172 q 449 481 654 481 l 406 481 l 414 529 l 444 529 q 626 598 553 529 q 700 776 700 667 q 653 894 700 850 q 528 939 606 939 q 275 788 376 939 l 231 807 q 358 936 279 883 q 535 989 436 989 q 694 932 633 989 q 756 782 756 875 q 702 619 756 696 q 547 507 649 542 q 665 435 624 489 q 706 300 706 381 q 610 69 706 156 q 368 -17 514 -17 z "},"4":{"ha":782,"x_min":89,"x_max":757,"o":"m 503 0 l 553 283 l 89 283 l 94 313 l 703 972 l 726 972 l 614 329 l 757 329 l 747 283 l 604 283 l 554 0 l 503 0 m 563 329 l 654 861 l 169 329 l 563 329 z "},"5":{"ha":839,"x_min":111,"x_max":814,"o":"m 390 -17 q 220 22 294 -17 q 111 110 146 61 l 151 151 q 390 33 233 33 q 630 131 544 33 q 715 361 715 229 q 657 518 715 458 q 501 578 599 578 q 251 468 364 578 l 211 479 l 376 972 l 814 972 l 806 922 l 413 922 l 288 550 q 510 628 383 628 q 697 555 625 628 q 768 367 768 482 q 728 183 768 268 q 599 40 688 97 q 390 -17 511 -17 z "},"6":{"ha":781,"x_min":118,"x_max":707,"o":"m 361 -17 q 178 61 239 -17 q 118 250 118 139 q 283 698 118 493 q 701 989 449 903 l 688 938 q 394 748 526 882 q 206 454 261 614 q 467 590 307 590 q 644 519 581 590 q 707 336 707 449 q 608 87 707 190 q 361 -17 508 -17 m 364 33 q 569 122 485 33 q 653 336 653 211 q 602 485 653 429 q 460 540 551 540 q 256 451 342 540 q 169 242 169 363 q 222 90 169 147 q 364 33 274 33 z "},"7":{"ha":660,"x_min":197,"x_max":747,"o":"m 211 0 q 369 487 261 263 q 685 922 476 711 l 197 922 l 207 972 l 747 972 l 740 929 q 265 0 368 569 l 211 0 z "},"8":{"ha":797,"x_min":132,"x_max":761,"o":"m 388 -17 q 201 51 269 -17 q 132 224 132 118 q 203 423 132 335 q 385 539 275 511 q 294 606 326 557 q 261 714 261 656 q 344 908 261 826 q 551 989 426 989 q 705 931 649 989 q 761 781 761 872 q 708 628 761 697 q 558 533 656 558 q 677 451 635 511 q 719 311 719 392 q 624 77 719 171 q 388 -17 529 -17 m 479 557 q 644 620 579 557 q 710 781 710 683 q 664 897 710 854 q 544 939 618 939 q 381 877 449 939 q 314 714 314 815 q 358 600 314 643 q 479 557 403 557 m 388 33 q 584 109 503 33 q 665 306 665 185 q 612 453 665 394 q 468 513 558 513 q 269 427 351 513 q 188 225 188 342 q 243 85 188 138 q 388 33 299 33 z "},"9":{"ha":781,"x_min":188,"x_max":775,"o":"m 224 -17 l 232 33 q 513 223 389 82 q 689 533 638 364 q 428 400 579 400 q 250 472 313 400 q 188 654 188 544 q 284 892 188 796 q 526 989 381 989 q 709 914 643 989 q 775 731 775 839 q 614 273 775 493 q 224 -17 453 53 m 431 450 q 637 532 553 450 q 721 731 721 614 q 667 880 721 821 q 526 939 614 939 q 325 857 407 939 q 243 654 243 775 q 293 507 243 564 q 431 450 343 450 z "}," ":{"ha":319,"x_min":0,"x_max":0,"o":""},"!":{"ha":342,"x_min":136,"x_max":350,"o":"m 204 268 l 235 639 l 296 989 l 350 989 l 289 639 l 218 268 l 204 268 m 171 -19 q 146 -9 156 -19 q 136 17 136 1 q 150 50 136 36 q 183 64 164 64 q 208 53 199 64 q 218 26 218 42 q 204 -6 218 7 q 171 -19 190 -19 z "},"\"":{"ha":475,"x_min":172,"x_max":524,"o":"m 172 601 l 238 972 l 290 972 l 225 601 l 172 601 m 406 601 l 471 972 l 524 972 l 458 601 l 406 601 z "},"#":{"ha":918,"x_min":121,"x_max":938,"o":"m 197 0 l 289 303 l 121 303 l 136 353 l 303 353 l 389 635 l 221 635 l 236 685 l 403 685 l 489 972 l 542 972 l 456 685 l 715 685 l 801 972 l 860 972 l 774 685 l 938 685 l 924 635 l 760 635 l 674 353 l 839 353 l 824 303 l 660 303 l 569 0 l 511 0 l 601 303 l 342 303 l 251 0 l 197 0 m 356 353 l 615 353 l 701 635 l 442 635 l 356 353 z "},"$":{"ha":789,"x_min":115,"x_max":768,"o":"m 331 -136 l 351 -15 q 196 50 257 -7 q 115 189 135 107 l 167 206 q 392 33 214 33 q 583 98 506 33 q 660 274 660 163 q 617 394 660 344 q 513 474 574 444 q 390 535 451 504 q 286 617 329 565 q 243 740 243 668 q 319 914 243 844 q 528 989 396 983 l 547 1096 l 597 1096 l 578 986 q 704 938 656 979 q 768 828 753 896 l 718 813 q 540 940 688 940 q 363 888 431 940 q 296 747 296 835 q 339 642 296 686 q 444 570 382 599 q 567 510 506 542 q 671 421 628 478 q 714 283 714 364 q 628 69 714 150 q 401 -15 542 -11 l 381 -136 l 331 -136 z "},"%":{"ha":1201,"x_min":190,"x_max":1151,"o":"m 369 494 q 235 552 281 494 q 190 692 190 610 q 215 822 190 757 q 301 938 240 888 q 447 989 363 989 q 581 929 538 989 q 624 789 624 869 q 609 689 624 739 q 565 594 594 639 q 485 522 536 550 q 369 494 435 494 m 282 -17 l 222 -17 l 1063 989 l 1122 989 l 282 -17 m 374 544 q 519 619 468 544 q 571 782 571 693 q 540 892 571 846 q 443 939 508 939 q 297 862 349 939 q 244 699 244 785 q 276 589 244 633 q 374 544 307 544 m 899 -17 q 764 41 808 -17 q 719 181 719 99 q 785 383 719 288 q 975 478 851 478 q 1108 418 1065 478 q 1151 278 1151 358 q 1137 178 1151 228 q 1093 83 1122 128 q 1013 11 1064 39 q 899 -17 963 -17 m 901 33 q 1047 108 996 33 q 1099 271 1099 182 q 1067 381 1099 335 q 971 428 1036 428 q 825 351 876 428 q 774 188 774 275 q 805 78 774 122 q 901 33 836 33 z "},"&":{"ha":869,"x_min":90,"x_max":824,"o":"m 751 0 l 653 149 q 313 -17 497 -17 q 150 40 210 -17 q 90 193 90 96 q 168 388 90 307 q 392 543 246 468 q 300 767 300 685 q 367 928 300 867 q 535 989 435 989 q 665 941 613 989 q 717 817 717 893 q 656 665 717 732 q 465 532 594 599 l 664 236 q 768 443 729 324 l 821 443 q 693 194 786 311 l 824 0 l 751 0 m 356 775 q 442 568 356 700 q 608 681 554 625 q 661 811 661 738 q 625 904 661 869 q 531 939 589 939 q 404 892 453 939 q 356 775 356 846 m 321 33 q 626 189 488 33 l 415 506 q 210 365 278 435 q 143 201 143 294 q 192 78 143 122 q 321 33 242 33 z "},"'":{"ha":242,"x_min":172,"x_max":290,"o":"m 238 972 l 290 972 l 225 601 l 172 601 l 238 972 z "},"(":{"ha":439,"x_min":167,"x_max":525,"o":"m 254 -181 q 167 229 167 -21 q 256 668 167 474 q 475 989 346 863 l 525 989 q 446 894 488 950 q 349 741 404 838 q 258 512 293 644 q 222 239 222 379 q 304 -181 222 -11 l 254 -181 z "},")":{"ha":439,"x_min":43,"x_max":382,"o":"m 43 -181 q 99 -115 79 -139 q 168 -12 118 -90 q 247 137 218 65 q 302 321 276 208 q 328 551 328 433 q 296 819 328 699 q 233 989 264 939 l 283 989 q 382 558 382 819 q 93 -181 382 122 l 43 -181 z "},"*":{"ha":700,"x_min":174,"x_max":740,"o":"m 492 546 l 443 671 l 351 546 l 247 431 l 208 464 l 310 579 l 432 681 l 300 711 l 174 756 l 200 804 l 328 760 l 436 697 l 442 826 l 467 972 l 522 972 l 497 826 l 456 697 l 589 761 l 731 806 l 740 753 l 600 708 l 457 681 l 539 579 l 607 461 l 557 428 l 492 546 z "},"+":{"ha":883,"x_min":185,"x_max":838,"o":"m 536 450 l 536 150 l 483 150 l 483 450 l 185 450 l 185 500 l 483 500 l 483 803 l 536 803 l 536 500 l 838 500 l 838 450 l 536 450 z "},",":{"ha":253,"x_min":54,"x_max":176,"o":"m 67 -196 l 54 -192 q 106 -108 82 -161 q 129 -19 129 -54 q 102 -10 113 -19 q 92 17 92 0 q 104 51 92 38 q 138 64 117 64 q 176 15 176 64 q 141 -101 176 -39 q 67 -196 106 -162 z "},"-":{"ha":526,"x_min":161,"x_max":479,"o":"m 161 389 l 169 439 l 479 439 l 471 389 l 161 389 z "},".":{"ha":253,"x_min":88,"x_max":171,"o":"m 121 -19 q 97 -9 107 -19 q 88 17 88 1 q 103 49 89 35 q 138 64 118 64 q 162 53 153 64 q 171 26 171 43 q 155 -6 169 7 q 121 -19 140 -19 z "},"/":{"ha":642,"x_min":-42,"x_max":763,"o":"m -42 -181 l 707 989 l 763 989 l 13 -181 l -42 -181 z "},":":{"ha":253,"x_min":75,"x_max":265,"o":"m 215 588 q 192 598 201 588 q 182 624 182 608 q 198 656 183 642 q 232 671 213 671 q 256 660 247 671 q 265 633 265 650 q 249 601 264 614 q 215 588 235 588 m 108 -19 q 85 -9 94 -19 q 75 17 75 1 q 91 49 76 35 q 125 64 106 64 q 149 53 140 64 q 158 26 158 43 q 142 -6 157 7 q 108 -19 128 -19 z "},";":{"ha":253,"x_min":39,"x_max":265,"o":"m 215 588 q 192 598 201 588 q 182 624 182 608 q 198 656 183 642 q 232 671 213 671 q 256 660 247 671 q 265 633 265 650 q 249 601 264 614 q 215 588 235 588 m 51 -196 l 39 -192 q 90 -108 67 -161 q 114 -19 114 -54 q 87 -10 97 -19 q 76 17 76 0 q 89 51 76 38 q 122 64 101 64 q 161 15 161 64 q 126 -101 161 -39 q 51 -196 90 -162 z "},"<":{"ha":883,"x_min":185,"x_max":838,"o":"m 838 167 l 185 450 l 185 503 l 838 786 l 838 729 l 250 476 l 838 224 l 838 167 z "},"=":{"ha":883,"x_min":185,"x_max":838,"o":"m 185 582 l 185 632 l 838 632 l 838 582 l 185 582 m 185 318 l 185 368 l 838 368 l 838 318 l 185 318 z "},">":{"ha":883,"x_min":185,"x_max":838,"o":"m 838 450 l 185 167 l 185 224 l 772 476 l 185 729 l 185 786 l 838 503 l 838 450 z "},"?":{"ha":697,"x_min":194,"x_max":738,"o":"m 328 217 l 336 264 q 391 394 350 336 q 480 492 432 453 q 574 569 528 531 q 652 658 621 607 q 683 772 683 708 q 635 892 683 846 q 499 939 588 939 q 239 771 318 939 l 194 792 q 323 938 242 886 q 504 989 404 989 q 676 929 615 989 q 738 774 738 869 q 706 651 738 706 q 626 556 674 596 q 531 476 579 515 q 441 382 482 436 q 389 264 400 328 l 381 217 l 328 217 m 311 -19 q 288 -9 297 -19 q 278 17 278 1 q 294 49 279 35 q 328 64 308 64 q 352 53 343 64 q 361 26 361 43 q 345 -6 360 7 q 311 -19 331 -19 z "},"@":{"ha":1076,"x_min":131,"x_max":1090,"o":"m 540 -17 q 245 97 360 -17 q 131 401 131 210 q 179 638 131 526 q 308 826 228 750 q 489 945 388 901 q 696 989 590 989 q 983 889 876 989 q 1090 628 1090 789 q 1008 343 1090 464 q 824 222 926 222 q 752 248 778 222 q 726 319 726 274 q 528 210 649 210 q 403 263 449 210 q 358 407 358 315 q 440 634 358 533 q 646 735 521 735 q 753 693 715 735 q 797 592 792 651 l 836 717 l 885 717 l 796 432 q 775 332 775 369 q 829 265 775 265 q 972 376 908 265 q 1036 628 1036 486 q 943 853 1036 767 q 696 939 850 939 q 339 783 493 939 q 185 401 185 626 q 279 137 185 240 q 540 33 374 33 q 722 51 644 33 l 704 1 q 540 -17 631 -17 m 540 258 q 701 342 633 258 q 768 531 768 426 q 734 644 768 601 q 642 686 700 686 q 475 603 539 686 q 411 411 411 521 q 446 299 411 340 q 540 258 481 258 z "},"A":{"ha":886,"x_min":81,"x_max":767,"o":"m 81 0 l 574 972 l 610 972 l 767 0 l 715 0 l 669 274 l 275 274 l 136 0 l 81 0 m 294 315 l 664 315 l 600 733 q 576 889 583 825 q 506 733 572 878 l 294 315 z "},"B":{"ha":850,"x_min":121,"x_max":813,"o":"m 292 972 l 576 972 q 757 916 701 972 q 813 767 813 860 q 746 596 813 668 q 575 506 679 524 q 714 442 661 499 q 767 292 767 385 q 749 192 767 240 q 696 99 732 143 q 592 27 660 54 q 435 0 525 0 l 121 0 l 292 972 m 468 526 q 683 594 603 526 q 764 767 764 663 q 574 928 764 928 l 336 928 l 265 526 l 468 526 m 440 44 q 648 117 581 44 q 715 292 715 190 q 481 482 715 482 l 257 482 l 179 44 l 440 44 z "},"C":{"ha":861,"x_min":160,"x_max":874,"o":"m 454 -17 q 232 94 304 -17 q 160 369 160 204 q 192 594 160 485 q 281 792 224 704 q 428 935 339 881 q 625 989 518 989 q 784 947 729 989 q 874 832 839 904 l 826 807 q 750 906 794 872 q 624 939 706 939 q 403 853 499 939 q 262 640 308 768 q 215 371 215 513 q 275 128 215 224 q 460 33 335 33 q 614 76 547 33 q 721 182 681 118 l 768 161 q 454 -17 654 -17 z "},"D":{"ha":896,"x_min":121,"x_max":857,"o":"m 292 972 l 500 972 q 667 940 596 972 q 779 853 739 908 q 838 731 819 797 q 857 586 857 664 q 823 367 857 471 q 725 180 789 263 q 557 49 661 97 q 324 0 453 0 l 121 0 l 292 972 m 333 50 q 674 203 547 50 q 800 586 800 356 q 784 713 800 656 q 733 819 768 771 q 637 895 699 868 q 490 922 575 922 l 333 922 l 182 50 l 333 50 z "},"E":{"ha":781,"x_min":121,"x_max":788,"o":"m 121 0 l 292 972 l 788 972 l 781 926 l 336 926 l 265 526 l 561 526 l 553 481 l 257 481 l 181 46 l 656 46 l 647 0 l 121 0 z "},"F":{"ha":736,"x_min":121,"x_max":801,"o":"m 121 0 l 292 972 l 801 972 l 794 926 l 336 926 l 265 526 l 571 526 l 563 481 l 257 481 l 172 0 l 121 0 z "},"G":{"ha":918,"x_min":160,"x_max":869,"o":"m 457 -17 q 285 39 354 -17 q 188 178 217 94 q 160 368 160 261 q 190 593 160 483 q 277 792 221 703 q 425 935 333 881 q 628 989 517 989 q 869 856 793 989 l 819 826 q 622 939 760 939 q 440 885 521 939 q 310 745 358 831 q 238 564 263 660 q 214 374 214 468 q 274 129 214 225 q 460 33 335 33 q 660 119 579 33 q 772 374 742 206 l 775 390 l 578 390 l 585 439 l 836 439 l 828 390 q 693 83 792 183 q 457 -17 594 -17 z "},"H":{"ha":900,"x_min":121,"x_max":900,"o":"m 121 0 l 292 972 l 343 972 l 267 529 l 772 529 l 849 972 l 900 972 l 729 0 l 678 0 l 763 482 l 257 482 l 172 0 l 121 0 z "},"I":{"ha":328,"x_min":121,"x_max":343,"o":"m 121 0 l 292 972 l 343 972 l 172 0 l 121 0 z "},"J":{"ha":711,"x_min":54,"x_max":721,"o":"m 283 -17 q 133 29 190 -17 q 54 149 75 75 l 100 171 q 283 31 140 31 q 553 310 504 31 l 668 972 l 721 972 l 606 313 q 283 -17 547 -17 z "},"K":{"ha":832,"x_min":121,"x_max":811,"o":"m 674 0 l 460 603 l 236 367 l 172 0 l 121 0 l 292 972 l 343 972 l 250 443 l 751 972 l 811 972 l 499 643 l 726 0 l 674 0 z "},"L":{"ha":710,"x_min":121,"x_max":650,"o":"m 121 0 l 292 972 l 343 972 l 181 46 l 650 46 l 642 0 l 121 0 z "},"M":{"ha":1081,"x_min":119,"x_max":1076,"o":"m 513 -17 l 340 726 q 328 783 336 746 q 317 831 319 819 q 307 774 314 810 q 299 726 300 739 l 171 0 l 119 0 l 290 972 l 336 972 l 506 233 q 518 176 508 217 q 532 114 528 136 q 600 233 535 119 l 1028 972 l 1076 972 l 906 0 l 854 0 l 982 726 q 1000 828 993 793 q 942 726 981 793 l 513 -17 z "},"N":{"ha":918,"x_min":119,"x_max":919,"o":"m 119 0 l 290 972 l 339 972 l 650 243 q 714 93 707 110 q 727 172 718 121 q 740 243 736 222 l 868 972 l 919 972 l 749 0 l 700 0 l 389 726 q 362 790 386 733 q 325 879 338 847 q 312 800 321 851 q 299 726 303 749 l 171 0 l 119 0 z "},"O":{"ha":967,"x_min":160,"x_max":925,"o":"m 463 -17 q 288 42 358 -17 q 189 185 218 100 q 160 375 160 271 q 176 541 160 457 q 231 706 193 625 q 321 849 268 786 q 453 951 374 913 q 628 989 533 989 q 853 880 782 989 q 925 604 925 771 q 898 393 925 499 q 817 194 871 288 q 672 42 764 100 q 463 -17 579 -17 m 469 33 q 622 69 553 33 q 737 165 692 106 q 813 299 782 224 q 858 452 844 375 q 872 606 872 529 q 812 845 872 751 q 621 939 751 939 q 468 903 538 939 q 353 808 399 867 q 274 674 307 750 q 228 522 242 599 q 214 369 214 444 q 238 202 214 275 q 320 81 261 129 q 469 33 379 33 z "},"P":{"ha":804,"x_min":121,"x_max":843,"o":"m 121 0 l 292 972 l 571 972 q 779 903 715 972 q 843 726 843 835 q 822 615 843 671 q 758 511 800 560 q 644 432 715 463 q 482 401 572 401 l 243 401 l 172 0 l 121 0 m 485 451 q 709 535 631 451 q 788 726 788 619 q 567 922 788 922 l 333 922 l 253 451 l 485 451 z "},"Q":{"ha":967,"x_min":160,"x_max":925,"o":"m 732 -79 l 672 42 q 463 -17 582 -17 q 288 42 358 -17 q 189 185 218 100 q 160 375 160 271 q 176 541 160 457 q 231 706 193 625 q 321 849 268 786 q 453 951 374 913 q 628 989 533 989 q 853 880 782 989 q 925 604 925 771 q 871 305 925 453 q 713 71 817 157 l 774 -53 l 732 -79 m 469 33 q 650 86 568 33 l 586 215 l 629 242 l 690 117 q 826 332 781 196 q 872 606 872 468 q 812 845 872 751 q 621 939 751 939 q 468 903 538 939 q 353 808 399 867 q 274 674 307 750 q 228 522 242 599 q 214 369 214 444 q 238 202 214 275 q 320 81 261 129 q 469 33 379 33 z "},"R":{"ha":867,"x_min":121,"x_max":850,"o":"m 850 746 q 765 548 850 624 q 547 460 681 472 l 690 0 l 635 0 l 492 457 l 253 457 l 172 0 l 121 0 l 292 972 l 604 972 q 790 906 729 972 q 850 746 850 839 m 493 503 q 708 563 621 503 q 796 746 796 624 q 751 873 796 819 q 604 926 707 926 l 336 926 l 261 503 l 493 503 z "},"S":{"ha":792,"x_min":117,"x_max":760,"o":"m 708 814 q 529 940 681 940 q 360 888 422 940 q 297 747 297 835 q 340 644 297 688 q 442 571 382 600 q 561 509 501 542 q 663 419 621 476 q 706 283 706 363 q 615 65 706 146 q 388 -17 525 -17 q 209 42 281 -17 q 117 188 138 100 l 168 204 q 248 78 189 125 q 393 32 307 32 q 577 97 503 32 q 651 274 651 163 q 609 395 651 344 q 507 477 567 446 q 388 540 447 508 q 285 622 328 571 q 243 746 243 674 q 322 919 243 849 q 531 989 401 989 q 686 945 624 989 q 760 828 749 901 l 708 814 z "},"T":{"ha":746,"x_min":233,"x_max":814,"o":"m 544 926 l 381 0 l 329 0 l 493 926 l 233 926 l 242 972 l 814 972 l 806 926 l 544 926 z "},"U":{"ha":886,"x_min":168,"x_max":892,"o":"m 424 -17 q 238 49 308 -17 q 168 249 168 115 q 179 364 168 297 l 286 972 l 339 972 l 233 374 q 222 257 222 314 q 240 143 222 190 q 290 74 258 96 q 354 42 322 51 q 424 32 386 32 q 732 349 676 32 l 840 972 l 892 972 l 783 346 q 424 -17 721 -17 z "},"V":{"ha":850,"x_min":224,"x_max":910,"o":"m 381 0 l 224 972 l 278 972 l 388 278 q 402 189 393 247 q 415 104 411 131 q 503 278 474 221 l 853 972 l 910 972 l 418 0 l 381 0 z "},"W":{"ha":1128,"x_min":224,"x_max":1185,"o":"m 288 0 l 224 972 l 279 972 l 326 217 q 328 171 326 201 q 332 124 331 140 l 369 217 l 682 972 l 724 972 l 779 217 q 783 170 781 201 q 786 124 785 139 l 824 217 l 1131 972 l 1185 972 l 788 0 l 744 0 l 690 726 l 682 846 q 660 790 676 831 q 633 726 643 749 l 332 0 l 288 0 z "},"X":{"ha":731,"x_min":39,"x_max":788,"o":"m 39 0 l 400 510 l 235 972 l 289 972 l 436 560 l 728 972 l 788 972 l 456 504 l 636 0 l 582 0 l 419 453 l 99 0 l 39 0 z "},"Y":{"ha":806,"x_min":214,"x_max":882,"o":"m 354 0 l 422 385 l 214 972 l 265 972 l 453 438 l 825 972 l 882 972 l 472 385 l 404 0 l 354 0 z "},"Z":{"ha":799,"x_min":61,"x_max":860,"o":"m 61 0 l 67 26 l 785 926 l 257 926 l 264 972 l 860 972 l 854 943 l 138 46 l 694 46 l 689 0 l 61 0 z "},"[":{"ha":493,"x_min":121,"x_max":568,"o":"m 121 -181 l 325 989 l 568 989 l 561 942 l 369 942 l 181 -133 l 372 -133 l 364 -181 l 121 -181 z "},"\\":{"ha":642,"x_min":163,"x_max":558,"o":"m 504 -181 l 163 989 l 217 989 l 558 -181 l 504 -181 z "},"]":{"ha":493,"x_min":38,"x_max":485,"o":"m 38 -181 l 46 -133 l 238 -133 l 426 942 l 235 942 l 242 989 l 485 989 l 281 -181 l 38 -181 z "},"^":{"ha":883,"x_min":215,"x_max":807,"o":"m 754 503 l 511 921 l 268 503 l 215 503 l 485 989 l 538 989 l 807 503 l 754 503 z "},"_":{"ha":703,"x_min":-33,"x_max":682,"o":"m -33 -215 l -25 -169 l 682 -169 l 674 -215 l -33 -215 z "},"`":{"ha":432,"x_min":179,"x_max":428,"o":"m 376 800 l 179 1017 l 256 1017 l 428 800 l 376 800 z "},"a":{"ha":690,"x_min":107,"x_max":656,"o":"m 515 0 l 533 104 q 293 -17 424 -17 q 157 35 207 -17 q 107 181 107 88 q 188 369 107 297 q 385 440 269 440 q 579 368 493 440 l 596 458 q 606 547 606 518 q 471 681 606 681 q 247 610 374 681 l 238 654 q 472 726 372 726 q 656 549 656 726 q 647 469 656 522 l 565 0 l 515 0 m 296 29 q 544 169 422 29 l 572 324 q 382 393 482 393 q 228 334 292 393 q 164 181 164 275 q 199 70 164 111 q 296 29 235 29 z "},"b":{"ha":742,"x_min":117,"x_max":710,"o":"m 385 -17 q 186 104 251 -17 l 168 0 l 117 0 l 288 976 l 343 1003 l 274 606 q 497 726 365 726 q 653 649 596 726 q 710 443 710 572 q 620 108 710 233 q 385 -17 531 -17 m 385 33 q 582 150 508 33 q 656 443 656 267 q 613 616 656 556 q 490 676 571 676 q 359 633 418 676 q 261 532 300 589 l 199 175 q 385 33 249 33 z "},"c":{"ha":629,"x_min":121,"x_max":626,"o":"m 338 -17 q 178 56 236 -17 q 121 263 121 129 q 210 594 121 461 q 442 726 300 726 q 572 682 522 726 q 626 576 621 638 l 579 558 q 533 645 569 614 q 440 676 497 676 q 249 558 322 676 q 175 263 175 439 q 217 94 175 154 q 338 33 258 33 q 442 68 394 33 q 518 165 490 103 l 565 146 q 338 -17 489 -17 z "},"d":{"ha":742,"x_min":132,"x_max":776,"o":"m 351 -17 q 190 64 247 -17 q 132 281 132 144 q 227 603 132 481 q 472 726 322 726 q 591 690 544 726 q 656 603 638 653 l 722 978 l 776 1003 l 601 0 l 550 0 l 568 101 q 351 -17 465 -17 m 351 33 q 582 181 482 33 l 643 533 q 581 633 624 590 q 469 676 539 676 q 263 566 340 676 q 186 281 186 456 q 228 103 186 172 q 351 33 271 33 z "},"e":{"ha":696,"x_min":121,"x_max":678,"o":"m 344 -17 q 178 56 236 -17 q 121 265 121 129 q 220 599 121 471 q 465 726 319 726 q 619 667 561 726 q 678 486 678 608 q 658 340 678 432 l 179 340 q 175 265 175 303 q 357 33 175 33 q 526 96 442 33 l 553 57 q 344 -17 456 -17 m 186 386 l 615 386 q 625 486 625 450 q 578 635 625 590 q 467 681 531 681 q 281 597 351 681 q 186 386 211 513 z "},"f":{"ha":413,"x_min":140,"x_max":525,"o":"m 308 664 l 192 0 l 140 0 l 257 664 l 146 664 l 154 710 l 265 710 l 288 838 q 442 989 315 989 q 525 967 488 989 l 517 922 q 439 943 475 943 q 370 917 393 943 q 338 832 347 890 l 317 710 l 481 710 l 472 664 l 308 664 z "},"g":{"ha":744,"x_min":124,"x_max":722,"o":"m 222 -251 q 449 -188 374 -243 q 543 -25 524 -133 l 568 117 q 338 -17 483 -17 q 183 58 242 -17 q 124 271 124 133 q 221 601 124 476 q 467 726 318 726 q 586 691 538 726 q 654 607 635 656 l 672 710 l 722 710 l 593 -32 q 242 -296 550 -274 l 222 -251 m 347 33 q 581 188 483 33 l 642 540 q 571 641 618 606 q 463 676 524 676 q 255 567 332 676 q 178 279 178 457 q 224 99 178 164 q 347 33 271 33 z "},"h":{"ha":739,"x_min":117,"x_max":678,"o":"m 117 0 l 289 978 l 343 1003 l 269 582 q 370 691 308 656 q 493 726 432 726 q 629 677 581 726 q 678 532 678 628 q 669 433 678 486 l 593 0 l 543 0 l 619 439 q 626 532 626 482 q 486 679 626 679 q 239 410 285 679 l 168 0 l 117 0 z "},"i":{"ha":317,"x_min":119,"x_max":343,"o":"m 296 865 q 263 900 263 865 q 276 934 263 919 q 310 949 289 949 q 343 913 343 949 q 330 879 343 893 q 296 865 317 865 m 119 0 l 244 710 l 294 710 l 171 0 l 119 0 z "},"j":{"ha":325,"x_min":-93,"x_max":343,"o":"m 296 865 q 263 900 263 865 q 276 934 263 919 q 310 949 289 949 q 343 913 343 949 q 330 879 343 893 q 296 865 317 865 m -75 -296 l -93 -253 q 46 -199 -1 -243 q 110 -56 93 -156 l 244 710 l 294 710 l 161 -56 q 78 -235 138 -183 q -75 -296 18 -286 z "},"k":{"ha":665,"x_min":117,"x_max":646,"o":"m 439 515 l 607 0 l 554 0 l 399 478 l 224 314 l 168 0 l 117 0 l 289 978 l 343 1003 l 235 383 l 583 710 l 646 710 l 439 515 z "},"l":{"ha":308,"x_min":117,"x_max":343,"o":"m 117 0 l 289 978 l 343 1003 l 168 0 l 117 0 z "},"m":{"ha":1132,"x_min":117,"x_max":1063,"o":"m 117 0 l 242 710 l 290 710 l 268 582 q 364 688 303 650 q 488 726 425 726 q 600 683 558 726 q 644 553 642 640 q 747 682 682 638 q 886 726 813 726 q 1017 674 971 726 q 1063 524 1063 621 q 1056 440 1063 476 l 978 0 l 928 0 l 1004 442 q 1011 525 1011 486 q 876 679 1011 679 q 728 613 788 679 q 651 449 669 547 l 572 0 l 522 0 l 599 442 q 606 525 606 483 q 479 679 606 679 q 324 611 386 679 q 242 428 263 543 l 168 0 l 117 0 z "},"n":{"ha":739,"x_min":117,"x_max":678,"o":"m 117 0 l 242 710 l 290 710 l 268 582 q 369 691 307 656 q 493 726 431 726 q 630 676 582 726 q 678 531 678 625 q 668 424 678 481 l 593 0 l 543 0 l 617 424 q 626 531 626 479 q 483 679 626 679 q 328 616 394 679 q 239 413 263 553 l 168 0 l 117 0 z "},"o":{"ha":722,"x_min":128,"x_max":694,"o":"m 351 -17 q 187 56 246 -17 q 128 268 128 128 q 222 603 128 479 q 468 726 315 726 q 635 653 575 726 q 694 446 694 579 q 603 109 694 235 q 351 -17 511 -17 m 360 33 q 565 145 489 33 q 640 438 640 257 q 594 614 640 551 q 464 676 549 676 q 256 563 331 676 q 182 267 182 449 q 227 94 182 156 q 360 33 272 33 z "},"p":{"ha":747,"x_min":65,"x_max":713,"o":"m 381 -17 q 260 19 311 -17 q 188 118 208 56 l 122 -257 l 65 -282 l 240 710 l 292 710 l 272 606 q 496 726 365 726 q 654 649 596 726 q 713 443 713 571 q 618 108 713 233 q 381 -17 524 -17 m 382 33 q 581 147 503 33 q 660 438 660 260 q 615 613 660 549 q 486 676 569 676 q 365 640 425 676 q 263 540 304 603 l 200 183 q 382 33 244 33 z "},"q":{"ha":747,"x_min":131,"x_max":724,"o":"m 347 -17 q 188 55 244 -17 q 131 267 131 126 q 224 599 131 471 q 457 726 317 726 q 654 607 600 726 l 672 710 l 724 710 l 556 -251 l 500 -278 l 568 114 q 469 18 528 53 q 347 -17 410 -17 m 351 33 q 581 186 483 33 l 643 540 q 574 640 622 604 q 457 676 526 676 q 261 563 338 676 q 185 267 185 450 q 351 33 185 33 z "},"r":{"ha":500,"x_min":117,"x_max":585,"o":"m 117 0 l 242 710 l 290 710 l 264 558 q 370 684 310 642 q 489 726 431 726 q 585 697 549 726 l 567 654 q 481 676 535 676 q 333 603 406 676 q 236 393 260 529 l 168 0 l 117 0 z "},"s":{"ha":599,"x_min":88,"x_max":575,"o":"m 300 -17 q 88 90 164 -17 l 128 122 q 303 31 194 31 q 431 72 383 31 q 478 188 478 113 q 445 274 478 239 q 366 329 413 308 q 272 372 319 350 q 192 435 225 394 q 160 536 160 476 q 224 671 160 615 q 389 726 288 726 q 575 639 507 726 l 536 608 q 383 679 476 679 q 258 638 306 679 q 210 536 210 597 q 242 458 210 490 q 322 404 275 425 q 417 360 369 383 q 497 294 464 336 q 529 192 529 251 q 469 40 529 96 q 300 -17 408 -17 z "},"t":{"ha":474,"x_min":154,"x_max":506,"o":"m 286 -17 q 203 13 231 -17 q 175 92 175 42 q 183 165 175 119 l 271 664 l 154 664 l 163 710 l 279 710 l 326 978 l 381 1003 l 329 710 l 506 710 l 497 664 l 321 664 l 233 160 q 226 97 226 122 q 294 32 226 32 q 401 65 344 32 l 386 13 q 286 -17 335 -17 z "},"u":{"ha":739,"x_min":149,"x_max":711,"o":"m 538 0 l 558 122 q 339 -17 478 -17 q 197 33 246 -17 q 149 179 149 83 q 158 276 149 215 l 235 710 l 285 710 l 208 265 q 200 179 200 219 q 347 29 200 29 q 499 94 433 29 q 589 297 564 158 l 660 710 l 711 710 l 586 0 l 538 0 z "},"v":{"ha":661,"x_min":171,"x_max":704,"o":"m 296 0 l 171 710 l 221 710 l 313 186 l 329 89 q 379 186 338 107 l 651 710 l 704 710 l 333 0 l 296 0 z "},"w":{"ha":942,"x_min":171,"x_max":976,"o":"m 225 0 l 171 710 l 221 710 l 254 193 q 258 142 256 175 q 261 92 260 108 q 287 149 269 113 q 308 193 304 185 l 554 710 l 590 710 l 658 193 l 671 94 q 711 193 700 169 l 925 710 l 976 710 l 678 0 l 640 0 l 565 542 q 560 576 564 551 q 556 615 557 601 q 522 542 544 589 l 263 0 l 225 0 z "},"x":{"ha":650,"x_min":46,"x_max":674,"o":"m 46 0 l 344 372 l 192 710 l 244 710 l 378 414 l 615 710 l 674 710 l 399 367 l 565 0 l 513 0 l 365 325 l 104 0 l 46 0 z "},"y":{"ha":674,"x_min":136,"x_max":714,"o":"m 136 -269 l 290 19 l 165 710 l 214 710 l 300 224 l 325 79 q 400 224 350 129 l 660 710 l 714 710 l 189 -269 l 136 -269 z "},"z":{"ha":660,"x_min":68,"x_max":672,"o":"m 68 0 l 74 31 l 593 664 l 213 664 l 221 710 l 672 710 l 667 681 l 146 46 l 554 46 l 547 0 l 68 0 z "},"{":{"ha":492,"x_min":122,"x_max":579,"o":"m 374 -181 q 203 15 203 -171 q 217 140 203 64 l 226 196 q 236 265 236 247 q 207 349 236 319 q 128 379 178 379 l 122 379 l 132 431 l 138 431 q 239 470 197 431 q 294 585 281 510 l 315 706 q 579 989 364 989 l 571 944 q 440 886 490 942 q 372 731 389 831 l 353 617 q 287 457 333 501 q 161 407 240 413 l 160 401 q 250 362 219 394 q 281 257 281 329 q 272 167 281 219 l 257 79 q 250 7 250 35 q 382 -136 250 -132 l 374 -181 z "},"|":{"ha":342,"x_min":200,"x_max":250,"o":"m 200 -525 l 200 1475 l 250 1475 l 250 -525 l 200 -525 z "},"}":{"ha":492,"x_min":38,"x_max":494,"o":"m 38 -181 l 46 -136 q 178 -78 126 -133 q 246 78 229 -22 l 265 192 q 331 351 285 307 q 456 401 376 396 l 457 407 q 367 447 397 414 q 338 551 338 479 q 346 642 338 589 l 361 729 q 368 801 368 774 q 235 944 368 940 l 243 989 q 414 793 414 979 q 400 668 414 744 l 390 613 q 381 543 381 561 q 410 459 381 489 q 489 429 439 429 l 494 429 l 485 378 l 479 378 q 378 338 419 378 q 322 224 336 299 l 301 103 q 38 -181 253 -181 z "},"~":{"ha":883,"x_min":188,"x_max":835,"o":"m 671 385 q 558 417 615 385 q 448 483 501 450 q 349 515 394 515 q 270 481 299 515 q 239 385 242 447 l 188 385 q 229 513 188 460 q 351 565 271 565 q 464 533 407 565 q 574 467 521 500 q 674 435 628 435 q 752 469 724 435 q 783 565 781 504 l 835 565 q 793 438 835 490 q 671 385 751 385 z "}," ":{"ha":319,"x_min":0,"x_max":0,"o":""},"¡":{"ha":342,"x_min":79,"x_max":293,"o":"m 246 643 q 221 654 231 643 q 211 681 211 665 q 225 713 211 700 q 258 726 239 726 q 283 716 274 726 q 293 690 293 706 q 278 658 293 672 q 246 643 264 643 m 79 -278 l 140 72 l 211 443 l 225 443 l 194 72 l 133 -278 l 79 -278 z "},"¢":{"ha":676,"x_min":158,"x_max":664,"o":"m 306 -17 l 329 117 q 203 203 247 132 q 158 392 158 274 q 242 712 158 581 q 457 854 325 843 l 481 989 l 531 989 l 507 854 q 617 803 575 846 q 664 706 658 760 l 617 688 q 571 774 607 743 q 478 806 535 806 q 286 687 360 806 q 213 392 213 568 q 254 223 213 283 q 375 163 296 163 q 480 197 432 163 q 556 294 528 232 l 603 275 q 378 113 526 114 l 356 -17 l 306 -17 z "},"£":{"ha":806,"x_min":101,"x_max":842,"o":"m 101 0 l 111 56 q 268 224 226 143 q 310 433 310 304 l 178 433 l 185 479 l 304 479 q 288 572 301 497 q 275 688 275 647 q 363 903 275 817 q 611 989 450 989 q 842 914 756 989 l 815 869 q 603 940 739 940 q 400 867 471 940 q 329 693 329 794 q 343 577 329 653 q 360 479 357 501 l 593 479 l 586 433 l 364 433 q 316 219 364 311 q 161 46 268 128 l 713 46 l 704 0 l 101 0 z "},"¤":{"ha":849,"x_min":89,"x_max":890,"o":"m 444 140 q 242 218 311 140 l 122 115 l 89 154 l 213 258 q 178 413 178 322 q 278 674 178 567 l 196 771 l 243 810 l 322 713 q 538 785 419 785 q 738 707 667 785 l 857 810 l 890 771 l 767 667 q 803 513 803 601 q 701 251 803 360 l 783 154 l 736 115 l 657 211 q 444 140 567 140 m 443 192 q 660 283 574 192 q 747 513 747 375 q 692 673 747 613 q 538 733 636 733 q 320 642 407 733 q 233 413 233 550 q 290 252 233 313 q 443 192 346 192 z "},"¥":{"ha":742,"x_min":107,"x_max":867,"o":"m 475 429 l 689 429 l 682 383 l 447 383 l 418 217 l 653 217 l 644 171 l 410 171 l 379 0 l 328 0 l 358 171 l 107 171 l 115 217 l 367 217 l 396 383 l 144 383 l 151 429 l 382 429 l 182 972 l 235 972 l 428 442 l 810 972 l 867 972 l 475 429 z "},"¦":{"ha":342,"x_min":208,"x_max":258,"o":"m 208 508 l 208 1146 l 258 1146 l 258 508 l 208 508 m 208 -312 l 208 325 l 258 325 l 258 -312 l 208 -312 z "},"§":{"ha":706,"x_min":57,"x_max":704,"o":"m 297 -167 q 57 -62 138 -167 l 101 -28 q 297 -117 179 -117 q 473 -69 406 -117 q 540 75 540 -22 q 529 124 540 101 q 504 163 518 147 q 462 194 490 178 q 415 219 433 211 q 359 244 397 228 q 304 267 321 260 q 188 333 224 300 q 151 428 151 367 q 198 538 151 493 q 325 603 244 583 q 211 771 211 656 q 288 929 211 869 q 479 989 365 989 q 704 903 628 989 l 661 868 q 479 939 593 939 q 325 894 385 939 q 265 775 265 850 q 310 677 265 711 q 482 592 356 643 q 610 520 565 558 q 654 415 654 482 q 619 308 654 358 q 511 232 583 258 q 594 78 594 183 q 512 -103 594 -40 q 297 -167 429 -167 m 467 257 q 562 315 525 276 q 599 403 599 353 q 583 460 599 435 q 531 506 567 485 q 464 541 496 528 q 375 575 432 554 q 252 525 299 564 q 206 433 206 486 q 208 410 206 421 q 219 388 211 399 q 236 369 228 378 q 260 351 244 361 q 289 335 276 342 q 326 317 301 328 q 367 299 350 306 q 415 278 383 292 q 467 257 446 265 z "},"¨":{"ha":432,"x_min":190,"x_max":504,"o":"m 224 865 q 200 876 210 865 q 190 901 190 886 q 206 934 192 919 q 240 949 221 949 q 265 938 256 949 q 274 911 274 928 q 258 878 272 892 q 224 865 243 865 m 454 865 q 431 876 440 865 q 421 901 421 886 q 437 934 422 919 q 471 949 451 949 q 495 938 486 949 q 504 911 504 928 q 488 878 503 892 q 454 865 474 865 z "},"©":{"ha":1181,"x_min":150,"x_max":1156,"o":"m 1011 128 q 939 56 1011 128 q 653 -17 867 -17 q 294 128 439 -17 q 150 486 150 272 q 294 844 150 700 q 653 989 439 989 q 1011 844 867 989 q 1156 486 1156 700 q 1011 128 1156 272 m 328 160 q 393 95 328 160 q 653 31 457 31 q 977 160 849 31 q 1106 486 1106 290 q 977 812 1106 682 q 653 942 849 942 q 328 812 457 942 q 200 486 200 682 q 328 160 200 290 m 661 192 q 488 269 547 192 q 429 493 429 347 q 489 715 429 633 q 660 796 549 796 q 850 674 797 796 l 803 654 q 660 747 760 747 q 527 680 572 747 q 482 493 482 613 q 661 240 482 240 q 817 346 781 240 l 858 329 q 661 192 811 192 z "},"ª":{"ha":594,"x_min":156,"x_max":617,"o":"m 489 393 l 503 472 q 314 379 415 379 q 200 424 244 379 q 156 540 156 468 q 228 703 156 646 q 390 760 300 760 q 543 703 481 760 l 554 765 q 564 839 564 824 q 457 942 564 942 q 264 879 378 942 l 256 925 q 457 989 361 989 q 617 839 617 989 q 607 765 617 824 l 540 393 l 489 393 m 315 425 q 514 529 410 425 l 536 658 q 388 714 463 714 q 265 669 321 714 q 210 542 210 624 q 240 456 210 486 q 315 425 269 425 z "},"«":{"ha":613,"x_min":101,"x_max":682,"o":"m 250 0 l 101 356 l 374 710 l 432 710 l 160 356 l 308 0 l 250 0 m 500 0 l 351 356 l 624 710 l 682 710 l 410 356 l 558 0 l 500 0 z "},"¬":{"ha":883,"x_min":185,"x_max":838,"o":"m 788 244 l 788 593 l 185 593 l 185 643 l 838 643 l 838 244 l 788 244 z "},"­":{"ha":526,"x_min":161,"x_max":479,"o":"m 161 389 l 169 439 l 479 439 l 471 389 l 161 389 z "},"®":{"ha":1181,"x_min":150,"x_max":1156,"o":"m 1011 128 q 939 56 1011 128 q 653 -17 867 -17 q 294 128 439 -17 q 150 486 150 272 q 294 844 150 700 q 653 989 439 989 q 1011 844 867 989 q 1156 486 1156 700 q 1011 128 1156 272 m 328 160 q 393 95 328 160 q 653 31 457 31 q 977 160 849 31 q 1106 486 1106 290 q 977 812 1106 682 q 653 942 849 942 q 328 812 457 942 q 200 486 200 682 q 328 160 200 290 m 463 190 l 463 778 l 710 778 q 833 725 792 778 q 874 608 874 672 q 834 497 874 543 q 719 446 794 451 l 865 190 l 807 190 l 665 443 l 513 443 l 513 190 l 463 190 m 513 493 l 697 493 q 791 526 761 493 q 821 608 821 558 q 792 693 821 658 q 697 728 764 728 l 513 728 l 513 493 z "},"¯":{"ha":432,"x_min":110,"x_max":576,"o":"m 110 865 l 118 911 l 576 911 l 568 865 l 110 865 z "},"°":{"ha":522,"x_min":192,"x_max":572,"o":"m 350 669 q 235 714 279 669 q 192 826 192 758 q 256 981 192 919 q 414 1042 321 1042 q 528 997 485 1042 q 572 885 572 953 q 508 731 572 792 q 350 669 443 669 m 357 714 q 474 763 424 714 q 525 878 525 811 q 492 963 525 929 q 407 997 460 997 q 288 949 338 997 q 239 833 239 901 q 272 748 239 782 q 357 714 304 714 z "},"±":{"ha":883,"x_min":185,"x_max":838,"o":"m 535 539 l 535 283 l 485 283 l 485 539 l 185 539 l 185 589 l 485 589 l 485 844 l 535 844 l 535 589 l 838 589 l 838 539 l 535 539 m 185 0 l 185 50 l 838 50 l 838 0 l 185 0 z "},"²":{"ha":481,"x_min":129,"x_max":563,"o":"m 129 617 q 203 767 146 710 q 360 881 261 825 q 476 964 443 926 q 508 1063 508 1001 q 481 1133 508 1103 q 404 1163 454 1163 q 254 1058 301 1163 l 208 1078 q 285 1175 235 1138 q 404 1213 335 1213 q 518 1171 474 1213 q 563 1063 563 1129 q 521 937 563 985 q 375 833 479 889 q 201 674 236 760 l 492 674 l 483 617 l 129 617 z "},"³":{"ha":476,"x_min":139,"x_max":557,"o":"m 188 747 q 318 651 221 651 q 432 689 388 651 q 476 792 476 726 q 449 865 476 838 q 372 893 422 893 l 329 893 l 340 943 l 369 943 q 464 984 425 943 q 503 1078 503 1025 q 479 1140 503 1117 q 410 1164 456 1164 q 264 1075 322 1164 l 221 1094 q 414 1214 290 1214 q 517 1177 476 1214 q 557 1081 557 1140 q 526 985 557 1028 q 442 922 494 942 q 529 792 529 900 q 468 654 529 707 q 318 601 407 601 q 139 731 175 601 l 188 747 z "},"´":{"ha":432,"x_min":225,"x_max":549,"o":"m 276 800 l 225 800 l 472 1017 l 549 1017 l 276 800 z "},"µ":{"ha":739,"x_min":61,"x_max":711,"o":"m 538 0 l 558 122 q 463 20 521 57 q 342 -17 406 -17 q 174 69 215 -17 l 118 -251 l 61 -278 l 235 710 l 285 710 l 208 265 q 200 183 200 218 q 241 61 200 93 q 347 29 282 29 q 499 94 433 29 q 589 297 565 158 l 660 710 l 711 710 l 586 0 l 538 0 z "},"¶":{"ha":803,"x_min":144,"x_max":804,"o":"m 346 -242 l 460 410 q 220 482 296 410 q 144 653 144 554 q 163 756 144 706 q 220 850 182 806 q 328 922 258 894 q 490 949 399 949 l 804 949 l 615 -126 l 560 -151 l 744 899 l 599 899 l 403 -218 l 346 -242 m 469 460 l 547 899 l 485 899 q 268 825 338 899 q 199 653 199 751 q 263 515 199 571 q 469 460 328 460 z "},"·":{"ha":253,"x_min":153,"x_max":236,"o":"m 186 444 q 163 455 172 444 q 153 481 153 465 q 169 513 154 499 q 203 528 183 528 q 227 517 218 528 q 236 490 236 507 q 220 458 235 471 q 186 444 206 444 z "},"¸":{"ha":432,"x_min":-29,"x_max":221,"o":"m 63 -325 q -29 -286 0 -325 l 10 -261 q 68 -285 33 -285 q 144 -257 115 -285 q 172 -187 172 -229 q 151 -136 172 -156 q 96 -117 131 -117 q 42 -128 65 -117 l 31 -111 l 142 14 l 175 14 l 104 -82 q 191 -111 161 -82 q 221 -182 221 -140 q 176 -283 221 -240 q 63 -325 132 -325 z "},"¹":{"ha":244,"x_min":175,"x_max":332,"o":"m 175 617 l 257 1081 l 179 1081 l 185 1111 q 258 1134 235 1113 q 297 1203 282 1156 l 332 1203 l 229 617 l 175 617 z "},"º":{"ha":618,"x_min":181,"x_max":656,"o":"m 369 378 q 231 440 282 378 q 181 613 181 503 q 259 886 181 783 q 465 989 338 989 q 605 926 554 989 q 656 754 656 863 q 577 481 656 583 q 369 378 499 378 m 378 428 q 540 517 478 428 q 601 754 601 606 q 564 891 601 843 q 460 939 526 939 q 296 851 357 939 q 235 613 235 763 q 273 476 235 525 q 378 428 311 428 z "},"»":{"ha":613,"x_min":29,"x_max":611,"o":"m 29 0 l 303 356 l 153 710 l 211 710 l 361 356 l 88 0 l 29 0 m 279 0 l 553 356 l 403 710 l 461 710 l 611 356 l 338 0 l 279 0 z "},"¼":{"ha":903,"x_min":1,"x_max":901,"o":"m 1 -17 l 840 989 l 901 989 l 63 -17 l 1 -17 m 156 393 l 238 857 l 160 857 l 165 888 q 239 911 215 890 q 278 979 263 932 l 313 979 l 210 393 l 156 393 m 704 0 l 732 163 l 436 163 l 442 190 l 815 588 l 860 588 l 793 213 l 871 213 l 863 163 l 785 163 l 757 0 l 704 0 m 740 213 l 792 497 l 522 213 l 740 213 z "},"½":{"ha":972,"x_min":1,"x_max":967,"o":"m 1 -17 l 840 989 l 901 989 l 63 -17 l 1 -17 m 156 393 l 238 857 l 160 857 l 165 888 q 239 911 215 890 q 278 979 263 932 l 313 979 l 210 393 l 156 393 m 615 460 q 691 558 640 519 q 811 596 742 596 q 923 556 879 596 q 967 451 967 517 q 925 321 967 369 q 779 217 883 272 q 667 140 706 178 q 607 56 628 103 l 896 56 l 886 0 l 533 0 q 608 152 550 94 q 765 265 667 210 q 880 349 847 311 q 913 446 913 386 q 888 517 913 488 q 810 546 863 546 q 660 440 710 546 l 615 460 z "},"¾":{"ha":1103,"x_min":106,"x_max":1100,"o":"m 288 376 q 169 411 217 376 q 106 506 122 446 l 153 522 q 203 450 172 474 q 288 426 233 426 q 401 464 357 426 q 446 567 446 501 q 419 640 446 613 q 343 668 393 668 l 300 668 l 310 718 l 339 718 q 434 759 394 718 q 474 853 474 800 q 449 915 474 892 q 381 939 425 939 q 232 850 293 939 l 188 871 q 273 958 221 926 q 382 989 325 989 q 489 954 450 989 q 528 854 528 919 q 498 759 528 801 q 413 696 468 717 q 499 567 499 672 q 436 429 499 482 q 288 376 374 376 m 200 -17 l 1039 989 l 1100 989 l 261 -17 l 200 -17 m 904 0 l 932 163 l 636 163 l 642 190 l 1015 588 l 1060 588 l 993 213 l 1071 213 l 1063 163 l 985 163 l 957 0 l 904 0 m 940 213 l 992 497 l 722 213 l 940 213 z "},"¿":{"ha":697,"x_min":67,"x_max":610,"o":"m 476 643 q 452 653 461 643 q 443 681 443 664 q 459 713 444 700 q 493 726 474 726 q 517 716 507 726 q 526 690 526 706 q 510 658 525 672 q 476 643 496 643 m 300 -278 q 128 -218 189 -278 q 67 -62 67 -158 q 99 60 67 6 q 178 156 131 115 q 274 235 225 196 q 363 329 322 275 q 415 447 404 383 l 424 494 l 476 494 l 468 447 q 413 317 454 375 q 324 219 372 258 q 230 142 276 181 q 152 53 183 104 q 121 -61 121 3 q 169 -181 121 -135 q 306 -228 217 -228 q 565 -60 486 -228 l 610 -81 q 481 -226 563 -175 q 300 -278 400 -278 z "},"À":{"ha":886,"x_min":81,"x_max":767,"o":"m 590 1021 l 393 1238 l 469 1238 l 642 1021 l 590 1021 m 81 0 l 574 972 l 610 972 l 767 0 l 715 0 l 669 274 l 275 274 l 136 0 l 81 0 m 294 315 l 664 315 l 600 733 q 576 889 583 825 q 506 733 572 878 l 294 315 z "},"Á":{"ha":886,"x_min":81,"x_max":879,"o":"m 607 1022 l 556 1022 l 803 1239 l 879 1239 l 607 1022 m 81 0 l 574 972 l 610 972 l 767 0 l 715 0 l 669 274 l 275 274 l 136 0 l 81 0 m 294 315 l 664 315 l 600 733 q 576 889 583 825 q 506 733 572 878 l 294 315 z "},"Â":{"ha":886,"x_min":81,"x_max":831,"o":"m 782 1021 l 631 1188 l 421 1021 l 367 1021 l 615 1238 l 660 1238 l 831 1021 l 782 1021 m 81 0 l 574 972 l 610 972 l 767 0 l 715 0 l 669 274 l 275 274 l 136 0 l 81 0 m 294 315 l 664 315 l 600 733 q 576 889 583 825 q 506 733 572 878 l 294 315 z "},"Ã":{"ha":886,"x_min":81,"x_max":872,"o":"m 732 1057 q 654 1085 692 1057 q 582 1142 617 1114 q 515 1169 547 1169 q 425 1063 449 1169 l 386 1063 q 434 1174 399 1132 q 526 1215 469 1215 q 604 1187 567 1215 q 676 1131 642 1158 q 743 1103 711 1103 q 833 1210 810 1103 l 872 1210 q 824 1099 860 1140 q 732 1057 789 1057 m 81 0 l 574 972 l 610 972 l 767 0 l 715 0 l 669 274 l 275 274 l 136 0 l 81 0 m 294 315 l 664 315 l 600 733 q 576 889 583 825 q 506 733 572 878 l 294 315 z "},"Ä":{"ha":886,"x_min":81,"x_max":775,"o":"m 494 1086 q 471 1097 481 1086 q 461 1122 461 1107 q 477 1155 463 1140 q 511 1169 492 1169 q 535 1159 526 1169 q 544 1132 544 1149 q 528 1099 543 1113 q 494 1086 514 1086 m 725 1086 q 701 1097 711 1086 q 692 1122 692 1107 q 708 1155 693 1140 q 742 1169 722 1169 q 766 1159 757 1169 q 775 1132 775 1149 q 759 1099 774 1113 q 725 1086 744 1086 m 81 0 l 574 972 l 610 972 l 767 0 l 715 0 l 669 274 l 275 274 l 136 0 l 81 0 m 294 315 l 664 315 l 600 733 q 576 889 583 825 q 506 733 572 878 l 294 315 z "},"Å":{"ha":886,"x_min":81,"x_max":767,"o":"m 624 886 l 767 0 l 715 0 l 669 274 l 275 274 l 136 0 l 81 0 l 531 888 q 460 937 486 901 q 433 1019 433 972 q 485 1144 433 1094 q 613 1193 536 1193 q 716 1152 675 1193 q 757 1054 757 1111 q 719 946 757 992 q 624 886 682 900 m 481 1019 q 509 950 481 976 q 578 924 538 924 q 672 960 633 924 q 710 1054 710 997 q 682 1123 710 1096 q 613 1150 654 1150 q 519 1113 558 1150 q 481 1019 481 1076 m 294 315 l 664 315 l 600 733 q 576 889 583 825 q 506 733 572 878 l 294 315 z "},"Æ":{"ha":1151,"x_min":-26,"x_max":1169,"o":"m -26 0 l 706 972 l 1169 972 l 1163 926 l 747 926 l 676 526 l 943 526 l 935 481 l 668 481 l 592 46 l 1038 46 l 1029 0 l 532 0 l 581 274 l 240 274 l 36 0 l -26 0 m 271 315 l 588 315 l 685 871 q 633 800 665 843 l 271 315 z "},"Ç":{"ha":861,"x_min":160,"x_max":874,"o":"m 404 -325 q 313 -286 342 -325 l 351 -261 q 410 -285 375 -285 q 485 -257 457 -285 q 514 -187 514 -229 q 493 -136 514 -156 q 438 -117 472 -117 q 383 -128 407 -117 l 372 -111 l 456 -17 q 284 40 353 -17 q 188 180 215 96 q 160 369 160 264 q 192 594 160 485 q 281 792 224 704 q 428 935 339 881 q 625 989 518 989 q 784 947 729 989 q 874 832 839 904 l 826 807 q 750 906 794 872 q 624 939 706 939 q 403 853 499 939 q 262 640 308 768 q 215 371 215 513 q 275 128 215 224 q 460 33 335 33 q 614 76 547 33 q 721 182 681 118 l 768 161 q 496 -14 667 3 l 446 -82 q 533 -111 503 -82 q 563 -182 563 -140 q 518 -283 563 -240 q 404 -325 474 -325 z "},"È":{"ha":781,"x_min":121,"x_max":788,"o":"m 532 1021 l 335 1238 l 411 1238 l 583 1021 l 532 1021 m 121 0 l 292 972 l 788 972 l 781 926 l 336 926 l 265 526 l 561 526 l 553 481 l 257 481 l 181 46 l 656 46 l 647 0 l 121 0 z "},"É":{"ha":781,"x_min":121,"x_max":821,"o":"m 549 1022 l 497 1022 l 744 1239 l 821 1239 l 549 1022 m 121 0 l 292 972 l 788 972 l 781 926 l 336 926 l 265 526 l 561 526 l 553 481 l 257 481 l 181 46 l 656 46 l 647 0 l 121 0 z "},"Ê":{"ha":781,"x_min":121,"x_max":788,"o":"m 724 1021 l 572 1188 l 363 1021 l 308 1021 l 557 1238 l 601 1238 l 772 1021 l 724 1021 m 121 0 l 292 972 l 788 972 l 781 926 l 336 926 l 265 526 l 561 526 l 553 481 l 257 481 l 181 46 l 656 46 l 647 0 l 121 0 z "},"Ë":{"ha":781,"x_min":121,"x_max":788,"o":"m 436 1086 q 413 1097 422 1086 q 403 1122 403 1107 q 419 1155 404 1140 q 453 1169 433 1169 q 477 1159 468 1169 q 486 1132 486 1149 q 470 1099 485 1113 q 436 1086 456 1086 m 667 1086 q 643 1097 653 1086 q 633 1122 633 1107 q 649 1155 635 1140 q 683 1169 664 1169 q 708 1159 699 1169 q 717 1132 717 1149 q 701 1099 715 1113 q 667 1086 686 1086 m 121 0 l 292 972 l 788 972 l 781 926 l 336 926 l 265 526 l 561 526 l 553 481 l 257 481 l 181 46 l 656 46 l 647 0 l 121 0 z "},"Ì":{"ha":328,"x_min":118,"x_max":367,"o":"m 315 1021 l 118 1238 l 194 1238 l 367 1021 l 315 1021 m 121 0 l 292 972 l 343 972 l 172 0 l 121 0 z "},"Í":{"ha":328,"x_min":121,"x_max":604,"o":"m 332 1022 l 281 1022 l 528 1239 l 604 1239 l 332 1022 m 121 0 l 292 972 l 343 972 l 172 0 l 121 0 z "},"Î":{"ha":328,"x_min":92,"x_max":556,"o":"m 507 1021 l 356 1188 l 146 1021 l 92 1021 l 340 1238 l 385 1238 l 556 1021 l 507 1021 m 121 0 l 292 972 l 343 972 l 172 0 l 121 0 z "},"Ï":{"ha":328,"x_min":121,"x_max":500,"o":"m 219 1086 q 196 1097 206 1086 q 186 1122 186 1107 q 202 1155 188 1140 q 236 1169 217 1169 q 260 1159 251 1169 q 269 1132 269 1149 q 253 1099 268 1113 q 219 1086 239 1086 m 450 1086 q 426 1097 436 1086 q 417 1122 417 1107 q 433 1155 418 1140 q 467 1169 447 1169 q 491 1159 482 1169 q 500 1132 500 1149 q 484 1099 499 1113 q 450 1086 469 1086 m 121 0 l 292 972 l 343 972 l 172 0 l 121 0 z "},"Ð":{"ha":896,"x_min":107,"x_max":857,"o":"m 121 0 l 201 460 l 107 460 l 114 510 l 210 510 l 292 972 l 500 972 q 667 940 596 972 q 779 853 739 908 q 838 731 819 797 q 857 586 857 664 q 823 367 857 471 q 725 180 789 263 q 557 49 661 97 q 324 0 453 0 l 121 0 m 182 50 l 333 50 q 674 203 547 50 q 800 586 800 356 q 784 713 800 656 q 733 819 768 771 q 637 895 699 868 q 490 922 575 922 l 333 922 l 261 510 l 504 510 l 497 460 l 253 460 l 182 50 z "},"Ñ":{"ha":918,"x_min":119,"x_max":919,"o":"m 746 1057 q 668 1085 706 1057 q 596 1142 631 1114 q 529 1169 561 1169 q 439 1063 463 1169 l 400 1063 q 448 1174 413 1132 q 540 1215 483 1215 q 618 1187 581 1215 q 690 1131 656 1158 q 757 1103 725 1103 q 847 1210 824 1103 l 886 1210 q 838 1099 874 1140 q 746 1057 803 1057 m 119 0 l 290 972 l 339 972 l 650 243 q 714 93 707 110 q 727 172 718 121 q 740 243 736 222 l 868 972 l 919 972 l 749 0 l 700 0 l 389 726 q 362 790 386 733 q 325 879 338 847 q 312 800 321 851 q 299 726 303 749 l 171 0 l 119 0 z "},"Ò":{"ha":967,"x_min":160,"x_max":925,"o":"m 621 1021 l 424 1238 l 500 1238 l 672 1021 l 621 1021 m 463 -17 q 288 42 358 -17 q 189 185 218 100 q 160 375 160 271 q 176 541 160 457 q 231 706 193 625 q 321 849 268 786 q 453 951 374 913 q 628 989 533 989 q 853 880 782 989 q 925 604 925 771 q 898 393 925 499 q 817 194 871 288 q 672 42 764 100 q 463 -17 579 -17 m 469 33 q 622 69 553 33 q 737 165 692 106 q 813 299 782 224 q 858 452 844 375 q 872 606 872 529 q 812 845 872 751 q 621 939 751 939 q 468 903 538 939 q 353 808 399 867 q 274 674 307 750 q 228 522 242 599 q 214 369 214 444 q 238 202 214 275 q 320 81 261 129 q 469 33 379 33 z "},"Ó":{"ha":967,"x_min":160,"x_max":925,"o":"m 638 1022 l 586 1022 l 833 1239 l 910 1239 l 638 1022 m 463 -17 q 288 42 358 -17 q 189 185 218 100 q 160 375 160 271 q 176 541 160 457 q 231 706 193 625 q 321 849 268 786 q 453 951 374 913 q 628 989 533 989 q 853 880 782 989 q 925 604 925 771 q 898 393 925 499 q 817 194 871 288 q 672 42 764 100 q 463 -17 579 -17 m 469 33 q 622 69 553 33 q 737 165 692 106 q 813 299 782 224 q 858 452 844 375 q 872 606 872 529 q 812 845 872 751 q 621 939 751 939 q 468 903 538 939 q 353 808 399 867 q 274 674 307 750 q 228 522 242 599 q 214 369 214 444 q 238 202 214 275 q 320 81 261 129 q 469 33 379 33 z "},"Ô":{"ha":967,"x_min":160,"x_max":925,"o":"m 813 1021 l 661 1188 l 451 1021 l 397 1021 l 646 1238 l 690 1238 l 861 1021 l 813 1021 m 463 -17 q 288 42 358 -17 q 189 185 218 100 q 160 375 160 271 q 176 541 160 457 q 231 706 193 625 q 321 849 268 786 q 453 951 374 913 q 628 989 533 989 q 853 880 782 989 q 925 604 925 771 q 898 393 925 499 q 817 194 871 288 q 672 42 764 100 q 463 -17 579 -17 m 469 33 q 622 69 553 33 q 737 165 692 106 q 813 299 782 224 q 858 452 844 375 q 872 606 872 529 q 812 845 872 751 q 621 939 751 939 q 468 903 538 939 q 353 808 399 867 q 274 674 307 750 q 228 522 242 599 q 214 369 214 444 q 238 202 214 275 q 320 81 261 129 q 469 33 379 33 z "},"Õ":{"ha":967,"x_min":160,"x_max":925,"o":"m 763 1057 q 685 1085 722 1057 q 613 1142 647 1114 q 546 1169 578 1169 q 456 1063 479 1169 l 417 1063 q 465 1174 429 1132 q 557 1215 500 1215 q 635 1187 597 1215 q 707 1131 672 1158 q 774 1103 742 1103 q 864 1210 840 1103 l 903 1210 q 855 1099 890 1140 q 763 1057 819 1057 m 463 -17 q 288 42 358 -17 q 189 185 218 100 q 160 375 160 271 q 176 541 160 457 q 231 706 193 625 q 321 849 268 786 q 453 951 374 913 q 628 989 533 989 q 853 880 782 989 q 925 604 925 771 q 898 393 925 499 q 817 194 871 288 q 672 42 764 100 q 463 -17 579 -17 m 469 33 q 622 69 553 33 q 737 165 692 106 q 813 299 782 224 q 858 452 844 375 q 872 606 872 529 q 812 845 872 751 q 621 939 751 939 q 468 903 538 939 q 353 808 399 867 q 274 674 307 750 q 228 522 242 599 q 214 369 214 444 q 238 202 214 275 q 320 81 261 129 q 469 33 379 33 z "},"Ö":{"ha":967,"x_min":160,"x_max":925,"o":"m 525 1086 q 501 1097 511 1086 q 492 1122 492 1107 q 508 1155 493 1140 q 542 1169 522 1169 q 566 1159 557 1169 q 575 1132 575 1149 q 559 1099 574 1113 q 525 1086 544 1086 m 756 1086 q 732 1097 742 1086 q 722 1122 722 1107 q 738 1155 724 1140 q 772 1169 753 1169 q 797 1159 788 1169 q 806 1132 806 1149 q 790 1099 804 1113 q 756 1086 775 1086 m 463 -17 q 288 42 358 -17 q 189 185 218 100 q 160 375 160 271 q 176 541 160 457 q 231 706 193 625 q 321 849 268 786 q 453 951 374 913 q 628 989 533 989 q 853 880 782 989 q 925 604 925 771 q 898 393 925 499 q 817 194 871 288 q 672 42 764 100 q 463 -17 579 -17 m 469 33 q 622 69 553 33 q 737 165 692 106 q 813 299 782 224 q 858 452 844 375 q 872 606 872 529 q 812 845 872 751 q 621 939 751 939 q 468 903 538 939 q 353 808 399 867 q 274 674 307 750 q 228 522 242 599 q 214 369 214 444 q 238 202 214 275 q 320 81 261 129 q 469 33 379 33 z "},"×":{"ha":883,"x_min":214,"x_max":808,"o":"m 511 439 l 249 176 l 214 210 l 478 474 l 214 738 l 249 771 l 511 508 l 774 771 l 808 738 l 544 474 l 808 210 l 774 176 l 511 439 z "},"Ø":{"ha":967,"x_min":93,"x_max":999,"o":"m 93 -17 l 215 128 q 160 375 160 229 q 176 541 160 457 q 231 706 193 625 q 321 849 268 786 q 453 951 374 913 q 628 989 533 989 q 851 883 774 989 l 940 989 l 999 989 l 875 843 q 925 604 925 744 q 898 393 925 499 q 817 194 871 288 q 672 42 764 100 q 463 -17 579 -17 q 240 89 321 -17 l 151 -17 l 93 -17 m 250 171 l 815 840 q 621 939 749 939 q 468 903 538 939 q 353 808 399 867 q 274 674 307 750 q 228 522 242 599 q 214 369 214 444 q 250 171 214 251 m 469 33 q 622 69 553 33 q 737 165 692 106 q 813 299 782 224 q 858 452 844 375 q 872 606 872 529 q 838 797 872 715 l 274 129 q 469 33 339 33 z "},"Ù":{"ha":886,"x_min":168,"x_max":892,"o":"m 588 1021 l 390 1238 l 467 1238 l 639 1021 l 588 1021 m 424 -17 q 238 49 308 -17 q 168 249 168 115 q 179 364 168 297 l 286 972 l 339 972 l 233 374 q 222 257 222 314 q 240 143 222 190 q 290 74 258 96 q 354 42 322 51 q 424 32 386 32 q 732 349 676 32 l 840 972 l 892 972 l 783 346 q 424 -17 721 -17 z "},"Ú":{"ha":886,"x_min":168,"x_max":892,"o":"m 604 1022 l 553 1022 l 800 1239 l 876 1239 l 604 1022 m 424 -17 q 238 49 308 -17 q 168 249 168 115 q 179 364 168 297 l 286 972 l 339 972 l 233 374 q 222 257 222 314 q 240 143 222 190 q 290 74 258 96 q 354 42 322 51 q 424 32 386 32 q 732 349 676 32 l 840 972 l 892 972 l 783 346 q 424 -17 721 -17 z "},"Û":{"ha":886,"x_min":168,"x_max":892,"o":"m 779 1021 l 628 1188 l 418 1021 l 364 1021 l 613 1238 l 657 1238 l 828 1021 l 779 1021 m 424 -17 q 238 49 308 -17 q 168 249 168 115 q 179 364 168 297 l 286 972 l 339 972 l 233 374 q 222 257 222 314 q 240 143 222 190 q 290 74 258 96 q 354 42 322 51 q 424 32 386 32 q 732 349 676 32 l 840 972 l 892 972 l 783 346 q 424 -17 721 -17 z "},"Ü":{"ha":886,"x_min":168,"x_max":892,"o":"m 492 1086 q 468 1097 478 1086 q 458 1122 458 1107 q 474 1155 460 1140 q 508 1169 489 1169 q 533 1159 524 1169 q 542 1132 542 1149 q 526 1099 540 1113 q 492 1086 511 1086 m 722 1086 q 699 1097 708 1086 q 689 1122 689 1107 q 705 1155 690 1140 q 739 1169 719 1169 q 763 1159 754 1169 q 772 1132 772 1149 q 756 1099 771 1113 q 722 1086 742 1086 m 424 -17 q 238 49 308 -17 q 168 249 168 115 q 179 364 168 297 l 286 972 l 339 972 l 233 374 q 222 257 222 314 q 240 143 222 190 q 290 74 258 96 q 354 42 322 51 q 424 32 386 32 q 732 349 676 32 l 840 972 l 892 972 l 783 346 q 424 -17 721 -17 z "},"Ý":{"ha":806,"x_min":214,"x_max":882,"o":"m 565 1022 l 514 1022 l 761 1239 l 838 1239 l 565 1022 m 354 0 l 422 385 l 214 972 l 265 972 l 453 438 l 825 972 l 882 972 l 472 385 l 404 0 l 354 0 z "},"Þ":{"ha":804,"x_min":121,"x_max":824,"o":"m 121 0 l 290 972 l 342 972 l 310 779 l 561 779 q 760 710 697 779 q 824 538 824 640 q 803 423 824 479 q 740 317 782 367 q 626 238 699 268 q 463 208 554 208 l 208 208 l 172 0 l 121 0 m 467 258 q 639 303 568 258 q 738 410 710 349 q 767 538 767 471 q 716 674 767 619 q 553 729 665 729 l 300 729 l 217 258 l 467 258 z "},"ß":{"ha":753,"x_min":57,"x_max":742,"o":"m 57 -269 l 224 675 q 338 913 253 836 q 532 989 422 989 q 685 933 629 989 q 742 786 742 878 q 726 685 742 735 q 661 588 710 636 q 538 526 613 540 q 666 453 624 511 q 708 317 708 394 q 615 76 708 169 q 396 -17 522 -17 q 308 -4 339 -17 l 340 39 q 397 33 363 33 q 576 108 499 33 q 654 317 654 183 q 603 451 654 397 q 440 504 551 504 l 435 504 l 443 550 l 449 550 q 622 609 557 550 q 688 785 688 668 q 647 898 688 857 q 532 939 607 939 q 367 874 436 939 q 275 675 299 808 l 114 -244 l 57 -269 z "},"à":{"ha":690,"x_min":107,"x_max":656,"o":"m 464 799 l 267 1015 l 343 1015 l 515 799 l 464 799 m 515 0 l 533 104 q 293 -17 424 -17 q 157 35 207 -17 q 107 181 107 88 q 188 369 107 297 q 385 440 269 440 q 579 368 493 440 l 596 458 q 606 547 606 518 q 471 681 606 681 q 247 610 374 681 l 238 654 q 472 726 372 726 q 656 549 656 726 q 647 469 656 522 l 565 0 l 515 0 m 296 29 q 544 169 422 29 l 572 324 q 382 393 482 393 q 228 334 292 393 q 164 181 164 275 q 199 70 164 111 q 296 29 235 29 z "},"á":{"ha":690,"x_min":107,"x_max":753,"o":"m 481 800 l 429 800 l 676 1017 l 753 1017 l 481 800 m 515 0 l 533 104 q 293 -17 424 -17 q 157 35 207 -17 q 107 181 107 88 q 188 369 107 297 q 385 440 269 440 q 579 368 493 440 l 596 458 q 606 547 606 518 q 471 681 606 681 q 247 610 374 681 l 238 654 q 472 726 372 726 q 656 549 656 726 q 647 469 656 522 l 565 0 l 515 0 m 296 29 q 544 169 422 29 l 572 324 q 382 393 482 393 q 228 334 292 393 q 164 181 164 275 q 199 70 164 111 q 296 29 235 29 z "},"â":{"ha":690,"x_min":107,"x_max":704,"o":"m 656 799 l 504 965 l 294 799 l 240 799 l 489 1015 l 533 1015 l 704 799 l 656 799 m 515 0 l 533 104 q 293 -17 424 -17 q 157 35 207 -17 q 107 181 107 88 q 188 369 107 297 q 385 440 269 440 q 579 368 493 440 l 596 458 q 606 547 606 518 q 471 681 606 681 q 247 610 374 681 l 238 654 q 472 726 372 726 q 656 549 656 726 q 647 469 656 522 l 565 0 l 515 0 m 296 29 q 544 169 422 29 l 572 324 q 382 393 482 393 q 228 334 292 393 q 164 181 164 275 q 199 70 164 111 q 296 29 235 29 z "},"ã":{"ha":690,"x_min":107,"x_max":746,"o":"m 606 835 q 528 863 565 835 q 456 919 490 892 q 389 947 421 947 q 299 840 322 947 l 260 840 q 308 951 272 910 q 400 993 343 993 q 478 965 440 993 q 550 908 515 936 q 617 881 585 881 q 707 988 683 881 l 746 988 q 698 876 733 918 q 606 835 663 835 m 515 0 l 533 104 q 293 -17 424 -17 q 157 35 207 -17 q 107 181 107 88 q 188 369 107 297 q 385 440 269 440 q 579 368 493 440 l 596 458 q 606 547 606 518 q 471 681 606 681 q 247 610 374 681 l 238 654 q 472 726 372 726 q 656 549 656 726 q 647 469 656 522 l 565 0 l 515 0 m 296 29 q 544 169 422 29 l 572 324 q 382 393 482 393 q 228 334 292 393 q 164 181 164 275 q 199 70 164 111 q 296 29 235 29 z "},"ä":{"ha":690,"x_min":107,"x_max":656,"o":"m 368 864 q 344 874 354 864 q 335 900 335 885 q 351 933 336 918 q 385 947 365 947 q 409 937 400 947 q 418 910 418 926 q 402 877 417 890 q 368 864 388 864 m 599 864 q 575 874 585 864 q 565 900 565 885 q 581 933 567 918 q 615 947 596 947 q 640 937 631 947 q 649 910 649 926 q 633 877 647 890 q 599 864 618 864 m 515 0 l 533 104 q 293 -17 424 -17 q 157 35 207 -17 q 107 181 107 88 q 188 369 107 297 q 385 440 269 440 q 579 368 493 440 l 596 458 q 606 547 606 518 q 471 681 606 681 q 247 610 374 681 l 238 654 q 472 726 372 726 q 656 549 656 726 q 647 469 656 522 l 565 0 l 515 0 m 296 29 q 544 169 422 29 l 572 324 q 382 393 482 393 q 228 334 292 393 q 164 181 164 275 q 199 70 164 111 q 296 29 235 29 z "},"å":{"ha":690,"x_min":107,"x_max":656,"o":"m 476 797 q 374 838 415 797 q 332 936 332 878 q 383 1060 332 1011 q 511 1110 435 1110 q 615 1069 574 1110 q 656 971 656 1028 q 604 847 656 896 q 476 797 553 797 m 476 840 q 570 877 532 840 q 608 971 608 914 q 581 1040 608 1013 q 511 1067 553 1067 q 418 1030 457 1067 q 379 936 379 993 q 408 867 379 893 q 476 840 436 840 m 515 0 l 533 104 q 293 -17 424 -17 q 157 35 207 -17 q 107 181 107 88 q 188 369 107 297 q 385 440 269 440 q 579 368 493 440 l 596 458 q 606 547 606 518 q 471 681 606 681 q 247 610 374 681 l 238 654 q 472 726 372 726 q 656 549 656 726 q 647 469 656 522 l 565 0 l 515 0 m 296 29 q 544 169 422 29 l 572 324 q 382 393 482 393 q 228 334 292 393 q 164 181 164 275 q 199 70 164 111 q 296 29 235 29 z "},"æ":{"ha":1146,"x_min":107,"x_max":1129,"o":"m 299 -17 q 156 36 204 -17 q 107 181 107 89 q 190 370 107 300 q 385 440 274 440 q 579 368 494 440 l 599 475 q 606 547 606 510 q 472 681 606 681 q 247 610 378 681 l 238 654 q 474 726 375 726 q 654 572 642 726 q 769 686 701 646 q 917 726 838 726 q 1071 667 1013 726 q 1129 486 1129 608 q 1110 340 1129 439 l 631 340 q 626 265 626 303 q 808 33 626 33 q 978 96 892 33 l 1004 57 q 796 -17 907 -17 q 582 164 621 -17 q 299 -17 450 -17 m 638 386 l 1067 386 q 1076 486 1076 449 q 1029 635 1076 590 q 918 681 982 681 q 733 597 803 681 q 638 386 663 513 m 300 29 q 575 210 446 29 q 572 272 572 243 q 575 322 572 303 q 382 393 482 393 q 231 337 299 393 q 164 181 164 281 q 199 71 164 113 q 300 29 233 29 z "},"ç":{"ha":629,"x_min":121,"x_max":626,"o":"m 272 -325 q 181 -286 210 -325 l 219 -261 q 278 -285 243 -285 q 353 -257 325 -285 q 382 -187 382 -229 q 361 -136 382 -156 q 306 -117 340 -117 q 251 -128 275 -117 l 240 -111 l 324 -17 q 175 61 229 -11 q 121 263 121 133 q 210 594 121 461 q 442 726 300 726 q 572 682 522 726 q 626 576 621 638 l 579 558 q 533 645 569 614 q 440 676 497 676 q 249 558 322 676 q 175 263 175 439 q 217 94 175 154 q 338 33 258 33 q 442 68 394 33 q 518 165 490 103 l 565 146 q 363 -15 496 -1 l 314 -82 q 401 -111 371 -82 q 431 -182 431 -140 q 386 -283 431 -240 q 272 -325 342 -325 z "},"è":{"ha":696,"x_min":121,"x_max":678,"o":"m 469 799 l 272 1015 l 349 1015 l 521 799 l 469 799 m 344 -17 q 178 56 236 -17 q 121 265 121 129 q 220 599 121 471 q 465 726 319 726 q 619 667 561 726 q 678 486 678 608 q 658 340 678 432 l 179 340 q 175 265 175 303 q 357 33 175 33 q 526 96 442 33 l 553 57 q 344 -17 456 -17 m 186 386 l 615 386 q 625 486 625 450 q 578 635 625 590 q 467 681 531 681 q 281 597 351 681 q 186 386 211 513 z "},"é":{"ha":696,"x_min":121,"x_max":758,"o":"m 486 800 l 435 800 l 682 1017 l 758 1017 l 486 800 m 344 -17 q 178 56 236 -17 q 121 265 121 129 q 220 599 121 471 q 465 726 319 726 q 619 667 561 726 q 678 486 678 608 q 658 340 678 432 l 179 340 q 175 265 175 303 q 357 33 175 33 q 526 96 442 33 l 553 57 q 344 -17 456 -17 m 186 386 l 615 386 q 625 486 625 450 q 578 635 625 590 q 467 681 531 681 q 281 597 351 681 q 186 386 211 513 z "},"ê":{"ha":696,"x_min":121,"x_max":710,"o":"m 661 799 l 510 965 l 300 799 l 246 799 l 494 1015 l 539 1015 l 710 799 l 661 799 m 344 -17 q 178 56 236 -17 q 121 265 121 129 q 220 599 121 471 q 465 726 319 726 q 619 667 561 726 q 678 486 678 608 q 658 340 678 432 l 179 340 q 175 265 175 303 q 357 33 175 33 q 526 96 442 33 l 553 57 q 344 -17 456 -17 m 186 386 l 615 386 q 625 486 625 450 q 578 635 625 590 q 467 681 531 681 q 281 597 351 681 q 186 386 211 513 z "},"ë":{"ha":696,"x_min":121,"x_max":678,"o":"m 374 864 q 350 874 360 864 q 340 900 340 885 q 356 933 342 918 q 390 947 371 947 q 415 937 406 947 q 424 910 424 926 q 408 877 422 890 q 374 864 393 864 m 604 864 q 581 874 590 864 q 571 900 571 885 q 587 933 572 918 q 621 947 601 947 q 645 937 636 947 q 654 910 654 926 q 638 877 653 890 q 604 864 624 864 m 344 -17 q 178 56 236 -17 q 121 265 121 129 q 220 599 121 471 q 465 726 319 726 q 619 667 561 726 q 678 486 678 608 q 658 340 678 432 l 179 340 q 175 265 175 303 q 357 33 175 33 q 526 96 442 33 l 553 57 q 344 -17 456 -17 m 186 386 l 615 386 q 625 486 625 450 q 578 635 625 590 q 467 681 531 681 q 281 597 351 681 q 186 386 211 513 z "},"ì":{"ha":317,"x_min":78,"x_max":326,"o":"m 275 799 l 78 1015 l 154 1015 l 326 799 l 275 799 m 119 0 l 244 710 l 293 710 l 169 0 l 119 0 z "},"í":{"ha":317,"x_min":119,"x_max":564,"o":"m 292 800 l 240 800 l 488 1017 l 564 1017 l 292 800 m 119 0 l 244 710 l 293 710 l 169 0 l 119 0 z "},"î":{"ha":317,"x_min":51,"x_max":515,"o":"m 467 799 l 315 965 l 106 799 l 51 799 l 300 1015 l 344 1015 l 515 799 l 467 799 m 119 0 l 244 710 l 293 710 l 169 0 l 119 0 z "},"ï":{"ha":317,"x_min":119,"x_max":460,"o":"m 179 864 q 156 874 165 864 q 146 900 146 885 q 162 933 147 918 q 196 947 176 947 q 220 937 211 947 q 229 910 229 926 q 213 877 228 890 q 179 864 199 864 m 410 864 q 386 874 396 864 q 376 900 376 885 q 392 933 378 918 q 426 947 407 947 q 451 937 442 947 q 460 910 460 926 q 444 877 458 890 q 410 864 429 864 m 119 0 l 244 710 l 293 710 l 169 0 l 119 0 z "},"ð":{"ha":722,"x_min":128,"x_max":694,"o":"m 358 -17 q 190 61 251 -17 q 128 260 128 139 q 223 527 128 421 q 451 633 318 633 q 587 588 538 633 q 650 479 636 543 q 522 854 650 740 l 406 746 l 379 776 l 489 879 q 313 944 418 926 l 321 989 q 525 913 438 969 l 628 1010 l 654 979 l 557 888 q 694 489 694 764 q 604 115 694 247 q 358 -17 514 -17 m 367 33 q 551 125 479 33 q 622 349 622 217 q 573 517 622 451 q 439 583 524 583 q 258 491 333 583 q 182 263 182 399 q 231 97 182 161 q 367 33 281 33 z "},"ñ":{"ha":739,"x_min":117,"x_max":769,"o":"m 629 835 q 551 863 589 835 q 479 919 514 892 q 413 947 444 947 q 322 840 346 947 l 283 840 q 331 951 296 910 q 424 993 367 993 q 501 965 464 993 q 574 908 539 936 q 640 881 608 881 q 731 988 707 881 l 769 988 q 722 876 757 918 q 629 835 686 835 m 117 0 l 242 710 l 290 710 l 268 582 q 369 691 307 656 q 493 726 431 726 q 630 676 582 726 q 678 531 678 625 q 668 424 678 481 l 593 0 l 543 0 l 617 424 q 626 531 626 479 q 483 679 626 679 q 328 616 394 679 q 239 413 263 553 l 168 0 l 117 0 z "},"ò":{"ha":722,"x_min":128,"x_max":694,"o":"m 472 799 l 275 1015 l 351 1015 l 524 799 l 472 799 m 351 -17 q 187 56 246 -17 q 128 268 128 128 q 222 603 128 479 q 468 726 315 726 q 635 653 575 726 q 694 446 694 579 q 603 109 694 235 q 351 -17 511 -17 m 360 33 q 565 145 489 33 q 640 438 640 257 q 594 614 640 551 q 464 676 549 676 q 256 563 331 676 q 182 267 182 449 q 227 94 182 156 q 360 33 272 33 z "},"ó":{"ha":722,"x_min":128,"x_max":761,"o":"m 489 800 l 438 800 l 685 1017 l 761 1017 l 489 800 m 351 -17 q 187 56 246 -17 q 128 268 128 128 q 222 603 128 479 q 468 726 315 726 q 635 653 575 726 q 694 446 694 579 q 603 109 694 235 q 351 -17 511 -17 m 360 33 q 565 145 489 33 q 640 438 640 257 q 594 614 640 551 q 464 676 549 676 q 256 563 331 676 q 182 267 182 449 q 227 94 182 156 q 360 33 272 33 z "},"ô":{"ha":722,"x_min":128,"x_max":713,"o":"m 664 799 l 513 965 l 303 799 l 249 799 l 497 1015 l 542 1015 l 713 799 l 664 799 m 351 -17 q 187 56 246 -17 q 128 268 128 128 q 222 603 128 479 q 468 726 315 726 q 635 653 575 726 q 694 446 694 579 q 603 109 694 235 q 351 -17 511 -17 m 360 33 q 565 145 489 33 q 640 438 640 257 q 594 614 640 551 q 464 676 549 676 q 256 563 331 676 q 182 267 182 449 q 227 94 182 156 q 360 33 272 33 z "},"õ":{"ha":722,"x_min":128,"x_max":754,"o":"m 614 835 q 536 863 574 835 q 464 919 499 892 q 397 947 429 947 q 307 840 331 947 l 268 840 q 316 951 281 910 q 408 993 351 993 q 486 965 449 993 q 558 908 524 936 q 625 881 593 881 q 715 988 692 881 l 754 988 q 706 876 742 918 q 614 835 671 835 m 351 -17 q 187 56 246 -17 q 128 268 128 128 q 222 603 128 479 q 468 726 315 726 q 635 653 575 726 q 694 446 694 579 q 603 109 694 235 q 351 -17 511 -17 m 360 33 q 565 145 489 33 q 640 438 640 257 q 594 614 640 551 q 464 676 549 676 q 256 563 331 676 q 182 267 182 449 q 227 94 182 156 q 360 33 272 33 z "},"ö":{"ha":722,"x_min":128,"x_max":694,"o":"m 376 864 q 353 874 363 864 q 343 900 343 885 q 359 933 344 918 q 393 947 374 947 q 417 937 408 947 q 426 910 426 926 q 410 877 425 890 q 376 864 396 864 m 607 864 q 583 874 593 864 q 574 900 574 885 q 590 933 575 918 q 624 947 604 947 q 648 937 639 947 q 657 910 657 926 q 641 877 656 890 q 607 864 626 864 m 351 -17 q 187 56 246 -17 q 128 268 128 128 q 222 603 128 479 q 468 726 315 726 q 635 653 575 726 q 694 446 694 579 q 603 109 694 235 q 351 -17 511 -17 m 360 33 q 565 145 489 33 q 640 438 640 257 q 594 614 640 551 q 464 676 549 676 q 256 563 331 676 q 182 267 182 449 q 227 94 182 156 q 360 33 272 33 z "},"÷":{"ha":883,"x_min":185,"x_max":838,"o":"m 507 722 q 478 734 490 722 q 467 763 467 746 q 478 793 467 781 q 507 806 490 806 q 536 793 525 806 q 547 763 547 781 q 536 734 547 746 q 507 722 525 722 m 185 451 l 185 499 l 838 499 l 838 451 l 185 451 m 507 146 q 478 158 490 146 q 467 186 467 169 q 478 217 467 204 q 507 229 490 229 q 536 217 525 229 q 547 186 547 204 q 536 158 547 169 q 507 146 525 146 z "},"ø":{"ha":722,"x_min":57,"x_max":764,"o":"m 57 -17 l 158 100 q 128 268 128 169 q 222 603 128 479 q 468 726 315 726 q 636 649 575 726 l 704 726 l 764 726 l 661 608 q 694 446 694 544 q 603 109 694 235 q 351 -17 511 -17 q 183 60 242 -17 l 117 -17 l 57 -17 m 199 147 l 599 606 q 464 676 554 676 q 256 563 331 676 q 182 267 182 449 q 199 147 182 197 m 360 33 q 565 145 489 33 q 640 438 640 257 q 621 563 640 508 l 221 103 q 360 33 265 33 z "},"ù":{"ha":739,"x_min":149,"x_max":711,"o":"m 474 799 l 276 1015 l 353 1015 l 525 799 l 474 799 m 538 0 l 558 122 q 339 -17 478 -17 q 197 33 246 -17 q 149 179 149 83 q 158 276 149 215 l 235 710 l 285 710 l 208 265 q 200 179 200 219 q 347 29 200 29 q 499 94 433 29 q 589 297 564 158 l 660 710 l 711 710 l 586 0 l 538 0 z "},"ú":{"ha":739,"x_min":149,"x_max":763,"o":"m 490 800 l 439 800 l 686 1017 l 763 1017 l 490 800 m 538 0 l 558 122 q 339 -17 478 -17 q 197 33 246 -17 q 149 179 149 83 q 158 276 149 215 l 235 710 l 285 710 l 208 265 q 200 179 200 219 q 347 29 200 29 q 499 94 433 29 q 589 297 564 158 l 660 710 l 711 710 l 586 0 l 538 0 z "},"û":{"ha":739,"x_min":149,"x_max":714,"o":"m 665 799 l 514 965 l 304 799 l 250 799 l 499 1015 l 543 1015 l 714 799 l 665 799 m 538 0 l 558 122 q 339 -17 478 -17 q 197 33 246 -17 q 149 179 149 83 q 158 276 149 215 l 235 710 l 285 710 l 208 265 q 200 179 200 219 q 347 29 200 29 q 499 94 433 29 q 589 297 564 158 l 660 710 l 711 710 l 586 0 l 538 0 z "},"ü":{"ha":739,"x_min":149,"x_max":711,"o":"m 378 864 q 354 874 364 864 q 344 900 344 885 q 360 933 346 918 q 394 947 375 947 q 419 937 410 947 q 428 910 428 926 q 412 877 426 890 q 378 864 397 864 m 608 864 q 585 874 594 864 q 575 900 575 885 q 591 933 576 918 q 625 947 606 947 q 649 937 640 947 q 658 910 658 926 q 642 877 657 890 q 608 864 628 864 m 538 0 l 558 122 q 339 -17 478 -17 q 197 33 246 -17 q 149 179 149 83 q 158 276 149 215 l 235 710 l 285 710 l 208 265 q 200 179 200 219 q 347 29 200 29 q 499 94 433 29 q 589 297 564 158 l 660 710 l 711 710 l 586 0 l 538 0 z "},"ý":{"ha":674,"x_min":136,"x_max":731,"o":"m 458 800 l 407 800 l 654 1017 l 731 1017 l 458 800 m 136 -269 l 290 19 l 165 710 l 214 710 l 300 224 l 325 79 q 400 224 350 129 l 660 710 l 714 710 l 189 -269 l 136 -269 z "},"þ":{"ha":747,"x_min":67,"x_max":714,"o":"m 375 -17 q 260 20 311 -17 q 189 118 210 57 l 124 -257 l 67 -282 l 288 978 l 343 1003 l 274 606 q 497 726 367 726 q 656 649 597 726 q 714 443 714 571 q 620 108 714 232 q 375 -17 526 -17 m 375 33 q 583 144 507 33 q 660 438 660 256 q 615 613 660 549 q 486 676 569 676 q 365 640 425 676 q 263 540 304 603 l 200 183 q 267 73 221 113 q 375 33 313 33 z "},"ÿ":{"ha":674,"x_min":136,"x_max":714,"o":"m 346 864 q 322 874 332 864 q 313 900 313 885 q 328 933 314 918 q 363 947 343 947 q 387 937 378 947 q 396 910 396 926 q 380 877 394 890 q 346 864 365 864 m 576 864 q 553 874 563 864 q 543 900 543 885 q 559 933 544 918 q 593 947 574 947 q 617 937 608 947 q 626 910 626 926 q 610 877 625 890 q 576 864 596 864 m 136 -269 l 290 19 l 165 710 l 214 710 l 300 224 l 325 79 q 400 224 350 129 l 660 710 l 714 710 l 189 -269 l 136 -269 z "},"Ā":{"ha":886,"x_min":81,"x_max":849,"o":"m 382 1086 l 390 1132 l 849 1132 l 840 1086 l 382 1086 m 81 0 l 574 972 l 610 972 l 767 0 l 715 0 l 669 274 l 275 274 l 136 0 l 81 0 m 294 315 l 664 315 l 600 733 q 576 889 583 825 q 506 733 572 878 l 294 315 z "},"ā":{"ha":690,"x_min":107,"x_max":722,"o":"m 256 864 l 264 910 l 722 910 l 714 864 l 256 864 m 515 0 l 533 104 q 293 -17 424 -17 q 157 35 207 -17 q 107 181 107 88 q 188 369 107 297 q 385 440 269 440 q 579 368 493 440 l 596 458 q 606 547 606 518 q 471 681 606 681 q 247 610 374 681 l 238 654 q 472 726 372 726 q 656 549 656 726 q 647 469 656 522 l 565 0 l 515 0 m 296 29 q 544 169 422 29 l 572 324 q 382 393 482 393 q 228 334 292 393 q 164 181 164 275 q 199 70 164 111 q 296 29 235 29 z "},"Ă":{"ha":886,"x_min":81,"x_max":869,"o":"m 600 1028 q 448 1080 499 1028 q 397 1213 397 1132 q 399 1251 397 1238 l 444 1251 q 443 1213 443 1238 q 487 1108 443 1143 q 603 1074 531 1074 q 745 1119 685 1074 q 822 1251 806 1165 l 869 1251 q 784 1090 851 1151 q 600 1028 717 1028 m 81 0 l 574 972 l 610 972 l 767 0 l 715 0 l 669 274 l 275 274 l 136 0 l 81 0 m 294 315 l 664 315 l 600 733 q 576 889 583 825 q 506 733 572 878 l 294 315 z "},"ă":{"ha":690,"x_min":107,"x_max":743,"o":"m 474 806 q 322 858 372 806 q 271 990 271 910 q 272 1029 271 1015 l 318 1029 q 317 990 317 1015 q 360 886 317 921 q 476 851 404 851 q 619 897 558 851 q 696 1029 679 943 l 743 1029 q 658 867 725 929 q 474 806 590 806 m 515 0 l 533 104 q 293 -17 424 -17 q 157 35 207 -17 q 107 181 107 88 q 188 369 107 297 q 385 440 269 440 q 579 368 493 440 l 596 458 q 606 547 606 518 q 471 681 606 681 q 247 610 374 681 l 238 654 q 472 726 372 726 q 656 549 656 726 q 647 469 656 522 l 565 0 l 515 0 m 296 29 q 544 169 422 29 l 572 324 q 382 393 482 393 q 228 334 292 393 q 164 181 164 275 q 199 70 164 111 q 296 29 235 29 z "},"Ą":{"ha":886,"x_min":81,"x_max":767,"o":"m 613 -325 q 531 -297 563 -325 q 500 -217 500 -269 q 563 -81 500 -135 q 715 4 625 -26 l 669 274 l 275 274 l 136 0 l 81 0 l 574 972 l 610 972 l 767 0 q 613 -78 676 -26 q 549 -208 549 -129 q 569 -266 549 -247 q 619 -285 589 -285 q 717 -240 668 -285 l 746 -264 q 613 -325 685 -325 m 294 315 l 664 315 l 600 735 q 576 889 578 867 q 507 736 553 828 l 294 315 z "},"ą":{"ha":690,"x_min":107,"x_max":656,"o":"m 439 -325 q 358 -297 389 -325 q 326 -217 326 -269 q 378 -93 326 -150 q 515 0 429 -36 l 533 104 q 293 -17 424 -17 q 157 35 207 -17 q 107 181 107 88 q 188 369 107 297 q 385 440 269 440 q 579 368 493 440 l 596 458 q 606 547 606 518 q 471 681 606 681 q 247 610 374 681 l 238 654 q 472 726 372 726 q 656 549 656 726 q 647 469 656 514 l 565 0 q 374 -210 374 -83 q 394 -266 374 -247 q 446 -285 415 -285 q 542 -240 497 -285 l 571 -264 q 439 -325 513 -325 m 296 29 q 544 169 422 29 l 572 324 q 382 393 482 393 q 228 334 292 393 q 164 181 164 275 q 199 70 164 111 q 296 29 235 29 z "},"Ć":{"ha":861,"x_min":160,"x_max":908,"o":"m 636 1022 l 585 1022 l 832 1239 l 908 1239 l 636 1022 m 454 -17 q 232 94 304 -17 q 160 369 160 204 q 192 594 160 485 q 281 792 224 704 q 428 935 339 881 q 625 989 518 989 q 784 947 729 989 q 874 832 839 904 l 826 807 q 750 906 794 872 q 624 939 706 939 q 403 853 499 939 q 262 640 308 768 q 215 371 215 513 q 275 128 215 224 q 460 33 335 33 q 614 76 547 33 q 721 182 681 118 l 768 161 q 454 -17 654 -17 z "},"ć":{"ha":629,"x_min":121,"x_max":732,"o":"m 460 800 l 408 800 l 656 1017 l 732 1017 l 460 800 m 338 -17 q 178 56 236 -17 q 121 263 121 129 q 210 594 121 461 q 442 726 300 726 q 572 682 522 726 q 626 576 621 638 l 579 558 q 533 645 569 614 q 440 676 497 676 q 249 558 322 676 q 175 263 175 439 q 217 94 175 154 q 338 33 258 33 q 442 68 394 33 q 518 165 490 103 l 565 146 q 338 -17 489 -17 z "},"Ĉ":{"ha":861,"x_min":160,"x_max":874,"o":"m 811 1021 l 660 1188 l 450 1021 l 396 1021 l 644 1238 l 689 1238 l 860 1021 l 811 1021 m 454 -17 q 232 94 304 -17 q 160 369 160 204 q 192 594 160 485 q 281 792 224 704 q 428 935 339 881 q 625 989 518 989 q 784 947 729 989 q 874 832 839 904 l 826 807 q 750 906 794 872 q 624 939 706 939 q 403 853 499 939 q 262 640 308 768 q 215 371 215 513 q 275 128 215 224 q 460 33 335 33 q 614 76 547 33 q 721 182 681 118 l 768 161 q 454 -17 654 -17 z "},"ĉ":{"ha":629,"x_min":121,"x_max":683,"o":"m 635 799 l 483 965 l 274 799 l 219 799 l 468 1015 l 513 1015 l 683 799 l 635 799 m 338 -17 q 178 56 236 -17 q 121 263 121 129 q 210 594 121 461 q 442 726 300 726 q 572 682 522 726 q 626 576 621 638 l 579 558 q 533 645 569 614 q 440 676 497 676 q 249 558 322 676 q 175 263 175 439 q 217 94 175 154 q 338 33 258 33 q 442 68 394 33 q 518 165 490 103 l 565 146 q 338 -17 489 -17 z "},"Ċ":{"ha":861,"x_min":160,"x_max":874,"o":"m 635 1063 q 611 1073 621 1063 q 601 1099 601 1083 q 617 1131 603 1117 q 651 1146 632 1146 q 676 1135 667 1146 q 685 1108 685 1125 q 669 1076 683 1089 q 635 1063 654 1063 m 454 -17 q 232 94 304 -17 q 160 369 160 204 q 192 594 160 485 q 281 792 224 704 q 428 935 339 881 q 625 989 518 989 q 784 947 729 989 q 874 832 839 904 l 826 807 q 750 906 794 872 q 624 939 706 939 q 403 853 499 939 q 262 640 308 768 q 215 371 215 513 q 275 128 215 224 q 460 33 335 33 q 614 76 547 33 q 721 182 681 118 l 768 161 q 454 -17 654 -17 z "},"ċ":{"ha":629,"x_min":121,"x_max":626,"o":"m 458 840 q 435 851 444 840 q 425 876 425 861 q 441 909 426 894 q 475 924 456 924 q 499 913 490 924 q 508 886 508 903 q 492 853 507 867 q 458 840 478 840 m 338 -17 q 178 56 236 -17 q 121 263 121 129 q 210 594 121 461 q 442 726 300 726 q 572 682 522 726 q 626 576 621 638 l 579 558 q 533 645 569 614 q 440 676 497 676 q 249 558 322 676 q 175 263 175 439 q 217 94 175 154 q 338 33 258 33 q 442 68 394 33 q 518 165 490 103 l 565 146 q 338 -17 489 -17 z "},"Č":{"ha":861,"x_min":160,"x_max":903,"o":"m 654 1021 l 610 1021 l 439 1238 l 488 1238 l 638 1071 l 849 1238 l 903 1238 l 654 1021 m 454 -17 q 232 94 304 -17 q 160 369 160 204 q 192 594 160 485 q 281 792 224 704 q 428 935 339 881 q 625 989 518 989 q 784 947 729 989 q 874 832 839 904 l 826 807 q 750 906 794 872 q 624 939 706 939 q 403 853 499 939 q 262 640 308 768 q 215 371 215 513 q 275 128 215 224 q 460 33 335 33 q 614 76 547 33 q 721 182 681 118 l 768 161 q 454 -17 654 -17 z "},"č":{"ha":629,"x_min":121,"x_max":726,"o":"m 478 799 l 433 799 l 263 1015 l 311 1015 l 461 849 l 672 1015 l 726 1015 l 478 799 m 338 -17 q 178 56 236 -17 q 121 263 121 129 q 210 594 121 461 q 442 726 300 726 q 572 682 522 726 q 626 576 621 638 l 579 558 q 533 645 569 614 q 440 676 497 676 q 249 558 322 676 q 175 263 175 439 q 217 94 175 154 q 338 33 258 33 q 442 68 394 33 q 518 165 490 103 l 565 146 q 338 -17 489 -17 z "},"Ď":{"ha":896,"x_min":121,"x_max":857,"o":"m 568 1021 l 524 1021 l 353 1238 l 401 1238 l 551 1071 l 763 1238 l 817 1238 l 568 1021 m 292 972 l 500 972 q 667 940 596 972 q 779 853 739 908 q 838 731 819 797 q 857 586 857 664 q 823 367 857 471 q 725 180 789 263 q 557 49 661 97 q 324 0 453 0 l 121 0 l 292 972 m 333 50 q 674 203 547 50 q 800 586 800 356 q 784 713 800 656 q 733 819 768 771 q 637 895 699 868 q 490 922 575 922 l 333 922 l 182 50 l 333 50 z "},"ď":{"ha":865,"x_min":132,"x_max":969,"o":"m 351 -17 q 190 64 247 -17 q 132 281 132 144 q 227 603 132 481 q 472 726 322 726 q 591 690 544 726 q 656 603 638 653 l 722 978 l 776 1003 l 601 0 l 550 0 l 568 101 q 351 -17 465 -17 m 969 989 l 965 964 q 838 672 928 768 l 825 683 q 919 989 883 778 l 969 989 m 351 33 q 582 181 482 33 l 643 533 q 581 633 624 590 q 469 676 539 676 q 263 566 340 676 q 186 281 186 456 q 228 103 186 172 q 351 33 271 33 z "},"Đ":{"ha":896,"x_min":107,"x_max":857,"o":"m 121 0 l 201 460 l 107 460 l 114 510 l 210 510 l 292 972 l 500 972 q 667 940 596 972 q 779 853 739 908 q 838 731 819 797 q 857 586 857 664 q 823 367 857 471 q 725 180 789 263 q 557 49 661 97 q 324 0 453 0 l 121 0 m 182 50 l 333 50 q 674 203 547 50 q 800 586 800 356 q 784 713 800 656 q 733 819 768 771 q 637 895 699 868 q 490 922 575 922 l 333 922 l 261 510 l 504 510 l 497 460 l 253 460 l 182 50 z "},"đ":{"ha":742,"x_min":121,"x_max":846,"o":"m 739 789 l 600 0 l 550 0 l 568 101 q 343 -17 467 -17 q 181 56 242 -17 q 121 246 121 129 q 217 561 121 442 q 464 681 314 681 q 580 645 533 681 q 647 560 626 610 l 689 789 l 489 789 l 496 835 l 696 835 l 722 978 l 776 1003 l 747 835 l 846 835 l 839 789 l 739 789 m 343 35 q 582 179 482 35 l 636 488 q 461 631 578 631 q 254 524 331 631 q 178 246 178 418 q 223 97 178 158 q 343 35 268 35 z "},"Ē":{"ha":781,"x_min":121,"x_max":790,"o":"m 324 1086 l 332 1132 l 790 1132 l 782 1086 l 324 1086 m 121 0 l 292 972 l 788 972 l 781 926 l 336 926 l 265 526 l 561 526 l 553 481 l 257 481 l 181 46 l 656 46 l 647 0 l 121 0 z "},"ē":{"ha":696,"x_min":121,"x_max":728,"o":"m 261 864 l 269 910 l 728 910 l 719 864 l 261 864 m 344 -17 q 178 56 236 -17 q 121 265 121 129 q 220 599 121 471 q 465 726 319 726 q 619 667 561 726 q 678 486 678 608 q 658 340 678 432 l 179 340 q 175 265 175 303 q 357 33 175 33 q 526 96 442 33 l 553 57 q 344 -17 456 -17 m 186 386 l 615 386 q 625 486 625 450 q 578 635 625 590 q 467 681 531 681 q 281 597 351 681 q 186 386 211 513 z "},"Ĕ":{"ha":781,"x_min":121,"x_max":811,"o":"m 542 1028 q 390 1080 440 1028 q 339 1213 339 1132 q 340 1251 339 1238 l 386 1251 q 385 1213 385 1238 q 428 1108 385 1143 q 544 1074 472 1074 q 687 1119 626 1074 q 764 1251 747 1165 l 811 1251 q 726 1090 793 1151 q 542 1028 658 1028 m 121 0 l 292 972 l 788 972 l 781 926 l 336 926 l 265 526 l 561 526 l 553 481 l 257 481 l 181 46 l 656 46 l 647 0 l 121 0 z "},"ĕ":{"ha":696,"x_min":121,"x_max":749,"o":"m 479 806 q 327 858 378 806 q 276 990 276 910 q 278 1029 276 1015 l 324 1029 q 322 990 322 1015 q 366 886 322 921 q 482 851 410 851 q 624 897 564 851 q 701 1029 685 943 l 749 1029 q 663 867 731 929 q 479 806 596 806 m 344 -17 q 178 56 236 -17 q 121 265 121 129 q 220 599 121 471 q 465 726 319 726 q 619 667 561 726 q 678 486 678 608 q 658 340 678 432 l 179 340 q 175 265 175 303 q 357 33 175 33 q 526 96 442 33 l 553 57 q 344 -17 456 -17 m 186 386 l 615 386 q 625 486 625 450 q 578 635 625 590 q 467 681 531 681 q 281 597 351 681 q 186 386 211 513 z "},"Ė":{"ha":781,"x_min":121,"x_max":788,"o":"m 547 1063 q 524 1073 533 1063 q 514 1099 514 1083 q 530 1131 515 1117 q 564 1146 544 1146 q 588 1135 579 1146 q 597 1108 597 1125 q 581 1076 596 1089 q 547 1063 567 1063 m 121 0 l 292 972 l 788 972 l 781 926 l 336 926 l 265 526 l 561 526 l 553 481 l 257 481 l 181 46 l 656 46 l 647 0 l 121 0 z "},"ė":{"ha":696,"x_min":121,"x_max":678,"o":"m 485 840 q 461 851 471 840 q 451 876 451 861 q 467 909 453 894 q 501 924 482 924 q 526 913 517 924 q 535 886 535 903 q 519 853 533 867 q 485 840 504 840 m 344 -17 q 178 56 236 -17 q 121 265 121 129 q 220 599 121 471 q 465 726 319 726 q 619 667 561 726 q 678 486 678 608 q 658 340 678 432 l 179 340 q 175 265 175 303 q 357 33 175 33 q 526 96 442 33 l 553 57 q 344 -17 456 -17 m 186 386 l 615 386 q 625 486 625 450 q 578 635 625 590 q 467 681 531 681 q 281 597 351 681 q 186 386 211 513 z "},"Ę":{"ha":781,"x_min":121,"x_max":788,"o":"m 424 -325 q 342 -297 374 -325 q 311 -217 311 -269 q 365 -89 311 -146 q 500 0 419 -32 l 121 0 l 292 972 l 788 972 l 781 926 l 336 926 l 265 526 l 561 526 l 553 481 l 257 481 l 181 46 l 656 46 l 647 0 l 606 0 q 441 -61 524 0 q 358 -208 358 -122 q 379 -265 358 -246 q 429 -285 400 -285 q 526 -240 479 -285 l 556 -264 q 424 -325 497 -325 z "},"ę":{"ha":696,"x_min":121,"x_max":678,"o":"m 329 -325 q 248 -297 279 -325 q 217 -217 217 -269 q 258 -104 217 -157 q 369 -15 299 -51 q 344 -17 361 -17 q 178 56 236 -17 q 121 265 121 129 q 220 599 121 471 q 465 726 319 726 q 619 667 561 726 q 678 486 678 608 q 658 340 678 432 l 179 340 q 175 265 175 303 q 357 33 175 33 q 526 96 442 33 l 553 57 q 467 7 517 29 q 264 -210 264 -79 q 285 -266 264 -247 q 336 -285 306 -285 q 432 -240 388 -285 l 461 -264 q 329 -325 403 -325 m 186 386 l 615 386 q 625 486 625 450 q 578 635 625 590 q 467 681 531 681 q 281 597 351 681 q 186 386 211 513 z "},"Ě":{"ha":781,"x_min":121,"x_max":815,"o":"m 567 1021 l 522 1021 l 351 1238 l 400 1238 l 550 1071 l 761 1238 l 815 1238 l 567 1021 m 121 0 l 292 972 l 788 972 l 781 926 l 336 926 l 265 526 l 561 526 l 553 481 l 257 481 l 181 46 l 656 46 l 647 0 l 121 0 z "},"ě":{"ha":696,"x_min":121,"x_max":753,"o":"m 504 799 l 460 799 l 289 1015 l 338 1015 l 488 849 l 699 1015 l 753 1015 l 504 799 m 344 -17 q 178 56 236 -17 q 121 265 121 129 q 220 599 121 471 q 465 726 319 726 q 619 667 561 726 q 678 486 678 608 q 658 340 678 432 l 179 340 q 175 265 175 303 q 357 33 175 33 q 526 96 442 33 l 553 57 q 344 -17 456 -17 m 186 386 l 615 386 q 625 486 625 450 q 578 635 625 590 q 467 681 531 681 q 281 597 351 681 q 186 386 211 513 z "},"Ĝ":{"ha":918,"x_min":160,"x_max":869,"o":"m 813 1021 l 661 1188 l 451 1021 l 397 1021 l 646 1238 l 690 1238 l 861 1021 l 813 1021 m 457 -17 q 285 39 354 -17 q 188 178 217 94 q 160 368 160 261 q 190 593 160 483 q 277 792 221 703 q 425 935 333 881 q 628 989 517 989 q 869 856 793 989 l 819 826 q 622 939 760 939 q 440 885 521 939 q 310 745 358 831 q 238 564 263 660 q 214 374 214 468 q 274 129 214 225 q 460 33 335 33 q 660 119 579 33 q 772 374 742 206 l 775 390 l 578 390 l 585 439 l 836 439 l 828 390 q 693 83 792 183 q 457 -17 594 -17 z "},"ĝ":{"ha":744,"x_min":124,"x_max":722,"o":"m 661 799 l 510 965 l 300 799 l 246 799 l 494 1015 l 539 1015 l 710 799 l 661 799 m 222 -251 q 449 -188 374 -243 q 543 -25 524 -133 l 568 117 q 338 -17 483 -17 q 183 58 242 -17 q 124 271 124 133 q 221 601 124 476 q 467 726 318 726 q 586 691 538 726 q 654 607 635 656 l 672 710 l 722 710 l 593 -32 q 242 -296 550 -274 l 222 -251 m 347 33 q 581 188 483 33 l 642 540 q 571 641 618 606 q 463 676 524 676 q 255 567 332 676 q 178 279 178 457 q 224 99 178 164 q 347 33 271 33 z "},"Ğ":{"ha":918,"x_min":160,"x_max":900,"o":"m 631 1028 q 478 1080 529 1028 q 428 1213 428 1132 q 429 1251 428 1238 l 475 1251 q 474 1213 474 1238 q 517 1108 474 1143 q 633 1074 561 1074 q 776 1119 715 1074 q 853 1251 836 1165 l 900 1251 q 815 1090 882 1151 q 631 1028 747 1028 m 457 -17 q 285 39 354 -17 q 188 178 217 94 q 160 368 160 261 q 190 593 160 483 q 277 792 221 703 q 425 935 333 881 q 628 989 517 989 q 869 856 793 989 l 819 826 q 622 939 760 939 q 440 885 521 939 q 310 745 358 831 q 238 564 263 660 q 214 374 214 468 q 274 129 214 225 q 460 33 335 33 q 660 119 579 33 q 772 374 742 206 l 775 390 l 578 390 l 585 439 l 836 439 l 828 390 q 693 83 792 183 q 457 -17 594 -17 z "},"ğ":{"ha":744,"x_min":124,"x_max":749,"o":"m 479 806 q 327 858 378 806 q 276 990 276 910 q 278 1029 276 1015 l 324 1029 q 322 990 322 1015 q 366 886 322 921 q 482 851 410 851 q 624 897 564 851 q 701 1029 685 943 l 749 1029 q 663 867 731 929 q 479 806 596 806 m 222 -251 q 449 -188 374 -243 q 543 -25 524 -133 l 568 117 q 338 -17 483 -17 q 183 58 242 -17 q 124 271 124 133 q 221 601 124 476 q 467 726 318 726 q 586 691 538 726 q 654 607 635 656 l 672 710 l 722 710 l 593 -32 q 242 -296 550 -274 l 222 -251 m 347 33 q 581 188 483 33 l 642 540 q 571 641 618 606 q 463 676 524 676 q 255 567 332 676 q 178 279 178 457 q 224 99 178 164 q 347 33 271 33 z "},"Ġ":{"ha":918,"x_min":160,"x_max":869,"o":"m 636 1063 q 613 1073 622 1063 q 603 1099 603 1083 q 619 1131 604 1117 q 653 1146 633 1146 q 677 1135 668 1146 q 686 1108 686 1125 q 670 1076 685 1089 q 636 1063 656 1063 m 457 -17 q 285 39 354 -17 q 188 178 217 94 q 160 368 160 261 q 190 593 160 483 q 277 792 221 703 q 425 935 333 881 q 628 989 517 989 q 869 856 793 989 l 819 826 q 622 939 760 939 q 440 885 521 939 q 310 745 358 831 q 238 564 263 660 q 214 374 214 468 q 274 129 214 225 q 460 33 335 33 q 660 119 579 33 q 772 374 742 206 l 775 390 l 578 390 l 585 439 l 836 439 l 828 390 q 693 83 792 183 q 457 -17 594 -17 z "},"ġ":{"ha":744,"x_min":124,"x_max":722,"o":"m 485 840 q 461 851 471 840 q 451 876 451 861 q 467 909 453 894 q 501 924 482 924 q 526 913 517 924 q 535 886 535 903 q 519 853 533 867 q 485 840 504 840 m 222 -251 q 449 -188 374 -243 q 543 -25 524 -133 l 568 117 q 338 -17 483 -17 q 183 58 242 -17 q 124 271 124 133 q 221 601 124 476 q 467 726 318 726 q 586 691 538 726 q 654 607 635 656 l 672 710 l 722 710 l 593 -32 q 242 -296 550 -274 l 222 -251 m 347 33 q 581 188 483 33 l 642 540 q 571 641 618 606 q 463 676 524 676 q 255 567 332 676 q 178 279 178 457 q 224 99 178 164 q 347 33 271 33 z "},"Ģ":{"ha":918,"x_min":160,"x_max":869,"o":"m 457 -17 q 285 39 354 -17 q 188 178 217 94 q 160 368 160 261 q 190 593 160 483 q 277 792 221 703 q 425 935 333 881 q 628 989 517 989 q 869 856 793 989 l 819 826 q 622 939 760 939 q 440 885 521 939 q 310 745 358 831 q 238 564 263 660 q 214 374 214 468 q 274 129 214 225 q 460 33 335 33 q 660 119 579 33 q 772 374 742 206 l 775 390 l 578 390 l 585 439 l 836 439 l 828 390 q 693 83 792 183 q 457 -17 594 -17 m 382 -340 l 369 -336 q 420 -254 397 -306 q 444 -164 443 -203 q 417 -154 428 -164 q 407 -128 407 -144 q 419 -94 407 -107 q 453 -81 432 -81 q 492 -129 492 -81 q 456 -245 492 -183 q 382 -340 421 -307 z "},"ģ":{"ha":744,"x_min":124,"x_max":722,"o":"m 486 836 q 447 885 447 836 q 483 1001 447 939 q 557 1096 518 1063 l 569 1092 q 519 1010 542 1061 q 494 919 496 958 q 522 910 511 919 q 532 883 532 900 q 519 849 532 863 q 486 836 507 836 m 222 -251 q 449 -188 374 -243 q 543 -25 524 -133 l 568 117 q 338 -17 483 -17 q 183 58 242 -17 q 124 271 124 133 q 221 601 124 476 q 467 726 318 726 q 586 691 538 726 q 654 607 635 656 l 672 710 l 722 710 l 593 -32 q 242 -296 550 -274 l 222 -251 m 347 33 q 581 188 483 33 l 642 540 q 571 641 618 606 q 463 676 524 676 q 255 567 332 676 q 178 279 178 457 q 224 99 178 164 q 347 33 271 33 z "},"Ĥ":{"ha":900,"x_min":121,"x_max":900,"o":"m 785 1021 l 633 1188 l 424 1021 l 369 1021 l 618 1238 l 663 1238 l 833 1021 l 785 1021 m 121 0 l 292 972 l 343 972 l 267 529 l 772 529 l 849 972 l 900 972 l 729 0 l 678 0 l 763 482 l 257 482 l 172 0 l 121 0 z "},"ĥ":{"ha":739,"x_min":117,"x_max":781,"o":"m 732 1063 l 581 1229 l 371 1063 l 317 1063 l 565 1279 l 610 1279 l 781 1063 l 732 1063 m 117 0 l 289 978 l 343 1003 l 269 582 q 370 691 308 656 q 493 726 432 726 q 629 677 581 726 q 678 532 678 628 q 669 433 678 486 l 593 0 l 543 0 l 619 439 q 626 532 626 482 q 486 679 626 679 q 239 410 285 679 l 168 0 l 117 0 z "},"Ħ":{"ha":900,"x_min":121,"x_max":988,"o":"m 678 0 l 763 482 l 257 482 l 172 0 l 121 0 l 254 761 l 139 761 l 149 808 l 264 808 l 292 972 l 343 972 l 314 808 l 821 808 l 849 972 l 900 972 l 872 808 l 988 808 l 978 761 l 863 761 l 729 0 l 678 0 m 772 529 l 813 761 l 307 761 l 267 529 l 772 529 z "},"ħ":{"ha":739,"x_min":117,"x_max":669,"o":"m 543 0 l 610 385 q 618 481 618 432 q 578 599 618 565 q 483 633 539 633 q 322 572 386 633 q 232 367 257 511 l 168 0 l 117 0 l 256 789 l 161 789 l 168 835 l 264 835 l 289 978 l 343 1003 l 314 835 l 524 835 l 517 789 l 306 789 l 261 536 q 362 645 301 610 q 483 681 422 681 q 622 630 575 681 q 669 482 669 579 q 661 388 669 438 l 593 0 l 543 0 z "},"Ĩ":{"ha":328,"x_min":111,"x_max":597,"o":"m 457 1057 q 379 1085 417 1057 q 307 1142 342 1114 q 240 1169 272 1169 q 150 1063 174 1169 l 111 1063 q 159 1174 124 1132 q 251 1215 194 1215 q 329 1187 292 1215 q 401 1131 367 1158 q 468 1103 436 1103 q 558 1210 535 1103 l 597 1210 q 549 1099 585 1140 q 457 1057 514 1057 m 121 0 l 292 972 l 343 972 l 172 0 l 121 0 z "},"ĩ":{"ha":317,"x_min":71,"x_max":557,"o":"m 417 835 q 339 863 376 835 q 267 919 301 892 q 200 947 232 947 q 110 840 133 947 l 71 840 q 119 951 83 910 q 211 993 154 993 q 289 965 251 993 q 361 908 326 936 q 428 881 396 881 q 518 988 494 881 l 557 988 q 509 876 544 918 q 417 835 474 835 m 119 0 l 244 710 l 293 710 l 169 0 l 119 0 z "},"Ī":{"ha":328,"x_min":107,"x_max":574,"o":"m 107 1086 l 115 1132 l 574 1132 l 565 1086 l 107 1086 m 121 0 l 292 972 l 343 972 l 172 0 l 121 0 z "},"ī":{"ha":317,"x_min":67,"x_max":533,"o":"m 67 864 l 75 910 l 533 910 l 525 864 l 67 864 m 119 0 l 244 710 l 293 710 l 169 0 l 119 0 z "},"Ĭ":{"ha":328,"x_min":121,"x_max":594,"o":"m 325 1028 q 173 1080 224 1028 q 122 1213 122 1132 q 124 1251 122 1238 l 169 1251 q 168 1213 168 1238 q 212 1108 168 1143 q 328 1074 256 1074 q 470 1119 410 1074 q 547 1251 531 1165 l 594 1251 q 509 1090 576 1151 q 325 1028 442 1028 m 121 0 l 292 972 l 343 972 l 172 0 l 121 0 z "},"ĭ":{"ha":317,"x_min":82,"x_max":554,"o":"m 285 806 q 133 858 183 806 q 82 990 82 910 q 83 1029 82 1015 l 129 1029 q 128 990 128 1015 q 172 886 128 921 q 288 851 215 851 q 430 897 369 851 q 507 1029 490 943 l 554 1029 q 469 867 536 929 q 285 806 401 806 m 119 0 l 244 710 l 293 710 l 169 0 l 119 0 z "},"Į":{"ha":328,"x_min":-25,"x_max":343,"o":"m 88 -325 q 6 -297 38 -325 q -25 -217 -25 -269 q 17 -94 -25 -153 q 122 4 58 -36 l 292 972 l 343 972 l 172 0 q 67 -89 111 -33 q 22 -208 22 -144 q 43 -266 22 -247 q 94 -285 64 -285 q 190 -240 146 -285 l 219 -264 q 88 -325 161 -325 z "},"į":{"ha":317,"x_min":-25,"x_max":346,"o":"m 299 879 q 265 914 265 879 q 278 948 265 933 q 313 963 292 963 q 346 926 346 963 q 333 893 346 907 q 299 879 319 879 m 86 -325 q 7 -297 39 -325 q -25 -217 -25 -269 q 13 -99 -25 -161 q 119 1 50 -37 l 244 710 l 294 710 l 171 0 q 60 -97 97 -39 q 22 -210 22 -154 q 42 -265 22 -246 q 93 -285 63 -285 q 190 -240 146 -285 l 219 -264 q 86 -325 161 -325 z "},"İ":{"ha":328,"x_min":121,"x_max":381,"o":"m 331 1063 q 307 1073 317 1063 q 297 1099 297 1083 q 313 1131 299 1117 q 347 1146 328 1146 q 372 1135 363 1146 q 381 1108 381 1125 q 365 1076 379 1089 q 331 1063 350 1063 m 121 0 l 292 972 l 343 972 l 172 0 l 121 0 z "},"ı":{"ha":317,"x_min":119,"x_max":293,"o":"m 119 0 l 244 710 l 293 710 l 169 0 l 119 0 z "},"Ĳ":{"ha":1025,"x_min":121,"x_max":1035,"o":"m 121 0 l 292 972 l 343 972 l 172 0 l 121 0 m 597 -17 q 447 29 504 -17 q 368 149 389 75 l 414 171 q 597 31 454 31 q 867 310 818 31 l 982 972 l 1035 972 l 919 313 q 597 -17 861 -17 z "},"ĳ":{"ha":697,"x_min":119,"x_max":715,"o":"m 296 865 q 263 900 263 865 q 276 934 263 919 q 310 949 289 949 q 343 913 343 949 q 330 879 343 893 q 296 865 317 865 m 668 865 q 635 900 635 865 q 648 934 635 919 q 682 949 661 949 q 715 913 715 949 q 702 879 715 893 q 668 865 689 865 m 119 0 l 244 710 l 294 710 l 171 0 l 119 0 m 297 -296 l 279 -253 q 418 -199 371 -243 q 482 -56 465 -156 l 617 710 l 667 710 l 533 -56 q 450 -235 510 -183 q 297 -296 390 -286 z "},"Ĵ":{"ha":711,"x_min":54,"x_max":935,"o":"m 886 1021 l 735 1188 l 525 1021 l 471 1021 l 719 1238 l 764 1238 l 935 1021 l 886 1021 m 283 -17 q 133 29 190 -17 q 54 149 75 75 l 100 171 q 283 31 140 31 q 553 310 504 31 l 668 972 l 721 972 l 606 313 q 283 -17 547 -17 z "},"ĵ":{"ha":325,"x_min":-93,"x_max":517,"o":"m 468 799 l 317 965 l 107 799 l 53 799 l 301 1015 l 346 1015 l 517 799 l 468 799 m -75 -296 l -93 -253 q 46 -199 -1 -243 q 110 -56 93 -156 l 244 710 l 294 710 l 161 -56 q 78 -235 138 -183 q -75 -296 18 -286 z "},"Ķ":{"ha":832,"x_min":121,"x_max":811,"o":"m 674 0 l 460 603 l 236 367 l 172 0 l 121 0 l 292 972 l 343 972 l 250 443 l 751 972 l 811 972 l 499 643 l 726 0 l 674 0 m 331 -340 l 318 -336 q 369 -254 346 -306 q 393 -164 392 -203 q 366 -154 376 -164 q 356 -128 356 -144 q 368 -94 356 -107 q 401 -81 381 -81 q 440 -129 440 -81 q 405 -245 440 -183 q 331 -340 369 -307 z "},"ķ":{"ha":665,"x_min":117,"x_max":646,"o":"m 439 515 l 607 0 l 554 0 l 399 478 l 224 314 l 168 0 l 117 0 l 289 978 l 343 1003 l 235 383 l 583 710 l 646 710 l 439 515 m 274 -340 l 261 -336 q 312 -254 289 -306 q 336 -164 335 -203 q 309 -154 319 -164 q 299 -128 299 -144 q 311 -94 299 -107 q 344 -81 324 -81 q 383 -129 383 -81 q 348 -245 383 -183 q 274 -340 313 -307 z "},"ĸ":{"ha":690,"x_min":117,"x_max":726,"o":"m 583 0 l 436 408 l 196 160 l 168 0 l 117 0 l 240 710 l 292 710 l 210 239 l 661 710 l 726 710 l 478 450 l 639 0 l 583 0 z "},"Ĺ":{"ha":710,"x_min":121,"x_max":650,"o":"m 331 1022 l 279 1022 l 526 1239 l 603 1239 l 331 1022 m 121 0 l 292 972 l 343 972 l 181 46 l 650 46 l 642 0 l 121 0 z "},"ĺ":{"ha":308,"x_min":117,"x_max":560,"o":"m 288 1050 l 236 1050 l 483 1267 l 560 1267 l 288 1050 m 117 0 l 289 978 l 343 1003 l 168 0 l 117 0 z "},"Ļ":{"ha":710,"x_min":121,"x_max":650,"o":"m 121 0 l 292 972 l 343 972 l 181 46 l 650 46 l 642 0 l 121 0 m 310 -340 l 297 -336 q 348 -254 325 -306 q 372 -164 371 -203 q 345 -154 356 -164 q 335 -128 335 -144 q 347 -94 335 -107 q 381 -81 360 -81 q 419 -129 419 -81 q 384 -245 419 -183 q 310 -340 349 -307 z "},"ļ":{"ha":308,"x_min":43,"x_max":343,"o":"m 117 0 l 289 978 l 343 1003 l 168 0 l 117 0 m 56 -340 l 43 -336 q 94 -254 71 -306 q 118 -164 117 -203 q 91 -154 101 -164 q 81 -128 81 -144 q 93 -94 81 -107 q 126 -81 106 -81 q 165 -129 165 -81 q 130 -245 165 -183 q 56 -340 94 -307 z "},"Ľ":{"ha":710,"x_min":121,"x_max":650,"o":"m 349 1021 l 304 1021 l 133 1238 l 182 1238 l 332 1071 l 543 1238 l 597 1238 l 349 1021 m 121 0 l 292 972 l 343 972 l 181 46 l 650 46 l 642 0 l 121 0 z "},"ľ":{"ha":467,"x_min":117,"x_max":571,"o":"m 117 0 l 289 978 l 343 1003 l 168 0 l 117 0 m 571 989 l 567 964 q 439 672 529 768 l 426 683 q 521 989 485 778 l 571 989 z "},"Ŀ":{"ha":710,"x_min":121,"x_max":650,"o":"m 329 1063 q 306 1073 315 1063 q 296 1099 296 1083 q 312 1131 297 1117 q 346 1146 326 1146 q 370 1135 361 1146 q 379 1108 379 1125 q 363 1076 378 1089 q 329 1063 349 1063 m 121 0 l 292 972 l 343 972 l 181 46 l 650 46 l 642 0 l 121 0 z "},"ŀ":{"ha":436,"x_min":117,"x_max":454,"o":"m 117 0 l 289 978 l 343 1003 l 168 0 l 117 0 m 404 371 q 381 381 390 371 q 371 407 371 392 q 387 440 372 425 q 421 454 401 454 q 445 444 436 454 q 454 417 454 433 q 438 384 453 397 q 404 371 424 371 z "},"Ł":{"ha":710,"x_min":76,"x_max":650,"o":"m 121 0 l 194 415 l 76 335 l 86 390 l 204 471 l 293 972 l 343 972 l 261 508 l 465 647 l 454 592 l 253 454 l 181 46 l 650 46 l 642 0 l 121 0 z "},"ł":{"ha":308,"x_min":67,"x_max":376,"o":"m 76 379 l 197 460 l 289 978 l 343 1003 l 254 497 l 376 579 l 367 525 l 246 444 l 168 0 l 117 0 l 189 407 l 67 325 l 76 379 z "},"Ń":{"ha":918,"x_min":119,"x_max":919,"o":"m 621 1022 l 569 1022 l 817 1239 l 893 1239 l 621 1022 m 119 0 l 290 972 l 339 972 l 650 243 q 714 93 707 110 q 727 172 718 121 q 740 243 736 222 l 868 972 l 919 972 l 749 0 l 700 0 l 389 726 q 362 790 386 733 q 325 879 338 847 q 312 800 321 851 q 299 726 303 749 l 171 0 l 119 0 z "},"ń":{"ha":739,"x_min":117,"x_max":776,"o":"m 504 800 l 453 800 l 700 1017 l 776 1017 l 504 800 m 117 0 l 242 710 l 290 710 l 268 582 q 369 691 307 656 q 493 726 431 726 q 630 676 582 726 q 678 531 678 625 q 668 424 678 481 l 593 0 l 543 0 l 617 424 q 626 531 626 479 q 483 679 626 679 q 328 616 394 679 q 239 413 263 553 l 168 0 l 117 0 z "},"Ņ":{"ha":918,"x_min":119,"x_max":919,"o":"m 119 0 l 290 972 l 339 972 l 650 243 q 714 93 707 110 q 727 172 718 121 q 740 243 736 222 l 868 972 l 919 972 l 749 0 l 700 0 l 389 726 q 362 790 386 733 q 325 879 338 847 q 312 800 321 851 q 299 726 303 749 l 171 0 l 119 0 m 350 -340 l 338 -336 q 388 -254 365 -306 q 413 -164 411 -203 q 385 -154 396 -164 q 375 -128 375 -144 q 388 -94 375 -107 q 421 -81 400 -81 q 460 -129 460 -81 q 424 -245 460 -183 q 350 -340 389 -307 z "},"ņ":{"ha":739,"x_min":117,"x_max":678,"o":"m 117 0 l 242 710 l 290 710 l 268 582 q 369 691 307 656 q 493 726 431 726 q 630 676 582 726 q 678 531 678 625 q 668 424 678 481 l 593 0 l 543 0 l 617 424 q 626 531 626 479 q 483 679 626 679 q 328 616 394 679 q 239 413 263 553 l 168 0 l 117 0 m 271 -368 l 258 -364 q 309 -282 286 -333 q 333 -192 332 -231 q 306 -182 317 -192 q 296 -156 296 -172 q 308 -122 296 -135 q 342 -108 321 -108 q 381 -157 381 -108 q 345 -273 381 -211 q 271 -368 310 -335 z "},"Ň":{"ha":918,"x_min":119,"x_max":919,"o":"m 639 1021 l 594 1021 l 424 1238 l 472 1238 l 622 1071 l 833 1238 l 888 1238 l 639 1021 m 119 0 l 290 972 l 339 972 l 650 243 q 714 93 707 110 q 727 172 718 121 q 740 243 736 222 l 868 972 l 919 972 l 749 0 l 700 0 l 389 726 q 362 790 386 733 q 325 879 338 847 q 312 800 321 851 q 299 726 303 749 l 171 0 l 119 0 z "},"ň":{"ha":739,"x_min":117,"x_max":771,"o":"m 522 799 l 478 799 l 307 1015 l 356 1015 l 506 849 l 717 1015 l 771 1015 l 522 799 m 117 0 l 242 710 l 290 710 l 268 582 q 369 691 307 656 q 493 726 431 726 q 630 676 582 726 q 678 531 678 625 q 668 424 678 481 l 593 0 l 543 0 l 617 424 q 626 531 626 479 q 483 679 626 679 q 328 616 394 679 q 239 413 263 553 l 168 0 l 117 0 z "},"ŉ":{"ha":992,"x_min":183,"x_max":931,"o":"m 196 729 l 183 733 q 234 815 211 764 q 258 906 257 867 q 231 915 242 906 q 221 942 221 925 q 234 976 221 963 q 267 989 247 989 q 306 940 306 989 q 270 824 306 886 q 196 729 235 763 m 369 0 l 494 710 l 543 710 l 521 582 q 622 691 560 656 q 746 726 683 726 q 883 676 835 726 q 931 531 931 625 q 921 424 931 481 l 846 0 l 796 0 l 869 424 q 879 531 879 479 q 736 679 879 679 q 581 616 647 679 q 492 413 515 553 l 421 0 l 369 0 z "},"Ŋ":{"ha":918,"x_min":119,"x_max":919,"o":"m 499 -339 l 479 -296 q 615 -241 568 -289 q 678 -100 663 -193 l 697 7 l 389 726 q 362 790 386 733 q 325 879 338 847 q 312 800 321 851 q 299 726 303 749 l 171 0 l 119 0 l 290 972 l 339 972 l 650 243 q 714 93 707 110 q 727 172 718 121 q 740 243 736 222 l 868 972 l 919 972 l 729 -111 q 629 -296 707 -242 q 499 -339 579 -329 z "},"ŋ":{"ha":740,"x_min":117,"x_max":678,"o":"m 331 -253 q 469 -199 422 -243 q 533 -56 517 -156 l 617 424 q 626 531 626 479 q 483 679 626 679 q 328 616 394 679 q 239 413 263 553 l 168 0 l 117 0 l 242 710 l 290 710 l 268 582 q 369 691 307 656 q 493 726 431 726 q 630 676 582 726 q 678 531 678 625 q 668 424 678 481 l 585 -56 q 501 -235 561 -183 q 349 -296 442 -286 l 331 -253 z "},"Ō":{"ha":967,"x_min":160,"x_max":925,"o":"m 413 1086 l 421 1132 l 879 1132 l 871 1086 l 413 1086 m 463 -17 q 288 42 358 -17 q 189 185 218 100 q 160 375 160 271 q 176 541 160 457 q 231 706 193 625 q 321 849 268 786 q 453 951 374 913 q 628 989 533 989 q 853 880 782 989 q 925 604 925 771 q 898 393 925 499 q 817 194 871 288 q 672 42 764 100 q 463 -17 579 -17 m 469 33 q 622 69 553 33 q 737 165 692 106 q 813 299 782 224 q 858 452 844 375 q 872 606 872 529 q 812 845 872 751 q 621 939 751 939 q 468 903 538 939 q 353 808 399 867 q 274 674 307 750 q 228 522 242 599 q 214 369 214 444 q 238 202 214 275 q 320 81 261 129 q 469 33 379 33 z "},"ō":{"ha":722,"x_min":128,"x_max":731,"o":"m 264 864 l 272 910 l 731 910 l 722 864 l 264 864 m 351 -17 q 187 56 246 -17 q 128 268 128 128 q 222 603 128 479 q 468 726 315 726 q 635 653 575 726 q 694 446 694 579 q 603 109 694 235 q 351 -17 511 -17 m 360 33 q 565 145 489 33 q 640 438 640 257 q 594 614 640 551 q 464 676 549 676 q 256 563 331 676 q 182 267 182 449 q 227 94 182 156 q 360 33 272 33 z "},"Ŏ":{"ha":967,"x_min":160,"x_max":925,"o":"m 631 1028 q 478 1080 529 1028 q 428 1213 428 1132 q 429 1251 428 1238 l 475 1251 q 474 1213 474 1238 q 517 1108 474 1143 q 633 1074 561 1074 q 776 1119 715 1074 q 853 1251 836 1165 l 900 1251 q 815 1090 882 1151 q 631 1028 747 1028 m 463 -17 q 288 42 358 -17 q 189 185 218 100 q 160 375 160 271 q 176 541 160 457 q 231 706 193 625 q 321 849 268 786 q 453 951 374 913 q 628 989 533 989 q 853 880 782 989 q 925 604 925 771 q 898 393 925 499 q 817 194 871 288 q 672 42 764 100 q 463 -17 579 -17 m 469 33 q 622 69 553 33 q 737 165 692 106 q 813 299 782 224 q 858 452 844 375 q 872 606 872 529 q 812 845 872 751 q 621 939 751 939 q 468 903 538 939 q 353 808 399 867 q 274 674 307 750 q 228 522 242 599 q 214 369 214 444 q 238 202 214 275 q 320 81 261 129 q 469 33 379 33 z "},"ŏ":{"ha":722,"x_min":128,"x_max":751,"o":"m 482 806 q 330 858 381 806 q 279 990 279 910 q 281 1029 279 1015 l 326 1029 q 325 990 325 1015 q 369 886 325 921 q 485 851 413 851 q 627 897 567 851 q 704 1029 688 943 l 751 1029 q 666 867 733 929 q 482 806 599 806 m 351 -17 q 187 56 246 -17 q 128 268 128 128 q 222 603 128 479 q 468 726 315 726 q 635 653 575 726 q 694 446 694 579 q 603 109 694 235 q 351 -17 511 -17 m 360 33 q 565 145 489 33 q 640 438 640 257 q 594 614 640 551 q 464 676 549 676 q 256 563 331 676 q 182 267 182 449 q 227 94 182 156 q 360 33 272 33 z "},"Ő":{"ha":967,"x_min":160,"x_max":1039,"o":"m 439 1021 l 688 1238 l 764 1238 l 490 1021 l 439 1021 m 714 1021 l 963 1238 l 1039 1238 l 765 1021 l 714 1021 m 463 -17 q 288 42 358 -17 q 189 185 218 100 q 160 375 160 271 q 176 541 160 457 q 231 706 193 625 q 321 849 268 786 q 453 951 374 913 q 628 989 533 989 q 853 880 782 989 q 925 604 925 771 q 898 393 925 499 q 817 194 871 288 q 672 42 764 100 q 463 -17 579 -17 m 469 33 q 622 69 553 33 q 737 165 692 106 q 813 299 782 224 q 858 452 844 375 q 872 606 872 529 q 812 845 872 751 q 621 939 751 939 q 468 903 538 939 q 353 808 399 867 q 274 674 307 750 q 228 522 242 599 q 214 369 214 444 q 238 202 214 275 q 320 81 261 129 q 469 33 379 33 z "},"ő":{"ha":722,"x_min":128,"x_max":890,"o":"m 290 799 l 539 1015 l 615 1015 l 342 799 l 290 799 m 565 799 l 814 1015 l 890 1015 l 617 799 l 565 799 m 351 -17 q 187 56 246 -17 q 128 268 128 128 q 222 603 128 479 q 468 726 315 726 q 635 653 575 726 q 694 446 694 579 q 603 109 694 235 q 351 -17 511 -17 m 360 33 q 565 145 489 33 q 640 438 640 257 q 594 614 640 551 q 464 676 549 676 q 256 563 331 676 q 182 267 182 449 q 227 94 182 156 q 360 33 272 33 z "},"Œ":{"ha":1253,"x_min":160,"x_max":1260,"o":"m 463 -17 q 289 42 360 -17 q 189 185 218 100 q 160 371 160 269 q 188 583 160 478 q 271 781 217 689 q 419 931 325 874 q 629 989 513 989 q 811 926 740 989 l 818 972 l 1260 972 l 1251 926 l 863 926 l 792 526 l 1032 526 l 1024 481 l 783 481 l 707 46 l 1126 46 l 1119 0 l 649 0 l 654 32 q 463 -17 572 -17 m 469 33 q 664 96 582 33 l 800 861 q 621 939 732 939 q 468 903 538 939 q 353 809 399 867 q 274 676 307 751 q 228 523 242 600 q 214 369 214 446 q 276 128 214 222 q 469 33 338 33 z "},"œ":{"ha":1203,"x_min":128,"x_max":1188,"o":"m 351 -17 q 187 55 246 -17 q 128 268 128 126 q 217 596 128 465 q 468 726 306 726 q 615 673 557 726 q 686 519 672 619 q 808 673 729 619 q 975 726 886 726 q 1130 667 1072 726 q 1188 492 1188 608 q 1167 340 1188 419 l 689 340 q 685 263 685 299 q 868 33 685 33 q 1036 96 949 33 l 1063 57 q 856 -17 963 -17 q 640 181 672 -17 q 351 -17 551 -17 m 696 386 l 1125 386 q 1135 488 1135 440 q 1088 636 1135 592 q 976 681 1040 681 q 801 607 875 681 q 696 386 726 533 m 360 33 q 563 143 486 33 q 640 438 640 253 q 596 612 640 547 q 464 676 551 676 q 257 563 332 676 q 182 267 182 450 q 228 94 182 156 q 360 33 274 33 z "},"Ŕ":{"ha":867,"x_min":121,"x_max":850,"o":"m 571 1022 l 519 1022 l 767 1239 l 843 1239 l 571 1022 m 850 746 q 765 548 850 624 q 547 460 681 472 l 690 0 l 635 0 l 492 457 l 253 457 l 172 0 l 121 0 l 292 972 l 604 972 q 790 906 729 972 q 850 746 850 839 m 493 503 q 708 563 621 503 q 796 746 796 624 q 751 873 796 819 q 604 926 707 926 l 336 926 l 261 503 l 493 503 z "},"ŕ":{"ha":500,"x_min":117,"x_max":694,"o":"m 422 800 l 371 800 l 618 1017 l 694 1017 l 422 800 m 117 0 l 242 710 l 290 710 l 264 558 q 370 684 310 642 q 489 726 431 726 q 585 697 549 726 l 567 654 q 481 676 535 676 q 333 603 406 676 q 236 393 260 529 l 168 0 l 117 0 z "},"Ŗ":{"ha":867,"x_min":121,"x_max":850,"o":"m 850 746 q 765 548 850 624 q 547 460 681 472 l 690 0 l 635 0 l 492 457 l 253 457 l 172 0 l 121 0 l 292 972 l 604 972 q 790 906 729 972 q 850 746 850 839 m 493 503 q 708 563 621 503 q 796 746 796 624 q 751 873 796 819 q 604 926 707 926 l 336 926 l 261 503 l 493 503 m 331 -340 l 318 -336 q 369 -254 346 -306 q 393 -164 392 -203 q 366 -154 376 -164 q 356 -128 356 -144 q 368 -94 356 -107 q 401 -81 381 -81 q 440 -129 440 -81 q 405 -245 440 -183 q 331 -340 369 -307 z "},"ŗ":{"ha":500,"x_min":44,"x_max":585,"o":"m 117 0 l 242 710 l 290 710 l 264 558 q 370 684 310 642 q 489 726 431 726 q 585 697 549 726 l 567 654 q 481 676 535 676 q 333 603 406 676 q 236 393 260 529 l 168 0 l 117 0 m 57 -340 l 44 -336 q 95 -254 72 -306 q 119 -164 118 -203 q 92 -154 103 -164 q 82 -128 82 -144 q 94 -94 82 -107 q 128 -81 107 -81 q 167 -129 167 -81 q 131 -245 167 -183 q 57 -340 96 -307 z "},"Ř":{"ha":867,"x_min":121,"x_max":850,"o":"m 589 1021 l 544 1021 l 374 1238 l 422 1238 l 572 1071 l 783 1238 l 838 1238 l 589 1021 m 850 746 q 765 548 850 624 q 547 460 681 472 l 690 0 l 635 0 l 492 457 l 253 457 l 172 0 l 121 0 l 292 972 l 604 972 q 790 906 729 972 q 850 746 850 839 m 493 503 q 708 563 621 503 q 796 746 796 624 q 751 873 796 819 q 604 926 707 926 l 336 926 l 261 503 l 493 503 z "},"ř":{"ha":500,"x_min":117,"x_max":689,"o":"m 440 799 l 396 799 l 225 1015 l 274 1015 l 424 849 l 635 1015 l 689 1015 l 440 799 m 117 0 l 242 710 l 290 710 l 264 558 q 370 684 310 642 q 489 726 431 726 q 585 697 549 726 l 567 654 q 481 676 535 676 q 333 603 406 676 q 236 393 260 529 l 168 0 l 117 0 z "},"Ś":{"ha":792,"x_min":117,"x_max":813,"o":"m 540 1022 l 489 1022 l 736 1239 l 813 1239 l 540 1022 m 708 814 q 529 940 681 940 q 360 888 422 940 q 297 747 297 835 q 340 644 297 688 q 442 571 382 600 q 561 509 501 542 q 663 419 621 476 q 706 283 706 363 q 615 65 706 146 q 388 -17 525 -17 q 209 42 281 -17 q 117 188 138 100 l 168 204 q 248 78 189 125 q 393 32 307 32 q 577 97 503 32 q 651 274 651 163 q 609 395 651 344 q 507 477 567 446 q 388 540 447 508 q 285 622 328 571 q 243 746 243 674 q 322 919 243 849 q 531 989 401 989 q 686 945 624 989 q 760 828 749 901 l 708 814 z "},"ś":{"ha":599,"x_min":88,"x_max":681,"o":"m 408 800 l 357 800 l 604 1017 l 681 1017 l 408 800 m 300 -17 q 88 90 164 -17 l 128 122 q 303 31 194 31 q 431 72 383 31 q 478 188 478 113 q 445 274 478 239 q 366 329 413 308 q 272 372 319 350 q 192 435 225 394 q 160 536 160 476 q 224 671 160 615 q 389 726 288 726 q 575 639 507 726 l 536 608 q 383 679 476 679 q 258 638 306 679 q 210 536 210 597 q 242 458 210 490 q 322 404 275 425 q 417 360 369 383 q 497 294 464 336 q 529 192 529 251 q 469 40 529 96 q 300 -17 408 -17 z "},"Ŝ":{"ha":792,"x_min":117,"x_max":764,"o":"m 715 1021 l 564 1188 l 354 1021 l 300 1021 l 549 1238 l 593 1238 l 764 1021 l 715 1021 m 708 814 q 529 940 681 940 q 360 888 422 940 q 297 747 297 835 q 340 644 297 688 q 442 571 382 600 q 561 509 501 542 q 663 419 621 476 q 706 283 706 363 q 615 65 706 146 q 388 -17 525 -17 q 209 42 281 -17 q 117 188 138 100 l 168 204 q 248 78 189 125 q 393 32 307 32 q 577 97 503 32 q 651 274 651 163 q 609 395 651 344 q 507 477 567 446 q 388 540 447 508 q 285 622 328 571 q 243 746 243 674 q 322 919 243 849 q 531 989 401 989 q 686 945 624 989 q 760 828 749 901 l 708 814 z "},"ŝ":{"ha":599,"x_min":88,"x_max":632,"o":"m 583 799 l 432 965 l 222 799 l 168 799 l 417 1015 l 461 1015 l 632 799 l 583 799 m 300 -17 q 88 90 164 -17 l 128 122 q 303 31 194 31 q 431 72 383 31 q 478 188 478 113 q 445 274 478 239 q 366 329 413 308 q 272 372 319 350 q 192 435 225 394 q 160 536 160 476 q 224 671 160 615 q 389 726 288 726 q 575 639 507 726 l 536 608 q 383 679 476 679 q 258 638 306 679 q 210 536 210 597 q 242 458 210 490 q 322 404 275 425 q 417 360 369 383 q 497 294 464 336 q 529 192 529 251 q 469 40 529 96 q 300 -17 408 -17 z "},"Ş":{"ha":792,"x_min":117,"x_max":760,"o":"m 329 -325 q 238 -286 267 -325 l 276 -261 q 335 -285 300 -285 q 410 -257 382 -285 q 439 -187 439 -229 q 418 -136 439 -156 q 363 -117 397 -117 q 308 -128 332 -117 l 297 -111 l 381 -17 q 206 43 276 -15 q 117 188 136 101 l 168 204 q 248 78 189 125 q 393 32 307 32 q 577 97 503 32 q 651 274 651 163 q 609 395 651 344 q 507 477 567 446 q 388 540 447 508 q 285 622 328 571 q 243 746 243 674 q 322 919 243 849 q 531 989 401 989 q 686 945 624 989 q 760 828 749 901 l 708 814 q 529 940 681 940 q 360 888 422 940 q 297 747 297 835 q 340 644 297 688 q 442 571 382 600 q 561 509 501 542 q 663 419 621 476 q 706 283 706 363 q 626 75 706 154 q 419 -15 546 -4 l 371 -82 q 458 -111 428 -82 q 488 -182 488 -140 q 443 -283 488 -240 q 329 -325 399 -325 z "},"ş":{"ha":599,"x_min":88,"x_max":575,"o":"m 226 -325 q 135 -286 164 -325 l 174 -261 q 232 -285 197 -285 q 308 -257 279 -285 q 336 -187 336 -229 q 315 -136 336 -156 q 260 -117 294 -117 q 206 -128 229 -117 l 194 -111 l 279 -15 q 88 90 158 -7 l 128 122 q 303 31 194 31 q 431 72 383 31 q 478 188 478 113 q 445 274 478 239 q 366 329 413 308 q 272 372 319 350 q 192 435 225 394 q 160 536 160 476 q 224 671 160 615 q 389 726 288 726 q 575 639 507 726 l 536 608 q 383 679 476 679 q 258 638 306 679 q 210 536 210 597 q 242 458 210 490 q 322 404 275 425 q 417 360 369 383 q 497 294 464 336 q 529 192 529 251 q 474 44 529 100 q 317 -17 418 -11 l 268 -82 q 355 -111 325 -82 q 385 -182 385 -140 q 340 -283 385 -240 q 226 -325 296 -325 z "},"Š":{"ha":792,"x_min":117,"x_max":807,"o":"m 558 1021 l 514 1021 l 343 1238 l 392 1238 l 542 1071 l 753 1238 l 807 1238 l 558 1021 m 708 814 q 529 940 681 940 q 360 888 422 940 q 297 747 297 835 q 340 644 297 688 q 442 571 382 600 q 561 509 501 542 q 663 419 621 476 q 706 283 706 363 q 615 65 706 146 q 388 -17 525 -17 q 209 42 281 -17 q 117 188 138 100 l 168 204 q 248 78 189 125 q 393 32 307 32 q 577 97 503 32 q 651 274 651 163 q 609 395 651 344 q 507 477 567 446 q 388 540 447 508 q 285 622 328 571 q 243 746 243 674 q 322 919 243 849 q 531 989 401 989 q 686 945 624 989 q 760 828 749 901 l 708 814 z "},"š":{"ha":599,"x_min":88,"x_max":675,"o":"m 426 799 l 382 799 l 211 1015 l 260 1015 l 410 849 l 621 1015 l 675 1015 l 426 799 m 300 -17 q 88 90 164 -17 l 128 122 q 303 31 194 31 q 431 72 383 31 q 478 188 478 113 q 445 274 478 239 q 366 329 413 308 q 272 372 319 350 q 192 435 225 394 q 160 536 160 476 q 224 671 160 615 q 389 726 288 726 q 575 639 507 726 l 536 608 q 383 679 476 679 q 258 638 306 679 q 210 536 210 597 q 242 458 210 490 q 322 404 275 425 q 417 360 369 383 q 497 294 464 336 q 529 192 529 251 q 469 40 529 96 q 300 -17 408 -17 z "},"Ţ":{"ha":746,"x_min":178,"x_max":814,"o":"m 269 -325 q 178 -286 207 -325 l 217 -261 q 275 -285 240 -285 q 351 -257 322 -285 q 379 -187 379 -229 q 358 -136 379 -156 q 303 -117 338 -117 q 249 -128 272 -117 l 238 -111 l 336 0 l 329 0 l 493 926 l 233 926 l 242 972 l 814 972 l 806 926 l 544 926 l 381 0 l 371 0 l 311 -82 q 398 -111 368 -82 q 428 -182 428 -140 q 383 -283 428 -240 q 269 -325 339 -325 z "},"ţ":{"ha":474,"x_min":101,"x_max":506,"o":"m 193 -325 q 101 -286 131 -325 l 140 -261 q 199 -285 164 -285 q 274 -257 246 -285 q 303 -187 303 -229 q 282 -136 303 -156 q 226 -117 261 -117 q 172 -128 196 -117 l 161 -111 l 249 -12 q 175 92 175 6 q 183 165 175 119 l 271 664 l 154 664 l 163 710 l 279 710 l 326 978 l 381 1003 l 329 710 l 506 710 l 497 664 l 321 664 l 233 160 q 226 97 226 122 q 294 32 226 32 q 401 65 344 32 l 386 13 q 282 -17 335 -17 l 235 -82 q 322 -111 292 -82 q 351 -182 351 -140 q 307 -283 351 -240 q 193 -325 263 -325 z "},"Ť":{"ha":746,"x_min":233,"x_max":814,"o":"m 558 1021 l 514 1021 l 343 1238 l 392 1238 l 542 1071 l 753 1238 l 807 1238 l 558 1021 m 544 926 l 381 0 l 329 0 l 493 926 l 233 926 l 242 972 l 814 972 l 806 926 l 544 926 z "},"ť":{"ha":474,"x_min":154,"x_max":596,"o":"m 596 1165 l 592 1140 q 464 849 554 944 l 451 860 q 546 1165 510 954 l 596 1165 m 286 -17 q 203 13 231 -17 q 175 92 175 42 q 183 165 175 119 l 271 664 l 154 664 l 163 710 l 279 710 l 326 978 l 381 1003 l 329 710 l 506 710 l 497 664 l 321 664 l 233 160 q 226 97 226 122 q 294 32 226 32 q 401 65 344 32 l 386 13 q 286 -17 335 -17 z "},"Ŧ":{"ha":746,"x_min":200,"x_max":814,"o":"m 329 0 l 403 417 l 200 417 l 208 463 l 411 463 l 493 926 l 233 926 l 242 972 l 814 972 l 806 926 l 544 926 l 463 463 l 664 463 l 656 417 l 454 417 l 381 0 l 329 0 z "},"ŧ":{"ha":474,"x_min":100,"x_max":506,"o":"m 286 -17 q 203 13 231 -17 q 175 92 175 42 q 183 165 175 119 l 215 351 l 100 351 l 108 397 l 224 397 l 271 664 l 154 664 l 163 710 l 279 710 l 326 978 l 381 1003 l 329 710 l 506 710 l 497 664 l 321 664 l 274 397 l 450 397 l 442 351 l 267 351 l 233 160 q 226 97 226 122 q 294 32 226 32 q 401 65 344 32 l 386 13 q 286 -17 335 -17 z "},"Ũ":{"ha":886,"x_min":168,"x_max":892,"o":"m 729 1057 q 651 1085 689 1057 q 579 1142 614 1114 q 513 1169 544 1169 q 422 1063 446 1169 l 383 1063 q 431 1174 396 1132 q 524 1215 467 1215 q 601 1187 564 1215 q 674 1131 639 1158 q 740 1103 708 1103 q 831 1210 807 1103 l 869 1210 q 822 1099 857 1140 q 729 1057 786 1057 m 424 -17 q 238 49 308 -17 q 168 249 168 115 q 179 364 168 297 l 286 972 l 339 972 l 233 374 q 222 257 222 314 q 240 143 222 190 q 290 74 258 96 q 354 42 322 51 q 424 32 386 32 q 732 349 676 32 l 840 972 l 892 972 l 783 346 q 424 -17 721 -17 z "},"ũ":{"ha":739,"x_min":149,"x_max":756,"o":"m 615 835 q 538 863 575 835 q 465 919 500 892 q 399 947 431 947 q 308 840 332 947 l 269 840 q 317 951 282 910 q 410 993 353 993 q 488 965 450 993 q 560 908 525 936 q 626 881 594 881 q 717 988 693 881 l 756 988 q 708 876 743 918 q 615 835 672 835 m 538 0 l 558 122 q 339 -17 478 -17 q 197 33 246 -17 q 149 179 149 83 q 158 276 149 215 l 235 710 l 285 710 l 208 265 q 200 179 200 219 q 347 29 200 29 q 499 94 433 29 q 589 297 564 158 l 660 710 l 711 710 l 586 0 l 538 0 z "},"Ū":{"ha":886,"x_min":168,"x_max":892,"o":"m 379 1086 l 388 1132 l 846 1132 l 838 1086 l 379 1086 m 424 -17 q 238 49 308 -17 q 168 249 168 115 q 179 364 168 297 l 286 972 l 339 972 l 233 374 q 222 257 222 314 q 240 143 222 190 q 290 74 258 96 q 354 42 322 51 q 424 32 386 32 q 732 349 676 32 l 840 972 l 892 972 l 783 346 q 424 -17 721 -17 z "},"ū":{"ha":739,"x_min":149,"x_max":732,"o":"m 265 864 l 274 910 l 732 910 l 724 864 l 265 864 m 538 0 l 558 122 q 339 -17 478 -17 q 197 33 246 -17 q 149 179 149 83 q 158 276 149 215 l 235 710 l 285 710 l 208 265 q 200 179 200 219 q 347 29 200 29 q 499 94 433 29 q 589 297 564 158 l 660 710 l 711 710 l 586 0 l 538 0 z "},"Ŭ":{"ha":886,"x_min":168,"x_max":892,"o":"m 597 1028 q 445 1080 496 1028 q 394 1213 394 1132 q 396 1251 394 1238 l 442 1251 q 440 1213 440 1238 q 484 1108 440 1143 q 600 1074 528 1074 q 742 1119 682 1074 q 819 1251 803 1165 l 867 1251 q 781 1090 849 1151 q 597 1028 714 1028 m 424 -17 q 238 49 308 -17 q 168 249 168 115 q 179 364 168 297 l 286 972 l 339 972 l 233 374 q 222 257 222 314 q 240 143 222 190 q 290 74 258 96 q 354 42 322 51 q 424 32 386 32 q 732 349 676 32 l 840 972 l 892 972 l 783 346 q 424 -17 721 -17 z "},"ŭ":{"ha":739,"x_min":149,"x_max":753,"o":"m 483 806 q 331 858 382 806 q 281 990 281 910 q 282 1029 281 1015 l 328 1029 q 326 990 326 1015 q 370 886 326 921 q 486 851 414 851 q 628 897 568 851 q 706 1029 689 943 l 753 1029 q 667 867 735 929 q 483 806 600 806 m 538 0 l 558 122 q 339 -17 478 -17 q 197 33 246 -17 q 149 179 149 83 q 158 276 149 215 l 235 710 l 285 710 l 208 265 q 200 179 200 219 q 347 29 200 29 q 499 94 433 29 q 589 297 564 158 l 660 710 l 711 710 l 586 0 l 538 0 z "},"Ů":{"ha":886,"x_min":168,"x_max":892,"o":"m 600 1019 q 497 1060 539 1019 q 456 1158 456 1100 q 507 1283 456 1233 q 635 1332 558 1332 q 738 1291 697 1332 q 779 1193 779 1250 q 728 1069 779 1118 q 600 1019 676 1019 m 600 1063 q 694 1099 656 1063 q 732 1193 732 1136 q 704 1262 732 1235 q 635 1289 676 1289 q 542 1252 581 1289 q 503 1158 503 1215 q 531 1089 503 1115 q 600 1063 560 1063 m 424 -17 q 238 49 308 -17 q 168 249 168 115 q 179 364 168 297 l 286 972 l 339 972 l 233 374 q 222 257 222 314 q 240 143 222 190 q 290 74 258 96 q 354 42 322 51 q 424 32 386 32 q 732 349 676 32 l 840 972 l 892 972 l 783 346 q 424 -17 721 -17 z "},"ů":{"ha":739,"x_min":149,"x_max":711,"o":"m 486 797 q 383 838 425 797 q 342 936 342 878 q 393 1060 342 1011 q 521 1110 444 1110 q 624 1069 583 1110 q 665 971 665 1028 q 614 847 665 896 q 486 797 563 797 m 486 840 q 580 877 542 840 q 618 971 618 914 q 590 1040 618 1013 q 521 1067 563 1067 q 428 1030 467 1067 q 389 936 389 993 q 417 867 389 893 q 486 840 446 840 m 538 0 l 558 122 q 339 -17 478 -17 q 197 33 246 -17 q 149 179 149 83 q 158 276 149 215 l 235 710 l 285 710 l 208 265 q 200 179 200 219 q 347 29 200 29 q 499 94 433 29 q 589 297 564 158 l 660 710 l 711 710 l 586 0 l 538 0 z "},"Ű":{"ha":886,"x_min":168,"x_max":1006,"o":"m 406 1021 l 654 1238 l 731 1238 l 457 1021 l 406 1021 m 681 1021 l 929 1238 l 1006 1238 l 732 1021 l 681 1021 m 424 -17 q 238 49 308 -17 q 168 249 168 115 q 179 364 168 297 l 286 972 l 339 972 l 233 374 q 222 257 222 314 q 240 143 222 190 q 290 74 258 96 q 354 42 322 51 q 424 32 386 32 q 732 349 676 32 l 840 972 l 892 972 l 783 346 q 424 -17 721 -17 z "},"ű":{"ha":739,"x_min":149,"x_max":892,"o":"m 292 799 l 540 1015 l 617 1015 l 343 799 l 292 799 m 567 799 l 815 1015 l 892 1015 l 618 799 l 567 799 m 538 0 l 558 122 q 339 -17 478 -17 q 197 33 246 -17 q 149 179 149 83 q 158 276 149 215 l 235 710 l 285 710 l 208 265 q 200 179 200 219 q 347 29 200 29 q 499 94 433 29 q 589 297 564 158 l 660 710 l 711 710 l 586 0 l 538 0 z "},"Ų":{"ha":886,"x_min":168,"x_max":892,"o":"m 419 -325 q 338 -297 369 -325 q 307 -217 307 -269 q 349 -103 307 -157 q 464 -14 392 -50 q 424 -17 439 -17 q 238 49 308 -17 q 168 249 168 115 q 179 364 168 297 l 286 972 l 339 972 l 233 374 q 222 257 222 314 q 240 143 222 190 q 290 74 258 96 q 354 42 322 51 q 424 32 386 32 q 732 349 676 32 l 840 972 l 892 972 l 783 346 q 551 0 738 72 q 354 -210 354 -78 q 375 -266 354 -247 q 426 -285 396 -285 q 522 -240 478 -285 l 551 -264 q 419 -325 493 -325 z "},"ų":{"ha":739,"x_min":149,"x_max":711,"o":"m 461 -325 q 380 -297 411 -325 q 349 -217 349 -269 q 401 -92 349 -150 q 538 0 453 -35 l 558 122 q 339 -17 478 -17 q 197 33 246 -17 q 149 179 149 83 q 158 276 149 215 l 235 710 l 285 710 l 208 265 q 200 179 200 219 q 347 29 200 29 q 499 94 433 29 q 589 297 564 158 l 660 710 l 711 710 l 586 0 q 396 -210 396 -83 q 417 -266 396 -247 q 468 -285 438 -285 q 564 -240 519 -285 l 593 -264 q 461 -325 535 -325 z "},"Ŵ":{"ha":1128,"x_min":224,"x_max":1185,"o":"m 892 1021 l 740 1188 l 531 1021 l 476 1021 l 725 1238 l 769 1238 l 940 1021 l 892 1021 m 288 0 l 224 972 l 279 972 l 326 217 q 328 171 326 201 q 332 124 331 140 l 369 217 l 682 972 l 724 972 l 779 217 q 783 170 781 201 q 786 124 785 139 l 824 217 l 1131 972 l 1185 972 l 788 0 l 744 0 l 690 726 l 682 846 q 660 790 676 831 q 633 726 643 749 l 332 0 l 288 0 z "},"ŵ":{"ha":942,"x_min":171,"x_max":976,"o":"m 771 799 l 619 965 l 410 799 l 356 799 l 604 1015 l 649 1015 l 819 799 l 771 799 m 225 0 l 171 710 l 221 710 l 254 193 q 258 142 256 175 q 261 92 260 108 q 287 149 269 113 q 308 193 304 185 l 554 710 l 590 710 l 658 193 l 671 94 q 711 193 700 169 l 925 710 l 976 710 l 678 0 l 640 0 l 565 542 q 560 576 564 551 q 556 615 557 601 q 522 542 544 589 l 263 0 l 225 0 z "},"Ŷ":{"ha":806,"x_min":214,"x_max":882,"o":"m 740 1021 l 589 1188 l 379 1021 l 325 1021 l 574 1238 l 618 1238 l 789 1021 l 740 1021 m 354 0 l 422 385 l 214 972 l 265 972 l 453 438 l 825 972 l 882 972 l 472 385 l 404 0 l 354 0 z "},"ŷ":{"ha":674,"x_min":136,"x_max":714,"o":"m 633 799 l 482 965 l 272 799 l 218 799 l 467 1015 l 511 1015 l 682 799 l 633 799 m 136 -269 l 290 19 l 165 710 l 214 710 l 300 224 l 325 79 q 400 224 350 129 l 660 710 l 714 710 l 189 -269 l 136 -269 z "},"Ÿ":{"ha":806,"x_min":214,"x_max":882,"o":"m 453 1086 q 429 1097 439 1086 q 419 1122 419 1107 q 435 1155 421 1140 q 469 1169 450 1169 q 494 1159 485 1169 q 503 1132 503 1149 q 487 1099 501 1113 q 453 1086 472 1086 m 683 1086 q 660 1097 669 1086 q 650 1122 650 1107 q 666 1155 651 1140 q 700 1169 681 1169 q 724 1159 715 1169 q 733 1132 733 1149 q 717 1099 732 1113 q 683 1086 703 1086 m 354 0 l 422 385 l 214 972 l 265 972 l 453 438 l 825 972 l 882 972 l 472 385 l 404 0 l 354 0 z "},"Ź":{"ha":799,"x_min":61,"x_max":860,"o":"m 561 1022 l 510 1022 l 757 1239 l 833 1239 l 561 1022 m 61 0 l 67 26 l 785 926 l 257 926 l 264 972 l 860 972 l 854 943 l 138 46 l 694 46 l 689 0 l 61 0 z "},"ź":{"ha":660,"x_min":68,"x_max":726,"o":"m 454 800 l 403 800 l 650 1017 l 726 1017 l 454 800 m 68 0 l 74 31 l 593 664 l 213 664 l 221 710 l 672 710 l 667 681 l 146 46 l 554 46 l 547 0 l 68 0 z "},"Ż":{"ha":799,"x_min":61,"x_max":860,"o":"m 560 1063 q 536 1073 546 1063 q 526 1099 526 1083 q 542 1131 528 1117 q 576 1146 557 1146 q 601 1135 592 1146 q 610 1108 610 1125 q 594 1076 608 1089 q 560 1063 579 1063 m 61 0 l 67 26 l 785 926 l 257 926 l 264 972 l 860 972 l 854 943 l 138 46 l 694 46 l 689 0 l 61 0 z "},"ż":{"ha":660,"x_min":68,"x_max":672,"o":"m 453 840 q 429 851 439 840 q 419 876 419 861 q 435 909 421 894 q 469 924 450 924 q 494 913 485 924 q 503 886 503 903 q 487 853 501 867 q 453 840 472 840 m 68 0 l 74 31 l 593 664 l 213 664 l 221 710 l 672 710 l 667 681 l 146 46 l 554 46 l 547 0 l 68 0 z "},"Ž":{"ha":799,"x_min":61,"x_max":860,"o":"m 579 1021 l 535 1021 l 364 1238 l 413 1238 l 563 1071 l 774 1238 l 828 1238 l 579 1021 m 61 0 l 67 26 l 785 926 l 257 926 l 264 972 l 860 972 l 854 943 l 138 46 l 694 46 l 689 0 l 61 0 z "},"ž":{"ha":660,"x_min":68,"x_max":721,"o":"m 472 799 l 428 799 l 257 1015 l 306 1015 l 456 849 l 667 1015 l 721 1015 l 472 799 m 68 0 l 74 31 l 593 664 l 213 664 l 221 710 l 672 710 l 667 681 l 146 46 l 554 46 l 547 0 l 68 0 z "},"ſ":{"ha":389,"x_min":113,"x_max":497,"o":"m 113 0 l 260 838 q 414 989 288 989 q 497 967 460 989 l 489 922 q 411 943 447 943 q 342 917 365 943 q 310 832 319 890 l 164 0 l 113 0 z "},"ƒ":{"ha":425,"x_min":-65,"x_max":542,"o":"m -47 -296 l -65 -253 q 74 -204 26 -246 q 139 -71 122 -162 l 267 664 l 154 664 l 163 710 l 276 710 l 299 838 q 463 989 324 989 q 542 967 504 989 l 535 922 q 453 943 490 943 q 383 917 406 943 q 349 832 360 890 l 328 710 l 497 710 l 489 664 l 318 664 l 190 -68 q 108 -236 171 -186 q -47 -296 46 -286 z "},"Ǎ":{"ha":886,"x_min":81,"x_max":874,"o":"m 625 1021 l 581 1021 l 410 1238 l 458 1238 l 608 1071 l 819 1238 l 874 1238 l 625 1021 m 81 0 l 574 972 l 610 972 l 767 0 l 715 0 l 669 274 l 275 274 l 136 0 l 81 0 m 294 315 l 664 315 l 600 733 q 576 889 583 825 q 506 733 572 878 l 294 315 z "},"ǎ":{"ha":690,"x_min":107,"x_max":747,"o":"m 499 799 l 454 799 l 283 1015 l 332 1015 l 482 849 l 693 1015 l 747 1015 l 499 799 m 515 0 l 533 104 q 293 -17 424 -17 q 157 35 207 -17 q 107 181 107 88 q 188 369 107 297 q 385 440 269 440 q 579 368 493 440 l 596 458 q 606 547 606 518 q 471 681 606 681 q 247 610 374 681 l 238 654 q 472 726 372 726 q 656 549 656 726 q 647 469 656 522 l 565 0 l 515 0 m 296 29 q 544 169 422 29 l 572 324 q 382 393 482 393 q 228 334 292 393 q 164 181 164 275 q 199 70 164 111 q 296 29 235 29 z "},"Ǐ":{"ha":328,"x_min":121,"x_max":599,"o":"m 350 1021 l 306 1021 l 135 1238 l 183 1238 l 333 1071 l 544 1238 l 599 1238 l 350 1021 m 121 0 l 292 972 l 343 972 l 172 0 l 121 0 z "},"ǐ":{"ha":317,"x_min":94,"x_max":558,"o":"m 310 799 l 265 799 l 94 1015 l 143 1015 l 293 849 l 504 1015 l 558 1015 l 310 799 m 119 0 l 244 710 l 293 710 l 169 0 l 119 0 z "},"Ǒ":{"ha":967,"x_min":160,"x_max":925,"o":"m 656 1021 l 611 1021 l 440 1238 l 489 1238 l 639 1071 l 850 1238 l 904 1238 l 656 1021 m 463 -17 q 288 42 358 -17 q 189 185 218 100 q 160 375 160 271 q 176 541 160 457 q 231 706 193 625 q 321 849 268 786 q 453 951 374 913 q 628 989 533 989 q 853 880 782 989 q 925 604 925 771 q 898 393 925 499 q 817 194 871 288 q 672 42 764 100 q 463 -17 579 -17 m 469 33 q 622 69 553 33 q 737 165 692 106 q 813 299 782 224 q 858 452 844 375 q 872 606 872 529 q 812 845 872 751 q 621 939 751 939 q 468 903 538 939 q 353 808 399 867 q 274 674 307 750 q 228 522 242 599 q 214 369 214 444 q 238 202 214 275 q 320 81 261 129 q 469 33 379 33 z "},"ǒ":{"ha":722,"x_min":128,"x_max":756,"o":"m 507 799 l 463 799 l 292 1015 l 340 1015 l 490 849 l 701 1015 l 756 1015 l 507 799 m 351 -17 q 187 56 246 -17 q 128 268 128 128 q 222 603 128 479 q 468 726 315 726 q 635 653 575 726 q 694 446 694 579 q 603 109 694 235 q 351 -17 511 -17 m 360 33 q 565 145 489 33 q 640 438 640 257 q 594 614 640 551 q 464 676 549 676 q 256 563 331 676 q 182 267 182 449 q 227 94 182 156 q 360 33 272 33 z "},"Ǔ":{"ha":886,"x_min":168,"x_max":892,"o":"m 622 1021 l 578 1021 l 407 1238 l 456 1238 l 606 1071 l 817 1238 l 871 1238 l 622 1021 m 424 -17 q 238 49 308 -17 q 168 249 168 115 q 179 364 168 297 l 286 972 l 339 972 l 233 374 q 222 257 222 314 q 240 143 222 190 q 290 74 258 96 q 354 42 322 51 q 424 32 386 32 q 732 349 676 32 l 840 972 l 892 972 l 783 346 q 424 -17 721 -17 z "},"ǔ":{"ha":739,"x_min":149,"x_max":757,"o":"m 508 799 l 464 799 l 293 1015 l 342 1015 l 492 849 l 703 1015 l 757 1015 l 508 799 m 538 0 l 558 122 q 339 -17 478 -17 q 197 33 246 -17 q 149 179 149 83 q 158 276 149 215 l 235 710 l 285 710 l 208 265 q 200 179 200 219 q 347 29 200 29 q 499 94 433 29 q 589 297 564 158 l 660 710 l 711 710 l 586 0 l 538 0 z "},"Ǽ":{"ha":1151,"x_min":-26,"x_max":1169,"o":"m 790 1022 l 739 1022 l 986 1239 l 1063 1239 l 790 1022 m -26 0 l 706 972 l 1169 972 l 1163 926 l 747 926 l 676 526 l 943 526 l 935 481 l 668 481 l 592 46 l 1038 46 l 1029 0 l 532 0 l 581 274 l 240 274 l 36 0 l -26 0 m 271 315 l 588 315 l 685 871 q 633 800 665 843 l 271 315 z "},"ǽ":{"ha":1146,"x_min":107,"x_max":1129,"o":"m 703 800 l 651 800 l 899 1017 l 975 1017 l 703 800 m 299 -17 q 156 36 204 -17 q 107 181 107 89 q 190 370 107 300 q 385 440 274 440 q 579 368 494 440 l 599 475 q 606 547 606 510 q 472 681 606 681 q 247 610 378 681 l 238 654 q 474 726 375 726 q 654 572 642 726 q 769 686 701 646 q 917 726 838 726 q 1071 667 1013 726 q 1129 486 1129 608 q 1110 340 1129 439 l 631 340 q 626 265 626 303 q 808 33 626 33 q 978 96 892 33 l 1004 57 q 796 -17 907 -17 q 582 164 621 -17 q 299 -17 450 -17 m 638 386 l 1067 386 q 1076 486 1076 449 q 1029 635 1076 590 q 918 681 982 681 q 733 597 803 681 q 638 386 663 513 m 300 29 q 575 210 446 29 q 572 272 572 243 q 575 322 572 303 q 382 393 482 393 q 231 337 299 393 q 164 181 164 281 q 199 71 164 113 q 300 29 233 29 z "},"Ǿ":{"ha":967,"x_min":93,"x_max":999,"o":"m 596 1064 l 544 1064 l 792 1281 l 868 1281 l 596 1064 m 93 -17 l 215 128 q 160 375 160 229 q 176 541 160 457 q 231 706 193 625 q 321 849 268 786 q 453 951 374 913 q 628 989 533 989 q 851 883 774 989 l 940 989 l 999 989 l 875 843 q 925 604 925 744 q 898 393 925 499 q 817 194 871 288 q 672 42 764 100 q 463 -17 579 -17 q 240 89 321 -17 l 151 -17 l 93 -17 m 250 171 l 815 840 q 621 939 749 939 q 468 903 538 939 q 353 808 399 867 q 274 674 307 750 q 228 522 242 599 q 214 369 214 444 q 250 171 214 251 m 469 33 q 622 69 553 33 q 737 165 692 106 q 813 299 782 224 q 858 452 844 375 q 872 606 872 529 q 838 797 872 715 l 274 129 q 469 33 339 33 z "},"ǿ":{"ha":722,"x_min":57,"x_max":764,"o":"m 450 800 l 399 800 l 646 1017 l 722 1017 l 450 800 m 57 -17 l 158 100 q 128 268 128 169 q 222 603 128 479 q 468 726 315 726 q 636 649 575 726 l 704 726 l 764 726 l 661 608 q 694 446 694 544 q 603 109 694 235 q 351 -17 511 -17 q 183 60 242 -17 l 117 -17 l 57 -17 m 199 147 l 599 606 q 464 676 554 676 q 256 563 331 676 q 182 267 182 449 q 199 147 182 197 m 360 33 q 565 145 489 33 q 640 438 640 257 q 621 563 640 508 l 221 103 q 360 33 265 33 z "},"Ș":{"ha":792,"x_min":117,"x_max":760,"o":"m 708 814 q 529 940 681 940 q 360 888 422 940 q 297 747 297 835 q 340 644 297 688 q 442 571 382 600 q 561 509 501 542 q 663 419 621 476 q 706 283 706 363 q 615 65 706 146 q 388 -17 525 -17 q 209 42 281 -17 q 117 188 138 100 l 168 204 q 248 78 189 125 q 393 32 307 32 q 577 97 503 32 q 651 274 651 163 q 609 395 651 344 q 507 477 567 446 q 388 540 447 508 q 285 622 328 571 q 243 746 243 674 q 322 919 243 849 q 531 989 401 989 q 686 945 624 989 q 760 828 749 901 l 708 814 m 311 -340 l 299 -336 q 349 -254 326 -306 q 374 -164 372 -203 q 347 -154 357 -164 q 336 -128 336 -144 q 349 -94 336 -107 q 382 -81 361 -81 q 421 -129 421 -81 q 385 -245 421 -183 q 311 -340 350 -307 z "},"ș":{"ha":599,"x_min":88,"x_max":575,"o":"m 300 -17 q 88 90 164 -17 l 128 122 q 303 31 194 31 q 431 72 383 31 q 478 188 478 113 q 445 274 478 239 q 366 329 413 308 q 272 372 319 350 q 192 435 225 394 q 160 536 160 476 q 224 671 160 615 q 389 726 288 726 q 575 639 507 726 l 536 608 q 383 679 476 679 q 258 638 306 679 q 210 536 210 597 q 242 458 210 490 q 322 404 275 425 q 417 360 369 383 q 497 294 464 336 q 529 192 529 251 q 469 40 529 96 q 300 -17 408 -17 m 219 -340 l 207 -336 q 258 -254 235 -306 q 282 -164 281 -203 q 255 -154 265 -164 q 244 -128 244 -144 q 257 -94 244 -107 q 290 -81 269 -81 q 329 -129 329 -81 q 294 -245 329 -183 q 219 -340 258 -307 z "},"Ț":{"ha":746,"x_min":233,"x_max":814,"o":"m 544 926 l 381 0 l 329 0 l 493 926 l 233 926 l 242 972 l 814 972 l 806 926 l 544 926 m 271 -340 l 258 -336 q 309 -254 286 -306 q 333 -164 332 -203 q 306 -154 317 -164 q 296 -128 296 -144 q 308 -94 296 -107 q 342 -81 321 -81 q 381 -129 381 -81 q 345 -245 381 -183 q 271 -340 310 -307 z "},"ț":{"ha":474,"x_min":154,"x_max":506,"o":"m 286 -17 q 203 13 231 -17 q 175 92 175 42 q 183 165 175 119 l 271 664 l 154 664 l 163 710 l 279 710 l 326 978 l 381 1003 l 329 710 l 506 710 l 497 664 l 321 664 l 233 160 q 226 97 226 122 q 294 32 226 32 q 401 65 344 32 l 386 13 q 286 -17 335 -17 m 200 -340 l 188 -336 q 238 -254 215 -306 q 263 -164 261 -203 q 235 -154 246 -164 q 225 -128 225 -144 q 238 -94 225 -107 q 271 -81 250 -81 q 310 -129 310 -81 q 274 -245 310 -183 q 200 -340 239 -307 z "},"ȷ":{"ha":325,"x_min":-93,"x_max":294,"o":"m -75 -296 l -93 -253 q 46 -199 -1 -243 q 110 -56 93 -156 l 244 710 l 294 710 l 161 -56 q 78 -235 138 -183 q -75 -296 18 -286 z "},"ˆ":{"ha":432,"x_min":94,"x_max":558,"o":"m 510 800 l 358 967 l 149 800 l 94 800 l 343 1017 l 388 1017 l 558 800 l 510 800 z "},"ˇ":{"ha":432,"x_min":138,"x_max":601,"o":"m 353 800 l 308 800 l 138 1017 l 186 1017 l 336 850 l 547 1017 l 601 1017 l 353 800 z "},"ˉ":{"ha":432,"x_min":110,"x_max":576,"o":"m 110 865 l 118 911 l 576 911 l 568 865 l 110 865 z "},"˘":{"ha":432,"x_min":131,"x_max":603,"o":"m 333 807 q 181 859 232 807 q 131 992 131 911 q 132 1031 131 1017 l 178 1031 q 176 992 176 1017 q 220 888 176 922 q 336 853 264 853 q 478 899 418 853 q 556 1031 539 944 l 603 1031 q 517 869 585 931 q 333 807 450 807 z "},"˙":{"ha":432,"x_min":301,"x_max":385,"o":"m 335 842 q 311 852 321 842 q 301 878 301 863 q 317 910 303 896 q 351 925 332 925 q 376 915 367 925 q 385 888 385 904 q 369 855 383 868 q 335 842 354 842 z "},"˚":{"ha":432,"x_min":183,"x_max":507,"o":"m 328 750 q 225 790 267 750 q 183 889 183 831 q 235 1013 183 964 q 363 1063 286 1063 q 466 1022 425 1063 q 507 924 507 981 q 456 799 507 849 q 328 750 404 750 m 328 793 q 422 830 383 793 q 460 924 460 867 q 432 992 460 965 q 363 1019 404 1019 q 269 983 308 1019 q 231 889 231 946 q 259 819 231 846 q 328 793 288 793 z "},"˛":{"ha":432,"x_min":-51,"x_max":219,"o":"m 61 -325 q -20 -297 11 -325 q -51 -217 -51 -269 q 12 -81 -51 -143 q 175 14 75 -18 l 219 14 q -4 -210 -4 -74 q 17 -266 -4 -247 q 68 -285 38 -285 q 164 -240 119 -285 l 193 -264 q 61 -325 135 -325 z "},"˜":{"ha":432,"x_min":101,"x_max":588,"o":"m 447 836 q 384 853 415 836 q 333 892 353 871 q 285 931 313 914 q 231 949 257 949 q 140 842 164 949 l 101 842 q 149 953 114 911 q 242 994 185 994 q 305 977 274 994 q 356 938 336 960 q 404 899 376 917 q 458 882 432 882 q 549 989 525 882 l 588 989 q 540 878 575 919 q 447 836 504 836 z "},"˝":{"ha":432,"x_min":208,"x_max":808,"o":"m 208 800 l 457 1017 l 533 1017 l 260 800 l 208 800 m 483 800 l 732 1017 l 808 1017 l 535 800 l 483 800 z "},"̒":{"ha":0,"x_min":-136,"x_max":-14,"o":"m -97 838 q -136 886 -136 838 q -101 1002 -136 940 q -26 1097 -65 1064 l -14 1093 q -65 1011 -42 1063 q -89 921 -87 960 q -62 911 -72 921 q -51 885 -51 901 q -64 851 -51 864 q -97 838 -76 838 z "},"̦":{"ha":0,"x_min":-308,"x_max":-186,"o":"m -296 -340 l -308 -336 q -258 -254 -281 -306 q -233 -164 -235 -203 q -260 -154 -250 -164 q -271 -128 -271 -144 q -258 -94 -271 -107 q -225 -81 -246 -81 q -186 -129 -186 -81 q -222 -245 -186 -183 q -296 -340 -257 -307 z "},"Ω":{"ha":992,"x_min":81,"x_max":960,"o":"m 571 0 l 581 58 q 823 322 740 171 q 906 626 906 472 q 892 741 906 688 q 848 840 878 794 q 765 913 818 886 q 639 939 711 939 q 455 893 536 939 q 326 774 374 847 q 255 617 279 700 q 231 450 231 533 q 269 235 231 340 q 386 58 308 129 l 376 0 l 81 0 l 89 50 l 336 50 q 219 217 261 114 q 176 440 176 319 q 203 628 176 535 q 282 803 229 721 q 428 938 335 886 q 639 989 521 989 q 788 958 724 989 q 888 876 851 928 q 942 764 924 825 q 960 635 960 703 q 872 301 960 451 q 633 50 783 150 l 875 50 l 867 0 l 571 0 z "},"μ":{"ha":739,"x_min":61,"x_max":711,"o":"m 538 0 l 558 122 q 463 20 521 57 q 342 -17 406 -17 q 174 69 215 -17 l 118 -251 l 61 -278 l 235 710 l 285 710 l 208 265 q 200 183 200 218 q 241 61 200 93 q 347 29 282 29 q 499 94 433 29 q 589 297 565 158 l 660 710 l 711 710 l 586 0 l 538 0 z "},"π":{"ha":864,"x_min":50,"x_max":888,"o":"m 85 -28 l 50 4 q 193 153 136 57 q 288 453 250 249 l 325 660 l 190 660 l 199 710 l 888 710 l 878 660 l 703 660 l 615 160 q 608 97 608 118 q 676 32 608 32 q 783 65 726 32 l 768 13 q 668 -17 717 -17 q 585 13 614 -17 q 557 92 557 42 q 565 165 557 121 l 653 660 l 376 660 l 342 463 q 249 153 308 268 q 85 -28 189 39 z "},"Ẁ":{"ha":1128,"x_min":224,"x_max":1185,"o":"m 700 1021 l 503 1238 l 579 1238 l 751 1021 l 700 1021 m 288 0 l 224 972 l 279 972 l 326 217 q 328 171 326 201 q 332 124 331 140 l 369 217 l 682 972 l 724 972 l 779 217 q 783 170 781 201 q 786 124 785 139 l 824 217 l 1131 972 l 1185 972 l 788 0 l 744 0 l 690 726 l 682 846 q 660 790 676 831 q 633 726 643 749 l 332 0 l 288 0 z "},"ẁ":{"ha":942,"x_min":171,"x_max":976,"o":"m 579 799 l 382 1015 l 458 1015 l 631 799 l 579 799 m 225 0 l 171 710 l 221 710 l 254 193 q 258 142 256 175 q 261 92 260 108 q 287 149 269 113 q 308 193 304 185 l 554 710 l 590 710 l 658 193 l 671 94 q 711 193 700 169 l 925 710 l 976 710 l 678 0 l 640 0 l 565 542 q 560 576 564 551 q 556 615 557 601 q 522 542 544 589 l 263 0 l 225 0 z "},"Ẃ":{"ha":1128,"x_min":224,"x_max":1185,"o":"m 717 1022 l 665 1022 l 913 1239 l 989 1239 l 717 1022 m 288 0 l 224 972 l 279 972 l 326 217 q 328 171 326 201 q 332 124 331 140 l 369 217 l 682 972 l 724 972 l 779 217 q 783 170 781 201 q 786 124 785 139 l 824 217 l 1131 972 l 1185 972 l 788 0 l 744 0 l 690 726 l 682 846 q 660 790 676 831 q 633 726 643 749 l 332 0 l 288 0 z "},"ẃ":{"ha":942,"x_min":171,"x_max":976,"o":"m 596 800 l 544 800 l 792 1017 l 868 1017 l 596 800 m 225 0 l 171 710 l 221 710 l 254 193 q 258 142 256 175 q 261 92 260 108 q 287 149 269 113 q 308 193 304 185 l 554 710 l 590 710 l 658 193 l 671 94 q 711 193 700 169 l 925 710 l 976 710 l 678 0 l 640 0 l 565 542 q 560 576 564 551 q 556 615 557 601 q 522 542 544 589 l 263 0 l 225 0 z "},"Ẅ":{"ha":1128,"x_min":224,"x_max":1185,"o":"m 604 1086 q 581 1097 590 1086 q 571 1122 571 1107 q 587 1155 572 1140 q 621 1169 601 1169 q 645 1159 636 1169 q 654 1132 654 1149 q 638 1099 653 1113 q 604 1086 624 1086 m 835 1086 q 811 1097 821 1086 q 801 1122 801 1107 q 817 1155 803 1140 q 851 1169 832 1169 q 876 1159 867 1169 q 885 1132 885 1149 q 869 1099 883 1113 q 835 1086 854 1086 m 288 0 l 224 972 l 279 972 l 326 217 q 328 171 326 201 q 332 124 331 140 l 369 217 l 682 972 l 724 972 l 779 217 q 783 170 781 201 q 786 124 785 139 l 824 217 l 1131 972 l 1185 972 l 788 0 l 744 0 l 690 726 l 682 846 q 660 790 676 831 q 633 726 643 749 l 332 0 l 288 0 z "},"ẅ":{"ha":942,"x_min":171,"x_max":976,"o":"m 483 864 q 460 874 469 864 q 450 900 450 885 q 466 933 451 918 q 500 947 481 947 q 524 937 515 947 q 533 910 533 926 q 517 877 532 890 q 483 864 503 864 m 714 864 q 690 874 700 864 q 681 900 681 885 q 697 933 682 918 q 731 947 711 947 q 755 937 746 947 q 764 910 764 926 q 748 877 763 890 q 714 864 733 864 m 225 0 l 171 710 l 221 710 l 254 193 q 258 142 256 175 q 261 92 260 108 q 287 149 269 113 q 308 193 304 185 l 554 710 l 590 710 l 658 193 l 671 94 q 711 193 700 169 l 925 710 l 976 710 l 678 0 l 640 0 l 565 542 q 560 576 564 551 q 556 615 557 601 q 522 542 544 589 l 263 0 l 225 0 z "},"Ỳ":{"ha":806,"x_min":214,"x_max":882,"o":"m 549 1021 l 351 1238 l 428 1238 l 600 1021 l 549 1021 m 354 0 l 422 385 l 214 972 l 265 972 l 453 438 l 825 972 l 882 972 l 472 385 l 404 0 l 354 0 z "},"ỳ":{"ha":674,"x_min":136,"x_max":714,"o":"m 442 799 l 244 1015 l 321 1015 l 493 799 l 442 799 m 136 -269 l 290 19 l 165 710 l 214 710 l 300 224 l 325 79 q 400 224 350 129 l 660 710 l 714 710 l 189 -269 l 136 -269 z "},"–":{"ha":696,"x_min":135,"x_max":672,"o":"m 135 374 l 143 424 l 672 424 l 664 374 l 135 374 z "},"—":{"ha":807,"x_min":49,"x_max":869,"o":"m 49 374 l 57 424 l 869 424 l 861 374 l 49 374 z "},"―":{"ha":807,"x_min":49,"x_max":869,"o":"m 49 374 l 57 424 l 869 424 l 861 374 l 49 374 z "},"‘":{"ha":253,"x_min":186,"x_max":308,"o":"m 225 729 q 186 778 186 729 q 222 894 186 832 q 296 989 257 956 l 308 985 q 258 903 281 954 q 233 813 235 851 q 260 803 250 813 q 271 776 271 793 q 258 742 271 756 q 225 729 244 729 z "},"’":{"ha":253,"x_min":183,"x_max":306,"o":"m 196 729 l 183 733 q 234 815 211 764 q 258 906 257 867 q 231 915 242 906 q 221 942 221 925 q 234 976 221 963 q 267 989 247 989 q 306 940 306 989 q 270 824 306 886 q 196 729 235 763 z "},"‚":{"ha":253,"x_min":54,"x_max":176,"o":"m 67 -196 l 54 -192 q 106 -108 82 -161 q 129 -19 129 -54 q 102 -10 113 -19 q 92 17 92 0 q 104 51 92 38 q 138 64 117 64 q 176 15 176 64 q 141 -101 176 -39 q 67 -196 106 -162 z "},"‛":{"ha":253,"x_min":208,"x_max":303,"o":"m 251 729 q 208 888 208 783 q 224 960 208 932 q 267 989 240 989 q 293 978 283 989 q 303 954 303 968 q 288 919 303 933 q 251 906 272 906 q 243 842 243 883 q 264 733 243 771 l 251 729 z "},"“":{"ha":497,"x_min":186,"x_max":553,"o":"m 225 729 q 186 778 186 729 q 222 894 186 832 q 296 989 257 956 l 308 985 q 258 902 281 954 q 233 813 235 850 q 260 803 250 813 q 271 776 271 793 q 258 742 271 756 q 225 729 244 729 m 469 729 q 431 778 431 729 q 466 894 431 832 q 540 989 501 956 l 553 985 q 502 902 525 954 q 478 813 479 850 q 505 803 494 813 q 515 776 515 793 q 502 742 515 756 q 469 729 489 729 z "},"”":{"ha":497,"x_min":183,"x_max":550,"o":"m 196 729 l 183 733 q 234 815 211 764 q 258 906 257 867 q 231 915 242 906 q 221 942 221 925 q 234 976 221 963 q 267 989 247 989 q 306 940 306 989 q 270 824 306 886 q 196 729 235 763 m 440 729 l 428 733 q 478 815 456 764 q 503 906 501 867 q 476 915 486 906 q 465 942 465 925 q 478 976 465 963 q 511 989 492 989 q 550 940 550 989 q 515 824 550 886 q 440 729 479 763 z "},"„":{"ha":497,"x_min":51,"x_max":418,"o":"m 64 -196 l 51 -192 q 102 -110 79 -161 q 126 -19 125 -58 q 99 -10 110 -19 q 89 17 89 0 q 102 51 89 38 q 135 64 115 64 q 174 15 174 64 q 138 -101 174 -39 q 64 -196 103 -162 m 308 -196 l 296 -192 q 347 -110 324 -161 q 371 -19 369 -58 q 344 -10 354 -19 q 333 17 333 0 q 347 51 333 38 q 379 64 360 64 q 418 15 418 64 q 383 -101 418 -39 q 308 -196 347 -162 z "},"†":{"ha":744,"x_min":211,"x_max":736,"o":"m 486 644 l 467 469 l 329 -196 l 319 -196 l 415 469 l 457 644 l 260 632 l 211 632 l 221 679 l 269 679 l 461 667 l 476 815 l 506 989 l 557 989 l 528 815 l 490 667 l 688 679 l 736 679 l 726 632 l 678 632 l 486 644 z "},"‡":{"ha":744,"x_min":121,"x_max":735,"o":"m 596 161 l 644 161 l 635 114 l 586 114 l 394 126 l 379 -22 l 350 -196 l 300 -196 l 329 -22 l 367 126 l 169 114 l 121 114 l 131 161 l 179 161 l 371 149 l 390 324 l 415 469 l 458 644 l 260 632 l 211 632 l 221 679 l 269 679 l 461 667 l 476 815 l 507 989 l 557 989 l 526 815 l 489 667 l 686 679 l 735 679 l 725 632 l 676 632 l 486 644 l 465 469 l 440 324 l 399 149 l 596 161 z "},"•":{"ha":544,"x_min":211,"x_max":460,"o":"m 314 367 q 240 397 269 367 q 211 469 211 426 q 255 567 211 526 q 356 608 299 608 q 431 578 401 608 q 460 506 460 549 q 415 408 460 449 q 314 367 371 367 z "},"…":{"ha":1106,"x_min":142,"x_max":957,"o":"m 175 -19 q 151 -9 161 -19 q 142 17 142 1 q 158 49 143 35 q 192 64 172 64 q 216 53 207 64 q 225 26 225 43 q 209 -6 224 7 q 175 -19 194 -19 m 542 -19 q 518 -9 528 -19 q 508 17 508 1 q 524 49 510 35 q 558 64 539 64 q 583 53 574 64 q 592 26 592 43 q 576 -6 590 7 q 542 -19 561 -19 m 907 -19 q 883 -9 893 -19 q 874 17 874 1 q 890 49 875 35 q 924 64 904 64 q 948 53 939 64 q 957 26 957 43 q 941 -6 956 7 q 907 -19 926 -19 z "},"‰":{"ha":1750,"x_min":190,"x_max":1700,"o":"m 369 494 q 235 552 281 494 q 190 692 190 610 q 215 822 190 757 q 301 938 240 888 q 447 989 363 989 q 581 929 538 989 q 624 789 624 869 q 609 689 624 739 q 565 594 594 639 q 485 522 536 550 q 369 494 435 494 m 282 -17 l 222 -17 l 1063 989 l 1122 989 l 282 -17 m 374 544 q 519 619 468 544 q 571 782 571 693 q 540 892 571 846 q 443 939 508 939 q 297 862 349 939 q 244 699 244 785 q 276 589 244 633 q 374 544 307 544 m 899 -17 q 764 41 808 -17 q 719 181 719 99 q 785 383 719 288 q 975 478 851 478 q 1108 418 1065 478 q 1151 278 1151 358 q 1137 178 1151 228 q 1093 83 1122 128 q 1013 11 1064 39 q 899 -17 963 -17 m 1447 -17 q 1313 41 1357 -17 q 1268 181 1268 99 q 1334 383 1268 288 q 1524 478 1400 478 q 1657 418 1614 478 q 1700 278 1700 358 q 1685 178 1700 228 q 1642 83 1671 128 q 1562 11 1613 39 q 1447 -17 1511 -17 m 901 33 q 1047 108 996 33 q 1099 271 1099 182 q 1067 381 1099 335 q 971 428 1036 428 q 825 351 876 428 q 774 188 774 275 q 805 78 774 122 q 901 33 836 33 m 1450 33 q 1596 108 1544 33 q 1647 271 1647 182 q 1616 381 1647 335 q 1519 428 1585 428 q 1374 351 1425 428 q 1322 188 1322 275 q 1353 78 1322 122 q 1450 33 1385 33 z "},"′":{"ha":238,"x_min":149,"x_max":314,"o":"m 251 1014 l 314 1014 l 199 590 l 149 590 l 251 1014 z "},"″":{"ha":467,"x_min":149,"x_max":543,"o":"m 149 590 l 251 1014 l 314 1014 l 199 590 l 149 590 m 378 590 l 481 1014 l 543 1014 l 428 590 l 378 590 z "},"‹":{"ha":363,"x_min":101,"x_max":432,"o":"m 250 0 l 101 356 l 374 710 l 432 710 l 160 356 l 308 0 l 250 0 z "},"›":{"ha":363,"x_min":29,"x_max":361,"o":"m 29 0 l 303 356 l 153 710 l 211 710 l 361 356 l 88 0 l 29 0 z "},"⁄":{"ha":418,"x_min":-172,"x_max":728,"o":"m -172 -17 l 667 989 l 728 989 l -111 -17 l -172 -17 z "},"ⁿ":{"ha":604,"x_min":151,"x_max":613,"o":"m 494 393 l 551 719 q 563 817 563 779 q 456 943 563 943 q 261 731 297 943 l 203 393 l 151 393 l 254 975 l 303 975 l 286 875 q 361 958 314 926 q 461 989 408 989 q 613 821 613 989 q 601 721 613 781 l 543 393 l 494 393 z "},"₤":{"ha":785,"x_min":101,"x_max":842,"o":"m 101 0 l 111 56 q 307 349 296 194 l 164 349 l 172 394 l 310 394 q 307 463 310 438 q 297 519 303 490 l 194 519 l 201 565 l 290 565 q 275 696 275 629 q 363 903 275 817 q 604 989 450 989 q 842 914 757 989 l 815 869 q 597 940 742 940 q 399 867 469 940 q 329 700 329 793 q 346 565 329 631 l 618 565 l 610 519 l 353 519 q 360 472 358 489 q 364 394 364 435 l 588 394 l 579 349 l 360 349 q 154 46 331 178 l 713 46 l 704 0 l 101 0 z "},"€":{"ha":786,"x_min":108,"x_max":844,"o":"m 468 -17 q 265 75 333 -17 q 196 339 196 167 l 108 339 l 136 385 l 197 385 q 231 568 207 483 l 149 568 l 176 614 l 244 614 q 303 753 269 690 q 385 871 338 815 q 500 958 433 926 q 646 989 567 989 q 844 933 769 989 l 819 889 q 642 939 747 939 q 432 847 517 939 q 300 614 347 754 l 656 614 l 628 568 l 285 568 q 251 385 263 488 l 519 385 l 493 339 l 250 339 q 469 33 250 33 q 689 129 586 33 l 726 99 q 468 -17 614 -17 z "},"℅":{"ha":1296,"x_min":160,"x_max":1264,"o":"m 338 378 q 207 442 254 378 q 160 613 160 506 q 176 737 160 674 q 222 858 192 800 q 308 952 253 915 q 433 989 363 989 q 535 956 494 989 q 585 868 576 924 l 536 850 q 429 938 517 938 q 308 885 358 938 q 235 760 257 832 q 214 613 214 689 q 247 478 214 526 q 340 429 281 429 q 485 531 432 429 l 532 510 q 338 378 467 378 m 244 -17 l 1085 989 l 1146 989 l 306 -17 l 244 -17 m 978 -17 q 840 46 890 -17 q 789 218 789 108 q 867 492 789 389 q 1074 594 946 594 q 1213 531 1163 594 q 1264 360 1264 468 q 1185 86 1264 189 q 978 -17 1107 -17 m 986 33 q 1148 122 1086 33 q 1210 360 1210 211 q 1172 497 1210 449 q 1068 544 1135 544 q 904 456 965 544 q 843 218 843 368 q 881 82 843 131 q 986 33 919 33 z "},"ℓ":{"ha":596,"x_min":156,"x_max":632,"o":"m 326 -17 q 249 7 279 -17 q 218 83 218 31 q 228 158 218 103 l 268 383 q 164 335 222 358 l 156 369 q 276 431 214 393 l 331 739 q 510 989 372 989 q 597 949 561 989 q 632 832 632 908 q 610 713 632 771 q 558 615 588 656 q 481 530 529 574 q 401 463 433 486 q 322 410 369 440 l 274 133 q 269 88 269 110 q 329 29 269 29 q 449 78 392 29 l 460 40 q 326 -17 393 -17 m 510 943 q 378 726 414 943 l 332 463 q 528 646 475 560 q 581 832 581 732 q 563 912 581 881 q 510 943 544 943 z "},"№":{"ha":1564,"x_min":119,"x_max":1535,"o":"m 1249 378 q 1110 440 1161 378 q 1060 613 1060 503 q 1138 886 1060 783 q 1344 989 1217 989 q 1484 926 1433 989 q 1535 754 1535 863 q 1456 481 1535 583 q 1249 378 1378 378 m 119 0 l 290 972 l 339 972 l 650 243 q 714 93 707 110 q 727 172 718 121 q 740 243 736 222 l 868 972 l 919 972 l 749 0 l 700 0 l 389 726 q 362 790 386 733 q 325 879 338 847 q 312 800 321 851 q 299 726 303 749 l 171 0 l 119 0 m 1257 428 q 1419 517 1357 428 q 1481 754 1481 606 q 1443 891 1481 843 q 1339 939 1406 939 q 1175 851 1236 939 q 1114 613 1114 763 q 1152 476 1114 525 q 1257 428 1190 428 m 1008 194 l 1017 244 l 1426 244 l 1418 194 l 1008 194 z "},"™":{"ha":1058,"x_min":150,"x_max":1061,"o":"m 317 386 l 317 925 l 150 925 l 150 972 l 532 972 l 532 925 l 367 925 l 367 386 l 317 386 m 1061 386 l 1011 386 l 1011 799 l 832 372 l 653 799 l 653 386 l 603 386 l 603 972 l 633 972 l 815 536 l 832 497 l 849 536 l 1031 972 l 1061 972 l 1061 386 z "},"Ω":{"ha":992,"x_min":81,"x_max":960,"o":"m 571 0 l 581 58 q 823 322 740 171 q 906 626 906 472 q 892 741 906 688 q 848 840 878 794 q 765 913 818 886 q 639 939 711 939 q 455 893 536 939 q 326 774 374 847 q 255 617 279 700 q 231 450 231 533 q 269 235 231 340 q 386 58 308 129 l 376 0 l 81 0 l 89 50 l 336 50 q 219 217 261 114 q 176 440 176 319 q 203 628 176 535 q 282 803 229 721 q 428 938 335 886 q 639 989 521 989 q 788 958 724 989 q 888 876 851 928 q 942 764 924 825 q 960 635 960 703 q 872 301 960 451 q 633 50 783 150 l 875 50 l 867 0 l 571 0 z "},"℮":{"ha":1092,"x_min":150,"x_max":1094,"o":"m 629 -17 q 289 122 428 -17 q 150 486 150 261 q 190 708 150 610 q 299 868 231 807 q 453 961 367 929 q 633 993 539 993 q 803 960 724 993 q 947 866 883 928 q 1050 706 1011 804 q 1094 486 1089 608 l 351 486 l 351 138 q 629 33 460 33 q 840 86 756 33 q 993 243 924 139 l 1036 217 q 865 42 960 101 q 629 -17 769 -17 m 900 839 q 633 943 793 943 q 474 916 550 943 q 351 844 399 889 l 351 536 l 900 536 l 900 839 z "},"⅓":{"ha":964,"x_min":1,"x_max":961,"o":"m 1 -17 l 840 989 l 901 989 l 63 -17 l 1 -17 m 156 393 l 238 857 l 160 857 l 165 888 q 239 911 215 890 q 278 979 263 932 l 313 979 l 210 393 l 156 393 m 586 129 q 636 57 606 81 q 721 33 667 33 q 835 71 790 33 q 879 174 879 108 q 853 247 879 219 q 776 275 826 275 l 733 275 l 743 325 l 772 325 q 867 366 828 325 q 907 460 907 407 q 883 522 907 497 q 814 546 858 546 q 665 457 726 546 l 621 478 q 706 565 654 533 q 815 596 758 596 q 922 561 883 596 q 961 461 961 526 q 931 366 961 408 q 846 303 901 324 q 932 174 932 279 q 869 36 932 89 q 721 -17 807 -17 q 603 18 650 -17 q 539 113 556 53 l 586 129 z "},"⅔":{"ha":1182,"x_min":96,"x_max":1179,"o":"m 178 853 q 253 951 203 913 q 374 989 304 989 q 485 949 442 989 q 529 844 529 910 q 488 714 529 763 q 342 610 446 665 q 229 533 268 571 q 169 449 190 496 l 458 449 l 449 393 l 96 393 q 171 545 113 488 q 328 658 229 603 q 442 742 410 704 q 475 839 475 779 q 450 910 475 881 q 372 939 425 939 q 222 833 272 939 l 178 853 m 219 -17 l 1058 989 l 1119 989 l 281 -17 l 219 -17 m 804 129 q 854 57 824 81 q 939 33 885 33 q 1053 71 1008 33 q 1097 174 1097 108 q 1071 247 1097 219 q 994 275 1044 275 l 951 275 l 961 325 l 990 325 q 1085 366 1046 325 q 1125 460 1125 407 q 1101 522 1125 497 q 1032 546 1078 546 q 883 457 944 546 l 839 478 q 924 565 872 533 q 1033 596 976 596 q 1140 561 1101 596 q 1179 461 1179 526 q 1149 366 1179 408 q 1064 303 1119 324 q 1150 174 1150 279 q 1088 36 1150 89 q 939 -17 1025 -17 q 821 18 868 -17 q 757 113 774 53 l 804 129 z "},"⅛":{"ha":953,"x_min":1,"x_max":933,"o":"m 1 -17 l 840 989 l 901 989 l 63 -17 l 1 -17 m 156 393 l 238 857 l 160 857 l 165 888 q 239 911 215 890 q 278 979 263 932 l 313 979 l 210 393 l 156 393 m 701 -17 q 585 26 628 -17 q 542 136 542 69 q 582 254 542 207 q 686 322 622 301 q 638 363 656 335 q 619 425 619 392 q 672 547 619 497 q 797 596 724 596 q 894 558 856 596 q 933 464 933 519 q 903 374 933 414 q 826 317 874 333 q 910 185 910 283 q 851 40 910 96 q 701 -17 792 -17 m 758 342 q 847 376 813 342 q 882 463 882 410 q 859 524 882 500 q 794 547 836 547 q 705 513 740 547 q 669 426 669 479 q 693 365 669 389 q 758 342 717 342 m 704 32 q 812 74 767 32 q 857 185 857 115 q 828 263 857 231 q 749 294 799 294 q 641 248 685 294 q 597 139 597 201 q 626 60 597 88 q 704 32 656 32 z "},"⅜":{"ha":1154,"x_min":106,"x_max":1133,"o":"m 288 376 q 169 411 217 376 q 106 506 122 446 l 153 522 q 203 450 172 474 q 288 426 233 426 q 401 464 357 426 q 446 567 446 501 q 419 640 446 613 q 343 668 393 668 l 300 668 l 310 718 l 339 718 q 434 759 394 718 q 474 853 474 800 q 449 915 474 892 q 381 939 425 939 q 232 850 293 939 l 188 871 q 273 958 221 926 q 382 989 325 989 q 489 954 450 989 q 528 854 528 919 q 498 759 528 801 q 413 696 468 717 q 499 567 499 672 q 436 429 499 482 q 288 376 374 376 m 200 -17 l 1039 989 l 1100 989 l 261 -17 l 200 -17 m 901 -17 q 785 26 828 -17 q 742 136 742 69 q 782 254 742 207 q 886 322 822 301 q 838 363 856 335 q 819 425 819 392 q 872 547 819 497 q 997 596 924 596 q 1094 558 1056 596 q 1133 464 1133 519 q 1103 374 1133 414 q 1026 317 1074 333 q 1110 185 1110 283 q 1051 40 1110 96 q 901 -17 992 -17 m 958 342 q 1047 376 1013 342 q 1082 463 1082 410 q 1059 524 1082 500 q 994 547 1036 547 q 905 513 940 547 q 869 426 869 479 q 893 365 869 389 q 958 342 917 342 m 904 32 q 1012 74 967 32 q 1057 185 1057 115 q 1028 263 1057 231 q 949 294 999 294 q 841 248 885 294 q 797 139 797 201 q 826 60 797 88 q 904 32 856 32 z "},"⅝":{"ha":1131,"x_min":93,"x_max":1110,"o":"m 178 -17 l 1017 989 l 1078 989 l 239 -17 l 178 -17 m 256 376 q 157 396 200 376 q 93 440 114 415 l 129 478 q 257 425 179 425 q 388 475 339 425 q 436 600 436 525 q 408 683 436 651 q 326 714 381 714 q 186 654 249 714 l 146 665 l 247 972 l 515 972 l 504 919 l 275 919 l 210 718 q 336 763 272 763 q 449 718 408 763 q 489 601 489 674 q 423 440 489 504 q 256 376 357 376 m 878 -17 q 761 26 804 -17 q 718 136 718 69 q 758 254 718 207 q 863 322 799 301 q 814 363 832 335 q 796 425 796 392 q 848 547 796 497 q 974 596 900 596 q 1071 558 1032 596 q 1110 464 1110 519 q 1080 374 1110 414 q 1003 317 1050 333 q 1086 185 1086 283 q 1027 40 1086 96 q 878 -17 968 -17 m 935 342 q 1024 376 989 342 q 1058 463 1058 410 q 1035 524 1058 500 q 971 547 1011 547 q 881 513 917 547 q 846 426 846 479 q 869 365 846 389 q 935 342 893 342 m 881 32 q 988 74 943 32 q 1033 185 1033 115 q 1004 263 1033 231 q 925 294 975 294 q 817 248 861 294 q 774 139 774 201 q 803 60 774 88 q 881 32 832 32 z "},"⅞":{"ha":1004,"x_min":50,"x_max":985,"o":"m 50 -17 l 889 989 l 950 989 l 111 -17 l 50 -17 m 178 393 q 456 922 236 690 l 160 922 l 169 972 l 517 972 l 506 910 q 232 393 296 710 l 178 393 m 753 -17 q 636 26 679 -17 q 593 136 593 69 q 633 254 593 207 q 738 322 674 301 q 689 363 707 335 q 671 425 671 392 q 723 547 671 497 q 849 596 775 596 q 946 558 907 596 q 985 464 985 519 q 955 374 985 414 q 878 317 925 333 q 961 185 961 283 q 902 40 961 96 q 753 -17 843 -17 m 810 342 q 899 376 864 342 q 933 463 933 410 q 910 524 933 500 q 846 547 886 547 q 756 513 792 547 q 721 426 721 479 q 744 365 721 389 q 810 342 768 342 m 756 32 q 863 74 818 32 q 908 185 908 115 q 879 263 908 231 q 800 294 850 294 q 692 248 736 294 q 649 139 649 201 q 678 60 649 88 q 756 32 707 32 z "},"←":{"ha":1139,"x_min":76,"x_max":1049,"o":"m 339 313 q 313 325 331 313 l 96 474 q 76 500 76 486 q 96 526 76 514 l 313 675 q 339 688 331 688 q 356 672 356 688 q 347 643 356 665 l 306 522 l 1049 533 l 1049 465 l 306 478 l 347 357 q 356 328 356 335 q 339 313 356 313 z "},"↑":{"ha":528,"x_min":76,"x_max":451,"o":"m 231 0 l 242 743 l 121 701 q 92 693 99 693 q 76 710 76 693 q 89 736 76 717 l 238 953 q 264 972 250 972 q 290 953 278 972 l 439 736 q 451 710 451 717 q 436 693 451 693 q 407 701 429 693 l 286 743 l 299 0 l 231 0 z "},"→":{"ha":1139,"x_min":90,"x_max":1063,"o":"m 800 313 q 783 328 783 313 q 792 357 783 335 l 833 478 l 90 465 l 90 533 l 833 522 l 792 643 q 783 672 783 665 q 800 688 783 688 q 826 675 808 688 l 1043 526 q 1063 500 1063 514 q 1043 474 1063 486 l 826 325 q 800 313 808 313 z "},"↓":{"ha":536,"x_min":79,"x_max":457,"o":"m 288 13 q 268 0 279 0 q 249 13 257 0 l 86 250 q 79 267 79 260 q 96 281 79 281 q 108 278 100 281 l 244 231 l 236 974 l 300 974 l 292 231 l 428 278 q 440 281 436 281 q 457 267 457 281 q 450 250 457 260 l 288 13 z "},"↔":{"ha":1125,"x_min":76,"x_max":1049,"o":"m 786 313 q 769 328 769 313 q 778 357 769 335 l 818 474 l 307 474 l 347 357 q 356 328 356 335 q 339 313 356 313 q 313 325 331 313 l 96 474 q 76 500 76 486 q 96 526 76 514 l 313 675 q 339 688 331 688 q 356 672 356 688 q 347 643 356 665 l 307 526 l 818 526 l 778 643 q 769 672 769 665 q 786 688 769 688 q 813 675 794 688 l 1029 526 q 1049 500 1049 514 q 1029 474 1049 486 l 813 325 q 786 313 794 313 z "},"↕":{"ha":536,"x_min":81,"x_max":456,"o":"m 294 -217 q 268 -236 282 -236 q 242 -217 254 -236 l 93 0 q 81 26 81 19 q 96 43 81 43 q 125 35 103 43 l 242 -6 l 242 833 l 125 793 q 96 785 103 785 q 81 801 81 785 q 93 828 81 808 l 242 1044 q 268 1064 254 1064 q 294 1044 282 1064 l 443 828 q 456 801 456 808 q 440 785 456 785 q 411 793 433 785 l 294 833 l 294 -6 l 411 35 q 440 43 433 43 q 456 26 456 43 q 443 0 456 19 l 294 -217 z "},"↖":{"ha":863,"x_min":97,"x_max":814,"o":"m 767 118 l 250 653 l 194 538 q 168 506 181 506 q 147 539 153 506 l 100 790 q 97 813 97 804 q 121 836 97 836 q 151 832 129 836 l 394 786 q 428 765 428 779 q 396 739 428 756 l 281 683 l 814 165 l 767 118 z "},"↗":{"ha":863,"x_min":49,"x_max":765,"o":"m 96 118 l 49 165 l 582 683 l 467 739 q 435 765 435 756 q 468 786 435 779 l 711 832 q 742 836 735 836 q 765 813 765 836 q 763 790 765 804 l 715 539 q 694 506 710 506 q 668 538 682 506 l 613 653 l 96 118 z "},"↘":{"ha":863,"x_min":49,"x_max":765,"o":"m 742 118 q 711 122 733 118 l 468 168 q 435 189 435 175 q 467 215 435 200 l 582 271 l 49 789 l 96 836 l 613 301 l 668 417 q 694 449 682 449 q 715 415 710 449 l 763 164 q 765 142 765 150 q 742 118 765 118 z "},"↙":{"ha":863,"x_min":97,"x_max":814,"o":"m 121 118 q 97 142 97 118 q 100 164 97 150 l 147 415 q 168 449 153 449 q 194 417 181 449 l 250 301 l 767 836 l 814 789 l 281 271 l 396 215 q 428 189 428 200 q 394 168 428 175 l 151 122 q 121 118 128 118 z "},"↳":{"ha":917,"x_min":147,"x_max":840,"o":"m 821 324 q 840 297 840 311 q 821 271 840 283 l 604 122 q 578 110 586 110 q 561 125 561 110 q 569 154 561 132 l 610 271 l 147 271 l 147 972 l 207 972 l 207 324 l 610 324 l 569 440 q 561 469 561 463 q 578 485 561 485 q 604 472 586 485 l 821 324 z "},"↴":{"ha":917,"x_min":147,"x_max":840,"o":"m 825 458 q 840 442 840 458 q 828 415 840 433 l 679 199 q 653 179 667 179 q 626 199 639 179 l 478 415 q 465 442 465 433 q 481 458 465 458 q 510 450 488 458 l 624 411 l 624 919 l 147 919 l 147 972 l 682 972 l 682 411 l 796 450 q 825 458 818 458 z "},"↵":{"ha":917,"x_min":76,"x_max":769,"o":"m 710 972 l 769 972 l 769 271 l 307 271 l 347 154 q 356 125 356 132 q 339 110 356 110 q 313 122 331 110 l 96 271 q 76 297 76 283 q 96 324 76 311 l 313 472 q 339 485 331 485 q 356 469 356 485 q 347 440 356 463 l 307 324 l 710 324 l 710 972 z "},"↶":{"ha":1054,"x_min":76,"x_max":907,"o":"m 328 889 q 375 939 328 889 q 571 989 422 989 q 813 889 719 989 q 907 621 907 789 l 907 0 l 849 0 l 849 621 q 771 852 849 767 q 571 938 693 938 q 370 853 447 938 q 293 621 293 768 l 293 571 l 407 610 q 436 618 429 618 q 451 601 451 618 q 439 575 451 594 l 290 358 q 264 339 278 339 q 238 358 250 339 l 89 575 q 76 601 76 594 q 92 618 76 618 q 121 610 99 618 l 235 571 l 235 621 q 328 889 235 789 z "},"↷":{"ha":1054,"x_min":147,"x_max":978,"o":"m 963 618 q 978 601 978 618 q 965 575 978 594 l 817 358 q 790 339 804 339 q 764 358 776 339 l 615 575 q 603 601 603 594 q 618 618 603 618 q 647 610 625 618 l 761 571 l 761 621 q 684 853 761 768 q 483 938 607 938 q 283 852 361 938 q 206 621 206 767 l 206 0 l 147 0 l 147 621 q 241 889 147 789 q 483 989 335 989 q 726 889 632 989 q 819 621 819 789 l 819 571 l 933 610 q 963 618 956 618 z "},"↸":{"ha":863,"x_min":97,"x_max":814,"o":"m 97 919 l 97 972 l 814 972 l 814 919 l 97 919 m 767 46 l 250 581 l 194 465 q 168 433 181 433 q 147 467 153 433 l 100 718 q 97 740 97 732 q 121 764 97 764 q 151 760 129 764 l 394 714 q 428 693 428 707 q 396 667 428 683 l 281 611 l 814 93 l 767 46 z "},"↹":{"ha":1071,"x_min":147,"x_max":924,"o":"m 561 556 q 535 568 553 556 l 318 717 q 299 743 299 729 q 318 769 299 757 l 535 918 q 561 931 553 931 q 578 915 578 931 q 569 886 578 908 l 528 765 l 924 776 l 924 708 l 528 721 l 569 600 q 578 571 578 578 q 561 556 578 556 m 147 569 l 147 917 l 211 917 l 211 569 l 147 569 m 510 -237 q 493 -222 493 -237 q 501 -193 493 -215 l 543 -72 l 147 -85 l 147 -17 l 543 -28 l 501 93 q 493 122 493 115 q 510 138 493 138 q 536 125 517 138 l 753 -24 q 772 -50 772 -36 q 753 -76 772 -64 l 536 -225 q 510 -237 517 -237 m 860 -224 l 860 124 l 924 124 l 924 -224 l 860 -224 z "},"↺":{"ha":1175,"x_min":139,"x_max":1051,"o":"m 1051 874 q 1019 847 1051 864 l 913 796 q 1036 486 1036 665 q 904 169 1036 300 q 588 38 772 38 q 271 169 403 38 q 139 486 139 300 q 271 803 139 674 l 313 761 q 197 486 197 646 q 313 210 197 325 q 588 96 428 96 q 863 210 747 96 q 978 486 978 325 q 869 754 978 639 l 818 646 q 792 614 804 614 q 771 647 776 614 l 724 899 q 721 921 721 913 q 744 944 721 944 q 775 940 753 944 l 1018 894 q 1051 874 1051 888 z "},"⇚":{"ha":1139,"x_min":76,"x_max":1049,"o":"m 1049 569 l 321 569 l 304 521 l 1049 521 l 1049 479 l 304 479 l 321 431 l 1049 431 l 1049 389 l 336 389 l 347 357 q 356 328 356 335 q 339 313 356 313 q 313 325 331 313 l 96 474 q 76 500 76 486 q 96 526 76 514 l 313 675 q 339 688 331 688 q 356 672 356 688 q 347 643 356 665 l 336 611 l 1049 611 l 1049 569 z "},"⇛":{"ha":1139,"x_min":90,"x_max":1063,"o":"m 1043 526 q 1063 500 1063 514 q 1043 474 1063 486 l 826 325 q 800 313 808 313 q 783 328 783 313 q 792 357 783 335 l 803 389 l 90 389 l 90 431 l 818 431 l 835 479 l 90 479 l 90 521 l 835 521 l 818 569 l 90 569 l 90 611 l 803 611 l 792 643 q 783 672 783 665 q 800 688 783 688 q 826 675 808 688 l 1043 526 z "},"⇜":{"ha":1139,"x_min":76,"x_max":1049,"o":"m 896 526 l 1049 526 l 1049 474 l 854 474 l 825 564 l 756 349 l 697 349 l 628 564 l 558 349 l 500 349 l 460 474 l 307 474 l 347 357 q 356 328 356 335 q 339 313 356 313 q 313 325 331 313 l 96 474 q 76 500 76 486 q 96 526 76 514 l 313 675 q 339 688 331 688 q 356 672 356 688 q 347 643 356 665 l 307 526 l 501 526 l 529 439 l 599 654 l 657 654 l 726 439 l 796 654 l 854 654 l 896 526 z "},"⇝":{"ha":1139,"x_min":90,"x_max":1063,"o":"m 1043 526 q 1063 500 1063 514 q 1043 474 1063 486 l 826 325 q 800 313 808 313 q 783 328 783 313 q 792 357 783 335 l 832 474 l 679 474 l 639 349 l 581 349 l 511 564 l 442 349 l 383 349 l 314 564 l 285 474 l 90 474 l 90 526 l 243 526 l 285 654 l 343 654 l 413 439 l 482 654 l 540 654 l 610 439 l 638 526 l 832 526 l 792 643 q 783 672 783 665 q 800 688 783 688 q 826 675 808 688 l 1043 526 z "},"⇞":{"ha":528,"x_min":76,"x_max":451,"o":"m 439 736 q 451 710 451 717 q 436 693 451 693 q 407 701 429 693 l 293 742 l 293 467 l 436 467 l 436 414 l 293 414 l 293 247 l 436 247 l 436 194 l 293 194 l 293 0 l 235 0 l 235 194 l 92 194 l 92 247 l 235 247 l 235 414 l 92 414 l 92 467 l 235 467 l 235 742 l 121 701 q 92 693 99 693 q 76 710 76 693 q 89 736 76 717 l 238 953 q 264 972 250 972 q 290 953 278 972 l 439 736 z "},"⇟":{"ha":528,"x_min":76,"x_max":451,"o":"m 436 279 q 451 263 451 279 q 439 236 451 256 l 290 19 q 264 0 278 0 q 238 19 250 0 l 89 236 q 76 263 76 254 q 92 279 76 279 q 121 271 99 279 l 235 231 l 235 506 l 92 506 l 92 558 l 235 558 l 235 725 l 92 725 l 92 778 l 235 778 l 235 972 l 293 972 l 293 778 l 436 778 l 436 725 l 293 725 l 293 558 l 436 558 l 436 506 l 293 506 l 293 231 l 407 271 q 436 279 429 279 z "},"⇠":{"ha":1139,"x_min":76,"x_max":1049,"o":"m 347 643 l 307 526 l 471 526 l 471 474 l 307 474 l 347 357 q 356 328 356 335 q 339 313 356 313 q 313 325 331 313 l 96 474 q 76 500 76 486 q 96 526 76 514 l 313 675 q 339 688 331 688 q 356 672 356 688 q 347 643 356 665 m 589 474 l 589 526 l 760 526 l 760 474 l 589 474 m 878 526 l 1049 526 l 1049 474 l 878 474 l 878 526 z "},"⇡":{"ha":528,"x_min":76,"x_max":451,"o":"m 439 736 q 451 710 451 717 q 436 693 451 693 q 407 701 429 693 l 293 742 l 293 581 l 235 581 l 235 742 l 121 701 q 92 693 99 693 q 76 710 76 693 q 89 736 76 717 l 238 953 q 264 972 250 972 q 290 953 278 972 l 439 736 m 235 290 l 235 465 l 293 465 l 293 290 l 235 290 m 235 0 l 235 175 l 293 175 l 293 0 l 235 0 z "},"⇢":{"ha":1139,"x_min":90,"x_max":1063,"o":"m 1043 526 q 1063 500 1063 514 q 1043 474 1063 486 l 826 325 q 800 313 808 313 q 783 328 783 313 q 792 357 783 335 l 832 474 l 668 474 l 668 526 l 832 526 l 792 643 q 783 672 783 665 q 800 688 783 688 q 826 675 808 688 l 1043 526 m 90 474 l 90 526 l 261 526 l 261 474 l 90 474 m 379 474 l 379 526 l 550 526 l 550 474 l 379 474 z "},"⇣":{"ha":528,"x_min":76,"x_max":451,"o":"m 293 972 l 293 797 l 235 797 l 235 972 l 293 972 m 293 682 l 293 507 l 235 507 l 235 682 l 293 682 m 436 279 q 451 263 451 279 q 439 236 451 256 l 290 19 q 264 0 278 0 q 238 19 250 0 l 89 236 q 76 263 76 254 q 92 279 76 279 q 121 271 99 279 l 235 231 l 235 392 l 293 392 l 293 231 l 407 271 q 436 279 429 279 z "},"⇤":{"ha":1014,"x_min":147,"x_max":924,"o":"m 147 144 l 147 854 l 197 854 l 197 144 l 147 144 m 561 313 q 535 325 553 313 l 318 474 q 299 500 299 486 q 318 526 299 514 l 535 675 q 561 688 553 688 q 578 672 578 688 q 569 643 578 665 l 528 522 l 924 533 l 924 465 l 528 478 l 569 357 q 578 328 578 335 q 561 313 578 313 z "},"⇥":{"ha":1014,"x_min":90,"x_max":867,"o":"m 817 144 l 817 854 l 867 854 l 867 144 l 817 144 m 453 313 q 436 328 436 313 q 444 357 436 335 l 486 478 l 90 465 l 90 533 l 486 522 l 444 643 q 436 672 436 665 q 453 688 436 688 q 479 675 461 688 l 696 526 q 715 500 715 514 q 696 474 715 486 l 479 325 q 453 313 461 313 z "},"∂":{"ha":781,"x_min":85,"x_max":771,"o":"m 335 -17 q 153 52 221 -17 q 85 231 85 121 q 194 496 85 388 q 449 604 304 604 q 629 540 568 604 q 690 365 690 476 q 719 613 719 475 q 651 844 719 761 q 456 944 582 928 l 475 989 q 771 613 771 944 q 745 389 771 497 q 669 188 719 281 q 533 40 619 96 q 335 -17 446 -17 m 335 33 q 555 126 464 33 q 646 343 646 218 q 592 498 646 444 q 446 551 539 551 q 232 458 324 551 q 140 233 140 365 q 193 88 140 142 q 335 33 246 33 z "},"∆":{"ha":886,"x_min":71,"x_max":778,"o":"m 71 0 l 578 972 l 613 972 l 778 0 l 71 0 m 149 50 l 721 50 l 593 785 q 579 878 589 811 l 531 783 l 149 50 z "},"∏":{"ha":939,"x_min":90,"x_max":956,"o":"m 699 -194 l 894 922 l 339 922 l 143 -194 l 90 -194 l 294 972 l 956 972 l 751 -194 l 699 -194 z "},"∑":{"ha":842,"x_min":35,"x_max":899,"o":"m 35 -197 l 42 -153 l 551 407 l 251 936 l 257 969 l 899 969 l 890 919 l 324 919 l 615 403 l 115 -147 l 731 -147 l 722 -197 l 35 -197 z "},"−":{"ha":883,"x_min":185,"x_max":838,"o":"m 185 450 l 185 500 l 838 500 l 838 450 l 185 450 z "},"∕":{"ha":418,"x_min":-172,"x_max":728,"o":"m -172 -17 l 667 989 l 728 989 l -111 -17 l -172 -17 z "},"∙":{"ha":253,"x_min":153,"x_max":236,"o":"m 186 444 q 163 455 172 444 q 153 481 153 465 q 169 513 154 499 q 203 528 183 528 q 227 517 218 528 q 236 490 236 507 q 220 458 235 471 q 186 444 206 444 z "},"√":{"ha":742,"x_min":163,"x_max":843,"o":"m 843 972 l 376 0 l 313 0 l 163 436 l 214 436 l 347 49 l 789 972 l 843 972 z "},"∞":{"ha":1358,"x_min":132,"x_max":1365,"o":"m 385 199 q 202 266 272 199 q 132 451 132 333 q 230 702 132 608 q 468 796 328 796 q 753 532 657 796 q 916 728 832 660 q 1111 796 1000 796 q 1294 728 1224 796 q 1365 540 1365 660 q 1267 292 1365 385 q 1031 199 1169 199 q 744 460 829 199 q 385 199 575 199 m 390 244 q 731 496 571 244 q 463 750 639 750 q 266 669 347 750 q 185 458 185 589 q 242 302 185 360 q 390 244 300 244 m 1036 244 q 1231 324 1151 244 q 1311 533 1311 403 q 1254 692 1311 633 q 1106 750 1197 750 q 765 496 928 750 q 1036 244 854 244 z "},"∫":{"ha":483,"x_min":4,"x_max":593,"o":"m 85 -194 q 4 -172 42 -194 l 11 -128 q 92 -149 53 -149 q 163 -122 139 -149 q 197 -37 186 -96 l 351 838 q 513 989 379 989 q 593 967 556 989 l 586 922 q 506 943 544 943 q 435 917 458 943 q 400 832 411 890 l 246 -43 q 85 -194 218 -194 z "},"≈":{"ha":883,"x_min":188,"x_max":835,"o":"m 188 508 q 229 636 188 583 q 351 689 271 689 q 464 656 407 689 q 574 591 521 624 q 674 558 628 558 q 752 593 724 558 q 783 689 781 628 l 835 689 q 793 561 835 614 q 671 508 751 508 q 558 541 615 508 q 448 606 501 574 q 349 639 394 639 q 270 605 299 639 q 239 508 242 571 l 188 508 m 188 264 q 229 392 188 339 q 351 444 271 444 q 464 412 407 444 q 574 347 521 379 q 674 314 628 314 q 752 349 724 314 q 783 444 781 383 l 835 444 q 793 317 835 369 q 671 264 751 264 q 558 297 615 264 q 448 362 501 329 q 349 394 394 394 q 270 360 299 394 q 239 264 242 326 l 188 264 z "},"≠":{"ha":883,"x_min":185,"x_max":838,"o":"m 465 318 l 389 171 l 329 171 l 406 318 l 185 318 l 185 368 l 431 368 l 542 582 l 185 582 l 185 632 l 567 632 l 632 758 l 692 758 l 626 632 l 838 632 l 838 582 l 601 582 l 490 368 l 838 368 l 838 318 l 465 318 z "},"≤":{"ha":883,"x_min":185,"x_max":838,"o":"m 838 217 l 185 500 l 185 553 l 838 836 l 838 779 l 250 526 l 838 274 l 838 217 m 185 0 l 185 50 l 838 50 l 838 0 l 185 0 z "},"≥":{"ha":883,"x_min":185,"x_max":838,"o":"m 185 217 l 185 274 l 772 526 l 185 779 l 185 836 l 838 553 l 838 500 l 185 217 m 185 0 l 185 50 l 838 50 l 838 0 l 185 0 z "},"◊":{"ha":828,"x_min":178,"x_max":789,"o":"m 371 -17 l 178 486 l 546 989 l 596 989 l 789 486 l 421 -17 l 371 -17 m 567 944 l 229 481 l 400 28 l 738 492 l 567 944 z "},"◌":{"ha":903,"x_min":150,"x_max":892,"o":"m 491 794 q 485 800 491 794 q 479 825 479 806 q 491 857 479 844 q 521 869 503 869 q 551 857 539 869 q 563 825 563 844 q 551 794 563 806 q 521 783 539 783 q 491 794 503 783 m 353 800 q 365 832 353 819 q 396 844 376 844 q 426 832 414 844 q 438 800 438 819 q 426 770 438 782 q 396 758 414 758 q 365 770 378 758 q 353 800 353 782 m 615 770 q 609 776 615 770 q 603 800 603 782 q 615 831 603 818 q 644 843 628 843 q 676 831 664 843 q 689 800 689 819 q 676 770 689 782 q 644 758 664 758 q 615 770 626 758 m 247 731 q 259 760 247 749 q 290 772 271 772 q 320 761 308 772 q 332 731 332 750 q 321 699 332 711 q 290 688 310 688 q 259 699 271 688 q 247 731 247 711 m 721 699 q 715 705 721 699 q 710 731 710 711 q 722 761 710 750 q 751 772 733 772 q 783 760 771 772 q 794 731 794 749 q 783 699 794 711 q 751 688 771 688 q 721 699 732 688 m 792 594 q 786 600 792 594 q 781 624 781 606 q 792 655 781 642 q 822 668 804 668 q 853 655 840 668 q 865 624 865 642 q 853 594 865 606 q 822 582 840 582 q 792 594 804 582 m 189 593 q 183 599 189 593 q 176 624 176 606 q 188 654 176 642 q 219 667 200 667 q 251 654 239 667 q 263 624 263 642 q 249 593 263 606 q 219 581 236 581 q 189 593 201 581 m 150 499 q 163 530 150 518 q 194 542 175 542 q 225 530 214 542 q 236 499 236 518 q 225 469 236 481 q 194 457 214 457 q 163 469 175 457 q 150 499 150 481 m 806 499 q 817 530 806 518 q 847 542 828 542 q 878 530 865 542 q 892 499 892 518 q 878 469 892 481 q 847 457 865 457 q 817 469 828 457 q 806 499 806 481 m 189 343 q 183 349 189 343 q 176 374 176 356 q 188 404 176 392 q 219 417 200 417 q 249 404 238 417 q 261 374 261 392 q 249 343 261 356 q 219 331 238 331 q 189 343 201 331 m 779 375 q 792 405 779 393 q 822 417 804 417 q 853 405 840 417 q 865 375 865 393 q 853 344 865 356 q 822 332 842 332 q 791 344 803 332 q 779 375 779 356 m 259 238 q 253 244 259 238 q 247 268 247 250 q 260 299 247 286 q 290 311 272 311 q 320 299 308 311 q 332 268 332 288 q 320 238 332 250 q 290 226 308 226 q 259 238 271 226 m 710 268 q 722 299 710 288 q 751 311 733 311 q 782 299 769 311 q 794 268 794 286 q 783 238 794 250 q 751 226 771 226 q 722 238 733 226 q 710 268 710 250 m 353 199 q 365 228 353 217 q 397 240 378 240 q 427 228 415 240 q 439 199 439 217 q 426 167 439 181 q 397 154 414 154 q 365 167 378 154 q 353 199 353 179 m 616 167 q 610 173 616 167 q 604 197 604 179 q 616 228 604 215 q 646 240 628 240 q 676 228 664 240 q 689 197 689 217 q 676 166 689 178 q 646 154 664 154 q 616 167 628 154 m 491 141 q 485 147 491 141 q 479 172 479 153 q 491 203 479 192 q 521 215 503 215 q 551 203 539 215 q 563 172 563 192 q 551 141 563 153 q 521 129 539 129 q 491 141 503 129 z "},"":{"ha":0,"x_min":-192,"x_max":-47,"o":"m -47 1014 l -51 989 q -179 697 -89 793 l -192 708 q -97 1014 -133 803 l -47 1014 z "},"ﬁ":{"ha":729,"x_min":140,"x_max":756,"o":"m 308 664 l 192 0 l 140 0 l 257 664 l 146 664 l 154 710 l 265 710 l 288 838 q 442 989 315 989 q 525 967 488 989 l 517 922 q 439 943 475 943 q 370 917 393 943 q 338 832 347 890 l 317 710 l 481 710 l 472 664 l 308 664 m 708 865 q 675 900 675 865 q 688 934 675 919 q 722 949 701 949 q 756 913 756 949 q 742 879 756 893 q 708 865 729 865 m 532 0 l 657 710 l 707 710 l 583 0 l 532 0 z "},"ﬂ":{"ha":721,"x_min":140,"x_max":756,"o":"m 529 0 l 701 978 l 756 1003 l 581 0 l 529 0 m 308 664 l 192 0 l 140 0 l 257 664 l 146 664 l 154 710 l 265 710 l 288 838 q 442 989 315 989 q 525 967 488 989 l 517 922 q 439 943 475 943 q 370 917 393 943 q 338 832 347 890 l 317 710 l 481 710 l 472 664 l 308 664 z "}}}
